<?xml version="1.0" standalone="no"?>
<!DOCTYPE svg PUBLIC "-//W3C//DTD SVG 1.1//EN" "http://www.w3.org/Graphics/SVG/1.1/DTD/svg11.dtd" >
<svg xmlns="http://www.w3.org/2000/svg" xmlns:xlink="http://www.w3.org/1999/xlink" version="1.1">
<metadata>
Created by FontForge 20170731 at Fri Jun 17 23:58:05 2005
 By Aleksey,,,
nil
</metadata>
<defs>
<font id="arabswell_1" horiz-adv-x="600" >
  <font-face 
    font-family="arabswell_1"
    font-weight="5"
    font-stretch="normal"
    units-per-em="2048"
    panose-1="0 0 5 0 0 0 0 0 0 0"
    ascent="1638"
    descent="-410"
    x-height="1045"
    cap-height="1408"
    bbox="-1646 -1179 2595 2536"
    underline-thickness="80"
    underline-position="-820"
    unicode-range="U+0020-FEFF"
  />
<missing-glyph horiz-adv-x="1024" 
d="M128 0v1414h768v-1414h-768zM256 128h512v1158h-512v-1158z" />
    <glyph glyph-name="shaddawithfathatanisolated" unicode="&#x651;&#x64b;" 
d="M430 2450q-222 -82 -483 -299l-52 74q248 208 498 310zM470 2270q-222 -82 -483 -299l-52 74q248 208 498 310zM441 1813q-1 -184 -124 -184q-69 0 -106 51q-38 -104 -120 -104q-68 0 -107 46t-39 117q0 66 14 125l83 -19q-10 -47 -10 -85q0 -91 59 -91q63 0 63 87
q0 47 -23 147q33 6 86 18q17 -112 32 -148q21 -48 65 -48q46 0 46 56q0 64 -55 180l77 40q59 -123 59 -188z" />
    <glyph glyph-name="fathaonhamza" unicode="&#x674;&#x64e;" 
d="M337 1651q-222 -82 -483 -299l-52 74q248 208 498 310zM345 1141q-180 -50 -311 -127l-59 75l80 41q-94 59 -94 142q0 182 290 188l5 -88q-204 -15 -204 -95q0 -41 35 -65.5t80 -24.5q25 0 154 42z" />
    <glyph glyph-name="fathatanonhamza" unicode="&#x674;&#x64b;" 
d="M337 1651q-222 -82 -483 -299l-52 74q248 208 498 310zM345 1141q-180 -50 -311 -127l-59 75l80 41q-94 59 -94 142q0 182 290 188l5 -88q-204 -15 -204 -95q0 -41 35 -65.5t80 -24.5q25 0 154 42zM286 1826q-222 -82 -483 -299l-52 74q248 208 498 310z" />
    <glyph glyph-name="sukunonhamza" unicode="&#x674;&#x652;" 
d="M345 1141q-180 -50 -311 -127l-59 75l80 41q-94 59 -94 142q0 182 290 188l5 -88q-204 -15 -204 -95q0 -41 35 -65.5t80 -24.5q25 0 154 42zM272 1693q0 -77 -54 -130t-131 -53t-131 53t-54 130t54 131t131 54t131 -54t54 -131zM182 1694q0 39 -28 67t-67 28t-67 -28
t-28 -67t28 -66.5t67 -27.5t67 27.5t28 66.5z" />
    <glyph glyph-name="dammaonhamza" unicode="&#x674;&#x64f;" 
d="M345 1141q-180 -50 -311 -127l-59 75l80 41q-94 59 -94 142q0 182 290 188l5 -88q-204 -15 -204 -95q0 -41 35 -65.5t80 -24.5q25 0 154 42zM241 1802q0 -143 -111 -249q-107 -101 -240 -101q0 6 -6 81q135 8 205 85q-116 32 -116 105q0 97 69 193q61 85 98 85
q101 0 101 -199zM173 1813q0 105 -38 105q-17 0 -51 -61q-35 -64 -35 -107q0 -48 91 -63q33 42 33 126z" />
    <glyph glyph-name="dammatanonhamza" unicode="&#x674;&#x64c;" 
d="M360 1136q-180 -50 -311 -127l-59 75l80 41q-94 59 -94 142q0 182 290 188l5 -88q-204 -15 -204 -95q0 -41 35 -65.5t80 -24.5q25 0 154 42zM295 1808q0 -143 -111 -249q-107 -101 -240 -101q0 6 -6 82l29 4q7 36 7 57q0 37 -24 37q-22 0 -72 -33l-23 64q50 47 106 47
q37 0 55 -23q32 -41 11 -140q69 18 116 71q-116 32 -116 105q0 97 69 193q61 85 98 85q101 0 101 -199zM227 1819q0 105 -38 105q-17 0 -51 -61q-35 -64 -35 -107q0 -48 91 -63q33 42 33 126z" />
    <glyph glyph-name="shaddawithdammatanisolated" unicode="&#x651;&#x64c;" arabic-form="isolated" 
d="M356 2337q0 -143 -111 -249q-107 -101 -240 -101q0 6 -6 82l29 4q7 36 7 57q0 37 -24 37q-22 0 -72 -33l-23 64q50 47 106 47q37 0 55 -23q32 -41 11 -140q69 18 116 71q-116 32 -116 105q0 97 69 193q61 85 98 85q101 0 101 -199zM441 1813q-1 -184 -124 -184
q-69 0 -106 51q-38 -104 -120 -104q-68 0 -107 46t-39 117q0 66 14 125l83 -19q-10 -47 -10 -85q0 -91 59 -91q63 0 63 87q0 47 -23 147q33 6 86 18q17 -112 32 -148q21 -48 65 -48q46 0 46 56q0 64 -55 180l77 40q59 -123 59 -188zM288 2348q0 105 -38 105q-17 0 -51 -61
q-35 -64 -35 -107q0 -48 91 -63q33 42 33 126z" />
    <glyph glyph-name="shaddawithkasratanisolated" unicode="&#x651;&#x64d;" horiz-adv-x="0" arabic-form="isolated" 
d="M547 1507l-72 -143l-489 -68l59 136zM584 1688l-70 -144l-489 -67l59 135zM285 1876q30 0 32 72.5t13 97.5l6 12l12 -4q27 -8 41 -44t14 -81q0 -59 -19 -107t-62 -75q-17 -4 -25 -4q-23 0 -41 14q-27 -37 -68 -60.5t-84 -23.5q-18 0 -36 6q-33 21 -50.5 59t-17.5 83
q0 75 43 106l12 12l11 -14q20 -27 27 -72t20 -45q6 0 16 7q45 8 59.5 77.5t55.5 77.5q18 -14 32.5 -47t8.5 -47z" />
    <glyph glyph-name="shaddawithfathaisolated" unicode="&#x651;&#x64e;" arabic-form="isolated" 
d="M440 2250q-222 -82 -483 -299l-52 74q248 208 498 310zM461 1813q-1 -184 -124 -184q-69 0 -106 51q-38 -104 -120 -104q-68 0 -107 46t-39 117q0 66 14 125l83 -19q-10 -47 -10 -85q0 -91 59 -91q63 0 63 87q0 47 -23 147q33 6 86 18q17 -112 32 -148q21 -48 65 -48
q46 0 46 56q0 64 -55 180l77 40q59 -123 59 -188z" />
    <glyph glyph-name="shaddawithdammaisolated" unicode="&#x651;&#x64f;" arabic-form="isolated" 
d="M375 2326q0 -143 -111 -249q-107 -101 -240 -101q0 6 -6 81q135 8 205 85q-116 32 -116 105q0 97 69 193q61 85 98 85q101 0 101 -199zM450 1813q-1 -184 -124 -184q-69 0 -106 51q-38 -104 -120 -104q-68 0 -107 46t-39 117q0 66 14 125l83 -19q-10 -47 -10 -85
q0 -91 59 -91q63 0 63 87q0 47 -23 147q33 6 86 18q17 -112 32 -148q21 -48 65 -48q46 0 46 56q0 64 -55 180l77 40q59 -123 59 -188zM307 2337q0 105 -38 105q-17 0 -51 -61q-35 -64 -35 -107q0 -48 91 -63q33 42 33 126z" />
    <glyph glyph-name="shaddawithkasraisolated" unicode="&#x651;&#x650;" horiz-adv-x="0" arabic-form="isolated" 
d="M559 1507l-70 -143l-489 -68l59 136zM322 1679q30 0 32 73t13 97l4 13l12 -4q27 -9 42 -43.5t15 -81.5q0 -56 -21.5 -107t-62.5 -76q-16 -4 -24 -4q-21 0 -39 15q-27 -37 -68 -60.5t-84 -23.5q-20 0 -39 6q-32 20 -49.5 58t-17.5 83q0 76 43 107l14 12l8 -14
q23 -29 30 -73t20 -44q6 0 16 6q45 8 59.5 77.5t55.5 78.5q18 -17 32.5 -47.5t8.5 -47.5z" />
    <glyph glyph-name="shaddawithfathamedial" unicode="&#x640;&#x651;&#x64e;" horiz-adv-x="590" arabic-form="medial" 
d="M530 1700q-222 -82 -483 -299l-52 74q248 208 498 310zM551 1263q-1 -184 -124 -184q-69 0 -106 51q-38 -104 -120 -104q-68 0 -107 46t-39 117q0 66 14 125l83 -19q-10 -47 -10 -85q0 -91 59 -91q63 0 63 87q0 47 -23 147q33 6 86 18q17 -112 32 -148q21 -48 65 -48
q46 0 46 56q0 64 -55 180l77 40q59 -123 59 -188zM622 0h-652v182h652v-182z" />
    <glyph glyph-name="shaddawithdammamedial" unicode="&#x640;&#x651;&#x64f;" horiz-adv-x="590" arabic-form="medial" 
d="M622 0h-652v182h652v-182zM469 1776q0 -143 -111 -249q-107 -101 -240 -101q0 6 -6 81q135 8 205 85q-116 32 -116 105q0 97 69 193q61 85 98 85q101 0 101 -199zM544 1263q-1 -184 -124 -184q-69 0 -106 51q-38 -104 -120 -104q-68 0 -107 46t-39 117q0 66 14 125
l83 -19q-10 -47 -10 -85q0 -91 59 -91q63 0 63 87q0 47 -23 147q33 6 86 18q17 -112 32 -148q21 -48 65 -48q46 0 46 56q0 64 -55 180l77 40q59 -123 59 -188zM401 1787q0 105 -38 105q-17 0 -51 -61q-35 -64 -35 -107q0 -48 91 -63q33 42 33 126z" />
    <glyph glyph-name="shaddawithkasramedial" unicode="&#x640;&#x651;&#x650;" horiz-adv-x="590" arabic-form="medial" 
d="M622 0h-652v182h652v-182zM521 1573q-1 -184 -124 -184q-69 0 -106 51q-38 -104 -120 -104q-68 0 -107 46t-39 117q0 66 14 125l83 -19q-10 -47 -10 -85q0 -91 59 -91q63 0 63 87q0 47 -23 147q33 6 86 18q17 -112 32 -148q21 -48 65 -48q46 0 46 56q0 64 -55 180l77 40
q59 -123 59 -188zM580 1280q-222 -82 -483 -299l-52 74q248 208 498 310z" />
    <glyph glyph-name="alefwithfathatanfinal" unicode="&#xfe8e;&#x64b;" horiz-adv-x="752" arabic-form="final" 
d="M781 0h-205q-128 0 -209.5 103t-81.5 276q0 204 45 458q45 258 118 456l179 -56q-66 -163 -110 -434q-40 -243 -40 -410q0 -124 47 -173q38 -38 122 -38h135v-182zM670 1712q-222 -82 -483 -299l-52 74q248 208 498 310zM710 1532q-222 -82 -483 -299l-52 74
q248 208 498 310z" />
    <glyph glyph-name="alefwithfathatanisolated" unicode="&#xfe8d;&#x64b;" horiz-adv-x="752" arabic-form="isolated" 
d="M670 1712q-222 -82 -483 -299l-52 74q248 208 498 310zM710 1532q-222 -82 -483 -299l-52 74q248 208 498 310zM723 0h-176q4 46 4 110q0 239 -50 605q-49 359 -105 547l189 36q49 -203 91 -508q53 -375 53 -637q0 -84 -6 -153z" />
    <glyph glyph-name="allahisolated" unicode="&#xfedf;&#xfee0;&#xfeea;" horiz-adv-x="1474" arabic-form="isolated" 
d="M1413 375q0 -156 -42 -309.5t-159 -153.5q-16 0 -56 44t-66 44h-132v197h181q26 0 50.5 -15.5t39.5 -25.5q6 82 11 181t5 185q0 103 -18.5 182.5t-27.5 122.5t-69.5 142.5t-60.5 175.5q0 74 54.5 126t111.5 52q37 0 72.5 -52t35.5 -116q0 -22 -5 -60t-3 -53
q0 -102 22.5 -229t29 -173t16.5 -122t10 -143zM621 197h213q32 10 65 23t33 38q-23 188 -43.5 363.5t-32.5 248t-70.5 148.5t-58.5 168q0 74 54.5 126t113.5 52q39 0 72.5 -52t33.5 -116q0 -16 -4 -61t-4 -54q0 -100 25.5 -228t37 -213t19.5 -256t17 -183q6 -2 28.5 -3
t46.5 -1h41.5h22.5v-197h-180q-19 -63 -76 -137.5t-123 -97.5q0 39 23.5 105.5t31.5 129.5h-286v197zM784 0l37 -2h-32.5h-57.5q-104 0 -163.5 -65.5t-196.5 -65.5q8 25 50 67t52 64q-16 2 -35.5 2h-29.5q-76 0 -93.5 -1t-29.5 -5q-80 12 -159 59t-79 228q0 168 129 241
q150 41 301 82q8 19 -1 58.5t-20.5 63.5t-62.5 56.5t-51 63.5q0 78 41 98.5t104 20.5q72 0 119 -59.5t47 -157.5q0 -64 -1 -128.5t-1 -132.5v-135q4 -104 17 -155h116v-197zM252 250q0 -29 31.5 -39t78.5 -10q48 2 62 2q88 0 88 65l-4 35l-10 96q0 37 -45 37
q-37 0 -87.5 -21.5t-73 -41t-31.5 -52t-9 -71.5zM584 1333q-4 17 -10.5 24t-14.5 17q-2 29 16.5 50.5t40.5 21.5q15 0 22 -15.5t5 -21.5q-6 -18 -9 -34.5t-3 -33.5q0 -41 8 -102t8 -94q0 -27 -28.5 -75t-79.5 -62q28 39 37.5 56t14.5 39.5t5 59.5q-2 21 -2 33v21zM985 1577
q23 0 25 57.5t10 77.5l4 10l10 -4q21 -6 33 -34.5t12 -63.5q0 -45 -17.5 -86t-49.5 -61q-29 -9 -49 8q-23 -29 -56 -48.5t-67 -19.5q-15 0 -36.5 10.5t-34.5 39t-13 65.5q0 61 35 90l10 8l6 -10q16 -23 24.5 -61.5t28.5 -26.5q37 6 48.5 61.5t43.5 61.5q13 -13 24 -37.5
t9 -36.5z" />
    <glyph glyph-name="tatweelwithfathatanabove" unicode="&#x640;&#x64b;" horiz-adv-x="590" arabic-form="medial" 
d="M530 1312q-222 -82 -483 -299l-52 74q248 208 498 310zM570 1132q-222 -82 -483 -299l-52 74q248 208 498 310zM622 0h-652v182h652v-182z" />
    <glyph glyph-name="fathamedial" unicode="&#x640;&#x64e;" horiz-adv-x="590" arabic-form="medial" 
d="M622 0h-652v182h652v-182zM560 1284q-222 -82 -483 -299l-52 74q248 208 498 310z" />
    <glyph glyph-name="dammamedial" unicode="&#x640;&#x64f;" horiz-adv-x="590" arabic-form="medial" 
d="M446 1182q0 -143 -111 -249q-107 -101 -240 -101q0 6 -6 81q135 8 205 85q-65 18 -89 39q-27 23 -27 66q0 97 69 193q61 85 98 85q101 0 101 -199zM378 1193q0 105 -38 105q-17 0 -51 -61q-35 -64 -35 -107q0 -48 91 -63q33 42 33 126zM622 0h-652v182h652v-182z" />
    <glyph glyph-name="kasramedial" unicode="&#x640;&#x650;" horiz-adv-x="590" arabic-form="medial" 
d="M544 -400q-222 -82 -483 -299l-52 74q248 208 498 310zM622 0h-652v182h652v-182z" />
    <glyph glyph-name="shaddamedial" unicode="&#x640;&#x651;" horiz-adv-x="590" arabic-form="medial" 
d="M622 0h-652v182h652v-182zM560 1025q0 -70 -34 -119q-38 -57 -104 -57q-52 0 -106 51q-38 -55 -120 -54q-63 0 -111 63q-45 59 -45 130q0 66 14 145l83 -19q-12 -40 -12 -90q0 -136 71 -136q58 0 58 68q0 20 -24 154q36 2 92 10q24 -161 25 -163q18 -63 72 -63
q43 0 43 53q0 62 -52 173l77 40q73 -121 73 -186z" />
    <glyph glyph-name="sukunmedial" unicode="&#x640;&#x652;" horiz-adv-x="590" arabic-form="medial" 
d="M622 0h-652v182h652v-182zM480 1084q0 -77 -54 -130t-131 -53t-131 53t-54 130t54 131t131 54t131 -54t54 -131zM390 1085q0 39 -28 67t-67 28t-67 -28t-28 -67t28 -66.5t67 -27.5t67 27.5t28 66.5z" />
    <glyph glyph-name="lamwithalefmaddaaboveisolatedd" unicode="&#xfedf;&#xfe82;" horiz-adv-x="1366" arabic-form="isolated" 
d="M1057 -129q-80 -49 -150 -49q-37 0 -62.5 17.5t-44 57.5t-14.5 77l-57 -4q-221 0 -338 40.5t-262 227.5q-25 36 -50.5 113t-25.5 153q0 28 2 43q11 -23 23 -45q18 -49 24 -68q95 -166 235 -244.5t316 -78.5q76 0 180.5 17t162 38.5t57.5 69.5v81q0 304 -169 549.5
t-423 245.5q-17 0 -34 -2t-88 -10t-128 -83t-135 -237q-6 2 -13 6q0 68 38 178.5t141.5 206t203.5 95.5q312 0 508.5 -251t196.5 -579v-151q20 80 39.5 180t19.5 184q0 39 2 113t2 108q0 88 -7 147.5t-29 119.5q-11 0 -24 5t-26 11q-59 16 -59 70q0 43 32 92t62 84l4 4
q41 24 70 24q59 0 88 -85t29 -209l-6 -199q0 -262 -28 -444.5t-77 -271.5t-98 -124q-12 -78 -24.5 -133t-63.5 -90zM168 1339q-39 -6 -56.5 -26.5t-25.5 -22.5q-57 -6 -101 34t-44 83q0 33 28.5 45t46.5 10q33 -10 68 -19t68 -9q86 0 213 17t180 17q55 0 149 -59t123 -160
q-57 45 -93 69.5t-80 35t-67.5 12.5t-52.5 2q-26 0 -63 -3t-60 -5z" />
    <glyph glyph-name="lamwithalefmaddaabovefinal" unicode="&#xfee0;&#xfe82;" horiz-adv-x="1136" arabic-form="final" 
d="M768 74q59 47 98 161.5t57.5 239.5t18.5 223q0 166 -49 295q-16 0 -56 20.5t-40 86.5q0 45 22.5 89t55 64.5t57.5 20.5q61 0 100 -83t39 -202t-13.5 -322.5t-43.5 -359.5q-10 -74 44 -92t111 -25v-190h-186q-43 0 -65 -10q-23 -16 -56 -34.5t-104.5 -44t-136.5 -46.5
q0 -26 -42 -98t-84 -104.5t-58.5 -37.5t-16.5 7q0 14 40 83.5t46 117.5q-113 10 -222.5 48t-148.5 106t-65.5 149t-26.5 157q0 24 2 37q12 -25 25 -47q6 -21 22 -66q74 -100 152 -158.5t200 -58.5q31 0 66 6q0 60 -13.5 129.5t-64.5 255.5l-100 377q-21 59 -71 84t-56 44
t-6 50q0 78 49 141.5t106 73.5q54 10 82.5 -33t28.5 -75q0 -9 -6 -56t-6 -84v-35.5t13 -85t53 -225t79 -300t55 -230.5q27 4 58.5 10t56.5 27zM70 1307q-39 -7 -56.5 -27t-25.5 -23q-57 -6 -101 34t-44 83q0 33 28.5 45.5t47.5 10.5q34 -11 67.5 -20t66.5 -9q86 0 213 17.5
t180 17.5q56 0 150 -59.5t123 -159.5q-57 45 -93 69.5t-80 34.5t-67.5 12t-52.5 2q-27 0 -63.5 -3t-59.5 -5z" />
    <glyph glyph-name="lamwithalefhamzaaboveisolatedd" unicode="&#xfedf;&#xfe84;" horiz-adv-x="1433" arabic-form="isolated" 
d="M205 1552q-39 -18 -29 -53q4 -20 25.5 -32.5t42.5 -12.5q8 0 70.5 11.5t76.5 11.5q37 0 37 -41q0 -31 -42 -37t-83 -20.5t-81 -37t-89 -58.5t-53 -34q-60 6 -45 49q10 23 39.5 54.5t54.5 44.5q-39 28 -47 65t-8 47q0 50 28.5 88.5t62.5 50t54 11.5q41 0 75 -16.5
t34 -38.5q0 -54 -45 -54q-7 0 -28.5 5.5t-25.5 5.5q-14 0 -24 -9zM1057 -129q-80 -49 -150 -49q-37 0 -62.5 17.5t-44 57.5t-14.5 77l-57 -4q-221 0 -338 40.5t-262 227.5q-25 36 -50.5 113t-25.5 153q0 28 2 43q11 -23 23 -45q18 -49 24 -68q95 -166 235 -244.5t316 -78.5
q76 0 180.5 17t162 38.5t57.5 69.5v81q0 304 -169 549.5t-423 245.5q-17 0 -34 -2t-88 -10t-128 -83t-135 -237q-6 2 -13 6q0 68 38 178.5t141.5 206t203.5 95.5q312 0 508.5 -251t196.5 -579v-151q20 80 39.5 180t19.5 184q0 39 2 113t2 108q0 88 -7 147.5t-29 119.5
q-11 0 -24 5t-26 11q-59 16 -59 70q0 43 32 92t62 84l4 4q41 24 70 24q59 0 88 -85t29 -209l-6 -199q0 -262 -28 -444.5t-77 -271.5t-98 -124q-12 -78 -24.5 -133t-63.5 -90z" />
    <glyph glyph-name="lamwithalefhamzaabovefinal" unicode="&#xfee0;&#xfe84;" horiz-adv-x="1120" arabic-form="final" 
d="M205 1538q-39 -18 -29 -53q4 -17 18.5 -28t49.5 -17q4 0 69.5 11t77.5 11q37 0 37 -41q0 -30 -42 -36.5t-83 -20.5t-87 -40t-78 -47.5t-58 -41.5q-60 6 -45 49q16 37 49 65.5t45 32.5q-41 33 -48 68t-7 45q0 49 29.5 89t62.5 50.5t53 10.5q43 0 76 -15.5t33 -38.5
q0 -28 -18.5 -43.5t-45.5 -7.5q-31 6 -35 6q-14 0 -24 -8zM768 74q59 47 98 161.5t57.5 239.5t18.5 223q0 166 -49 295q-16 0 -56 20.5t-40 86.5q0 45 22.5 89t55 64.5t57.5 20.5q61 0 100 -83t39 -202t-13.5 -322.5t-43.5 -359.5q-10 -74 44 -92t111 -25v-190h-186
q-43 0 -65 -10q-23 -16 -56 -34.5t-104.5 -44t-136.5 -46.5q0 -26 -42 -98t-84 -104.5t-58.5 -37.5t-16.5 7q0 14 40 83.5t46 117.5q-113 10 -222.5 48t-148.5 106t-65.5 149t-26.5 157q0 24 2 37q12 -25 25 -47q6 -21 22 -66q74 -100 152 -158.5t200 -58.5q31 0 66 6
q0 60 -13.5 129.5t-64.5 255.5l-100 377q-21 59 -71 84t-56 44t-6 50q0 78 49 141.5t106 73.5q54 10 82.5 -33t28.5 -75q0 -9 -6 -56t-6 -84v-35.5t13 -85t53 -225t79 -300t55 -230.5q27 4 58.5 10t56.5 27z" />
    <glyph glyph-name="lamwithalefhamzabelowisolated" unicode="&#xfedf;&#xfe88;" horiz-adv-x="1433" arabic-form="isolated" 
d="M198 -256q-37 -22 -29 -53q4 -22 23.5 -33.5t44.5 -11.5q12 -2 74.5 9.5t72.5 11.5q37 0 37 -41q0 -31 -61.5 -40t-123 -42t-110.5 -69t-53 -34q-49 7 -49 33l4 17q12 28 44.5 59t49.5 39q-39 29 -48 62.5t-9 52.5q0 47 30.5 85.5t63.5 49t53 10.5q43 0 76 -15.5
t33 -37.5q0 -29 -18.5 -44.5t-47.5 -7.5q-25 7 -33 7q-12 0 -24 -7zM1056 -129q-80 -49 -150 -49q-37 0 -62.5 17.5t-44 57.5t-14.5 77l-57 -4q-221 0 -338 40.5t-262 227.5q-25 36 -50.5 113t-25.5 153q0 28 2 43q11 -23 23 -45q18 -49 24 -68q95 -166 235 -244.5
t316 -78.5q76 0 180.5 17t162 38.5t57.5 69.5v81q0 304 -169 549.5t-423 245.5q-17 0 -34 -2t-88 -10t-128 -83t-135 -237q-6 2 -13 6q0 68 38 178.5t141.5 206t203.5 95.5q312 0 508.5 -251t196.5 -579v-151q20 80 39.5 180t19.5 184q0 39 2 113t2 108q0 88 -7 147.5
t-29 119.5q-11 0 -24 5t-26 11q-59 16 -59 70q0 43 32 92t62 84l4 4q41 24 70 24q59 0 88 -85t29 -209l-6 -199q0 -262 -28 -444.5t-77 -271.5t-98 -124q-12 -78 -24.5 -133t-63.5 -90z" />
    <glyph glyph-name="lamwithalefhamzabelowfinal" unicode="&#xfee0;&#xfe88;" horiz-adv-x="1120" arabic-form="final" 
d="M205 -366q-39 -19 -29 -53q4 -17 18.5 -28t49.5 -17q4 0 69.5 11t77.5 11q37 0 37 -41q0 -31 -42 -37t-83 -20.5t-87 -40t-78 -47t-58 -41.5q-60 6 -45 49q16 37 49 65.5t45 32.5q-41 33 -48 68t-7 45q0 49 29.5 89t62.5 50t53 10q43 0 76 -15t33 -38q0 -29 -18.5 -44
t-45.5 -7q-31 6 -35 6q-14 0 -24 -8zM768 74q59 47 98 161.5t57.5 239.5t18.5 223q0 166 -49 295q-16 0 -56 20.5t-40 86.5q0 45 22.5 89t55 64.5t57.5 20.5q61 0 100 -83t39 -202t-13.5 -322.5t-43.5 -359.5q-10 -74 44 -92t111 -25v-190h-186q-43 0 -65 -10
q-23 -16 -56 -34.5t-104.5 -44t-136.5 -46.5q0 -26 -42 -98t-84 -104.5t-58.5 -37.5t-16.5 7q0 14 40 83.5t46 117.5q-113 10 -222.5 48t-148.5 106t-65.5 149t-26.5 157q0 24 2 37q12 -25 25 -47q6 -21 22 -66q74 -100 152 -158.5t200 -58.5q31 0 66 6q0 60 -13.5 129.5
t-64.5 255.5l-100 377q-21 59 -71 84t-56 44t-6 50q0 78 49 141.5t106 73.5q54 10 82.5 -33t28.5 -75q0 -9 -6 -56t-6 -84v-35.5t13 -85t53 -225t79 -300t55 -230.5q27 4 58.5 10t56.5 27z" />
    <glyph glyph-name="lamwithalefisolated" unicode="&#xfedf;&#xfe8e;" horiz-adv-x="1433" arabic-form="isolated" 
d="M1057 -129q-80 -49 -150 -49q-37 0 -62.5 17.5t-44 57.5t-14.5 77l-57 -4q-221 0 -338 40.5t-262 227.5q-25 36 -50.5 113t-25.5 153q0 28 2 43q11 -23 23 -45q18 -49 24 -68q95 -166 235 -244.5t316 -78.5q76 0 180.5 17t162 38.5t57.5 69.5v81q0 304 -169 549.5
t-423 245.5q-17 0 -34 -2t-88 -10t-128 -83t-135 -237q-6 2 -13 6q0 68 38 178.5t141.5 206t203.5 95.5q312 0 508.5 -251t196.5 -579v-151q20 80 39.5 180t19.5 184q0 39 2 113t2 108q0 88 -7 147.5t-29 119.5q-11 0 -24 5t-26 11q-59 16 -59 70q0 43 32 92t62 84l4 4
q41 24 70 24q59 0 88 -85t29 -209l-6 -199q0 -262 -28 -444.5t-77 -271.5t-98 -124q-12 -78 -24.5 -133t-63.5 -90z" />
    <glyph glyph-name="lamwithaleffinal" unicode="&#xfee0;&#xfe8e;" horiz-adv-x="1120" arabic-form="final" 
d="M768 74q59 47 98 161.5t57.5 239.5t18.5 223q0 166 -49 295q-16 0 -56 20.5t-40 86.5q0 45 22.5 89t55 64.5t57.5 20.5q61 0 100 -83t39 -202t-13.5 -322.5t-43.5 -359.5q-10 -74 44 -92t111 -25v-190h-186q-43 0 -65 -10q-23 -16 -56 -34.5t-104.5 -44t-136.5 -46.5
q0 -26 -42 -98t-84 -104.5t-58.5 -37.5t-16.5 7q0 14 40 83.5t46 117.5q-113 10 -222.5 48t-148.5 106t-65.5 149t-26.5 157q0 24 2 37q12 -25 25 -47q6 -21 22 -66q74 -100 152 -158.5t200 -58.5q31 0 66 6q0 60 -13.5 129.5t-64.5 255.5l-100 377q-21 59 -71 84t-56 44
t-6 50q0 78 49 141.5t106 73.5q54 10 82.5 -33t28.5 -75q0 -9 -6 -56t-6 -84v-35.5t13 -85t53 -225t79 -300t55 -230.5q27 4 58.5 10t56.5 27z" />
    <glyph glyph-name="alefwaslaisolated" unicode="&#x671;" horiz-adv-x="560" arabic-form="isolated" 
d="M553 0h-176q4 46 4 110q0 239 -50 605q-49 359 -105 547l189 36q49 -203 91 -508q53 -375 53 -637q0 -84 -6 -153zM436 1706q58 0 101 -71q41 -66 41 -144q0 -16 -2 -30q-91 -85 -216 -85q-9 0 -25 1h-25q-118 0 -202 -69q-38 43 -77 87q60 56 123 73q34 10 114 13
q8 110 68 174q48 51 100 51zM487 1516q-11 94 -58 94q-32 0 -57.5 -41t-23.5 -90q19 -2 36 -2q79 0 103 39z" />
    <glyph glyph-name="alefwaslafinal" unicode="&#x671;" horiz-adv-x="621" arabic-form="final" 
d="M651 0h-205q-128 0 -209.5 103t-81.5 276q0 204 45 458q45 258 118 456l179 -56q-66 -163 -110 -434q-40 -243 -40 -410q0 -124 47 -173q38 -38 122 -38h135v-182zM485 1715q58 0 101 -71q41 -66 41 -144q0 -16 -2 -30q-91 -85 -216 -85q-8 0 -25 1h-25q-118 0 -202 -69
q-38 43 -77 87q60 56 123 73q34 10 114 13q8 110 68 174q48 51 100 51zM536 1525q-11 94 -58 94q-32 0 -57.5 -41t-23.5 -90q19 -2 36 -2q79 0 103 39z" />
    <glyph glyph-name="pehisolated" unicode="&#x67e;" horiz-adv-x="2260" arabic-form="isolated" 
d="M1329 -196q53 0 84 -35t31 -80q0 -49 -22.5 -73.5t-75.5 -24.5q-50 0 -82.5 32.5t-32.5 65.5q0 39 36 77t62 38zM1532 -425q53 0 84 -35t31 -80q0 -49 -22.5 -73.5t-76.5 -24.5q-49 0 -81.5 32.5t-32.5 65.5q0 41 34.5 78t63.5 37zM63 510q0 168 42 256t135 235
q22 43 71 125t115 97q-102 -156 -174 -310.5t-72 -304.5q0 -262 162 -376.5t418 -114.5q127 0 367.5 58t484.5 120q24 0 65 -3t52 -3q69 0 69 55q0 23 -140 96.5t-140 130.5q8 50 36.5 99t131.5 49q108 0 171.5 -98.5t63.5 -227.5q0 -35 -73.5 -165t-96 -136t-30 -6h-9.5
q-12 0 -43 6t-53 6q-248 -65 -484.5 -115t-390.5 -50q-297 0 -487.5 154.5t-190.5 422.5zM1518 -256q0 52 29.5 85.5t80.5 33.5q53 0 81 -31.5t28 -76.5q0 -39 -33 -74t-88 -35q-98 0 -98 98z" />
    <glyph glyph-name="pehfinal" unicode="&#x67e;" horiz-adv-x="2555" arabic-form="final" 
d="M1702 -88q53 0 84 -34.5t31 -79.5q0 -49 -22.5 -74t-76.5 -25q-49 0 -81.5 33t-32.5 66q0 41 34.5 77.5t63.5 36.5zM1837 -360q53 0 84 -35t31 -80q0 -49 -22.5 -73.5t-76.5 -24.5q-49 0 -81.5 33t-32.5 65q0 39 35.5 77t62.5 38zM1907 -223q0 35 22.5 77t85.5 42
q53 0 81 -31.5t28 -76.5q0 -41 -32 -75t-87 -34q-98 0 -98 98zM1894 203q48 6 119.5 103t126.5 97q31 -22 56.5 -45.5t71.5 -74t127 -69.5t155 -19h26.5t18.5 2v-197h-33t-45 -2q-29 0 -54.5 1t-39.5 7q-58 10 -101 19.5t-87 29t-79.5 55t-52.5 40.5q-28 4 -114 -79
t-170 -83q-80 0 -275.5 -6t-281.5 -6q-183 0 -314 7t-354 46t-381 148.5t-158 336.5q0 45 15.5 164t134.5 278q127 140 160.5 180t85.5 101q81 86 145 86q-150 -154 -254 -305.5t-125.5 -268t-21.5 -167.5q0 -140 68.5 -208.5t153.5 -91t246.5 -54t294 -39t295.5 -7.5
q195 0 375 7.5t266 13.5z" />
    <glyph glyph-name="pehinitial" unicode="&#x67e;" arabic-form="initial" 
d="M552 419q16 -47 16 -100q0 -123 -75 -218q-79 -101 -193 -101h-330v182h269q57 0 95 46t38 104q0 24 -7 46l-151 442l170 78q65 -163 168 -479zM593 -169q-7 0 -17 -208q-74 17 -257 20t-265 -12l-8 205q80 17 272 17q209 0 275 -22zM400 -641q-122 16 -220 -1v197
q22 10 107 11q78 0 113 -6v-201z" />
    <glyph glyph-name="pehmedial" unicode="&#x67e;" horiz-adv-x="669" arabic-form="medial" 
d="M699 0h-74q-120 0 -189 109q-87 -109 -192 -109h-274v182h213q57 0 95 46t38 104q0 24 -7 46l-151 442l170 78q65 -163 225 -647q24 -69 72 -69h74v-182zM608 -169q-7 0 -17 -208q-74 17 -257 20t-265 -12l-8 205q80 17 272 17q209 0 275 -22zM415 -641q-122 16 -220 -1
v197q22 10 107 11q78 0 113 -6v-201z" />
    <glyph glyph-name="vehisolated" unicode="&#x6a4;" horiz-adv-x="2217" arabic-form="isolated" 
d="M1689 1253q0 35 31.5 67t82.5 32q58 0 78.5 -28t20.5 -71q0 -59 -41 -86.5t-90 -27.5q-29 10 -55.5 31.5t-26.5 82.5zM1521 1493q0 35 31.5 66.5t82.5 31.5q99 0 99 -98q0 -41 -31 -78t-84 -37q-29 0 -63.5 37t-34.5 78zM1349 1210q-9 33 22 88.5t62.5 65.5t42.5 10
q32 0 66 -22.5t43 -52t9 -48.5q0 -86 -57 -103.5t-72 -17.5q-36 0 -70 25t-46 55zM1840 498q-51 -9 -70.5 -10t-31.5 -1q-80 0 -134.5 30t-64.5 75t-10 76q0 108 59.5 212.5t123 125t93.5 20.5q80 0 153 -77t116 -206q16 -30 30.5 -74t14.5 -118q0 -78 -29 -162
q-20 -70 -87 -200t-92.5 -136t-41.5 -6q-12 0 -47 6t-60 6q-24 0 -222 -52t-396.5 -91.5t-351.5 -39.5q-332 0 -543 171.5t-211 470.5q0 189 46 285t117.5 211.5t112.5 183.5q68 98 127 113q-114 -176 -193 -345t-79 -337q0 -291 179 -419t464 -128q141 0 408.5 64.5
t537.5 132.5q39 0 70 -2.5t61 -4.5q76 0 76 62q0 102 -37 137t-88 27zM1717 723q0 -68 49 -57q25 4 47.5 8t22.5 16q0 8 -10 33t-31.5 46.5t-38.5 18.5q-16 0 -27.5 -19t-11.5 -46z" />
    <glyph glyph-name="vehfinal" unicode="&#x6a4;" horiz-adv-x="2424" arabic-form="final" 
d="M2040 915q0 35 31.5 67t82.5 32q58 0 78.5 -28t20.5 -71q0 -59 -41 -86.5t-90 -27.5q-29 10 -55.5 31.5t-26.5 82.5zM1870 1155q0 35 31.5 66.5t83.5 31.5q53 0 75.5 -24.5t22.5 -73.5q0 -43 -30 -79t-85 -36q-29 0 -63.5 37t-34.5 78zM1970 850q0 -49 -28.5 -73.5
t-69.5 -24.5q-121 0 -121 86q0 53 37 92t94 39q29 -13 58.5 -36.5t29.5 -82.5zM2464 0h-203q-33 0 -73 20.5t-52 16.5q-49 -23 -83 -37t-171 -14q-98 -4 -245.5 -8t-307.5 -4q-272 0 -397 8t-340 47t-379 144.5t-164 320.5q0 53 22.5 178t86 214t192.5 230q49 60 101 121
q81 86 145 86q-143 -154 -250.5 -306.5t-129 -268t-21.5 -166.5q0 -140 68.5 -208.5t153.5 -91t253 -55t338 -42t346 -9.5q205 0 317.5 4t194.5 10q47 0 47 25q0 6 -21.5 40t-32 54.5t-10.5 81.5q0 107 64.5 163t165.5 56q110 0 182 -97t72 -208q-2 -14 -6.5 -31.5
t-26.5 -76.5h164v-197zM2034 346q8 -33 22.5 -60.5t32.5 -27.5q10 0 24.5 18.5t23.5 38t9 41.5q0 13 -5 35.5t-18.5 42t-47.5 15.5q-27 -5 -37 -19t-10 -37q0 -10 2 -22.5t4 -24.5z" />
    <glyph glyph-name="vehinitial" unicode="&#x6a4;" horiz-adv-x="832" arabic-form="initial" 
d="M832 291q0 -131 -101 -213q-94 -78 -230 -78h-531v182h530q147 0 147 68q-70 -22 -167 -22q-412 0 -412 297q0 119 64 234q75 135 187 135q164 0 343 -225q170 -214 170 -378zM586 448q-29 82 -104 166q-79 90 -134 90q-46 0 -75 -65q-23 -51 -23 -100q0 -72 41 -101
q37 -25 123 -25q112 0 172 35zM425 1269q-122 16 -220 -1v197q22 10 107 11q78 0 113 -6v-201zM598 1191q-7 0 -17 -208q-74 17 -257 20t-265 -12l-8 205q80 17 272 17q209 0 275 -22z" />
    <glyph glyph-name="vehmedial" unicode="&#x6a4;" horiz-adv-x="856" arabic-form="medial" 
d="M886 0h-484q-79 0 -109 22q-32 -22 -133 -22h-190v182h200q-38 78 -38 243q0 163 49 294q62 166 176 166q137 0 277 -226q122 -197 122 -304q0 -131 -71 -173h201v-182zM573 358q0 52 -79.5 195.5t-112.5 143.5q-73 0 -73 -252q0 -184 85 -262q54 15 106 54q74 55 74 121
zM445 1269q-122 16 -220 -1v197q22 10 107 11q78 0 113 -6v-201zM618 1191q-7 0 -17 -208q-74 17 -257 20t-265 -12l-8 205q80 17 272 17q209 0 275 -22z" />
    <glyph glyph-name="tchehisolated" unicode="&#x686;" horiz-adv-x="1366" arabic-form="isolated" 
d="M620 -219q53 0 83.5 -34.5t30.5 -79.5q0 -49 -22.5 -74t-75.5 -25q-49 0 -82 33t-33 66q0 41 35 77.5t64 36.5zM908 -251q49 0 90 -27t41 -88q0 -43 -20.5 -70.5t-77.5 -27.5q-49 0 -82 30.5t-33 67.5q0 72 31 89t51 26zM755 -491q53 0 83.5 -35t30.5 -80
q0 -49 -22.5 -73.5t-75.5 -24.5q-49 0 -82 33t-33 65q0 39 36 77t63 38zM943 199q0 112 -55 153t-141 51q-48 -32 -84.5 -49.5t-59.5 -17.5q-45 0 -62.5 20.5t-17.5 55.5q0 18 5.5 41.5t14.5 75t58 94.5t141 43q113 0 197 -123q51 -90 102 -181q43 -53 126 -116.5t141 -48.5
q28 6 49 6q35 0 49 -17.5t14 -50.5q0 -49 -34.5 -108t-65.5 -59q-39 0 -62.5 14t-142.5 14q-323 0 -425.5 -19.5t-305.5 -88.5q-53 -25 -106.5 -71t-53.5 -163q0 -92 58.5 -219t191.5 -291l-55 -51q-158 148 -253 302.5t-95 271.5q0 118 66.5 218.5t175 160.5t259 96
t371.5 57z" />
    <glyph glyph-name="tchehfinal" unicode="&#x686;" horiz-adv-x="1366" arabic-form="final" 
d="M652 -251q54 0 84.5 -35t30.5 -80q0 -49 -22.5 -73.5t-75.5 -24.5q-49 0 -82 32.5t-33 65.5q0 41 35 78t63 37zM941 -284q49 0 90 -26.5t41 -88.5q0 -43 -20.5 -70.5t-77.5 -27.5q-49 0 -82 30.5t-33 67.5q0 72 31 89.5t51 25.5zM787 -524q54 0 84.5 -34.5t30.5 -79.5
q0 -50 -22.5 -74.5t-75.5 -24.5q-49 0 -82 33t-33 66q0 38 36 76t62 38zM943 199q0 112 -55 153t-141 51q-48 -32 -84.5 -49.5t-59.5 -17.5q-45 0 -62.5 20.5t-17.5 55.5q0 18 5.5 41.5t14.5 75t58 94.5t141 43q113 0 197 -123q51 -90 102 -181q23 -28 46.5 -50.5
t74.5 -54.5t77 -47t65 -15h36.5t44.5 2q35 0 47.5 -35t12.5 -70q0 -41 -13.5 -66.5t-41.5 -25.5q-37 0 -110 -2t-165 -2q-323 0 -425.5 -19.5t-305.5 -88.5q-53 -25 -106.5 -71t-53.5 -163q0 -92 58.5 -219t191.5 -291l-55 -51q-158 148 -253 302.5t-95 271.5
q0 118 66.5 218.5t175 160.5t259 96t371.5 57z" />
    <glyph glyph-name="tchehinitial" unicode="&#x686;" horiz-adv-x="1366" arabic-form="initial" 
d="M391 -251q53 0 84 -35t31 -80q0 -49 -22.5 -73.5t-75.5 -24.5q-50 0 -82.5 32.5t-32.5 65.5q0 41 34.5 78t63.5 37zM680 -284q49 0 90 -26.5t41 -88.5q0 -43 -20.5 -70.5t-77.5 -27.5q-49 0 -82 30.5t-33 67.5q0 72 30.5 89.5t51.5 25.5zM526 -524q54 0 84.5 -34.5
t30.5 -79.5q0 -50 -22.5 -74.5t-75.5 -24.5q-49 0 -82 33t-33 66q0 38 36 76t62 38zM-26 197q36 0 74 -1t93 -1q123 0 256 8t232 16q0 105 -86 148q-68 28 -135 57q-37 -31 -64 -51.5t-55 -20.5q-72 0 -95.5 47t-23.5 101q0 86 61.5 125t151.5 39q166 0 281.5 -159t168 -201
t96.5 -52t101 -10h53q78 0 115 -26t37 -120q0 -65 -24.5 -100.5t-80.5 -35.5q-12 0 -127.5 29t-205.5 29q-293 0 -454 -8t-255 -8l-114 -2v197z" />
    <glyph glyph-name="tchehmedial" unicode="&#x686;" horiz-adv-x="1259" arabic-form="medial" 
d="M391 -251q53 0 84 -35t31 -80q0 -49 -22.5 -73.5t-75.5 -24.5q-50 0 -82.5 32.5t-32.5 65.5q0 41 34.5 78t63.5 37zM680 -284q49 0 90 -26.5t41 -88.5q0 -43 -20.5 -70.5t-77.5 -27.5q-49 0 -82 30.5t-33 67.5q0 72 30.5 89.5t51.5 25.5zM526 -524q54 0 84.5 -34.5
t30.5 -79.5q0 -50 -22.5 -74.5t-75.5 -24.5q-49 0 -82 33t-33 66q0 38 36 76t62 38zM-30 197l79 -2q123 0 235.5 7t217.5 17q0 105 -86 148q-68 28 -135 57q-21 -18 -50.5 -45t-66.5 -27q-76 0 -98.5 45t-22.5 103q0 86 61.5 125t151.5 39q170 0 288 -162t180 -212
t161.5 -67.5t189.5 -25.5v-197h-65q-13 0 -127.5 9t-210.5 9q-289 0 -409 -8t-220 -8l-73 -2v197z" />
    <glyph glyph-name="jehisolated" unicode="&#x698;" horiz-adv-x="620" arabic-form="isolated" 
d="M441 1286q-122 16 -220 -1v197q22 10 107 11q78 0 113 -6v-201zM614 1208q-7 0 -17 -208q-74 17 -257 20t-265 -12l-8 205q80 17 272 17q209 0 275 -22zM594 196q0 -328 -230 -575l-141 114q187 243 187 496q0 116 -74 317l-101 275l163 82l112 -315q84 -236 84 -394z
" />
    <glyph glyph-name="jehfinal" unicode="&#x698;" horiz-adv-x="726" arabic-form="final" 
d="M441 1285q-122 16 -220 -1v197q22 10 107 11q78 0 113 -6v-201zM614 1207q-7 0 -17 -208q-74 17 -257 20t-265 -12l-8 205q80 17 272 17q209 0 275 -22zM754 0h-82q-52 0 -102 46q-44 -240 -216 -425l-141 114q187 243 187 496q0 115 -74 317l-101 275l163 82l202 -578
q51 -145 121 -145h43v-182z" />
    <glyph glyph-name="kehehisolated" unicode="&#x6a9;" horiz-adv-x="1637" arabic-form="isolated" 
d="M1629 300q2 -18 2 -36q0 -105 -57 -181q-61 -83 -155 -83h-820q-183 0 -312 113q-137 120 -137 308q0 228 210 476l130 -124q-156 -179 -156 -320q0 -110 70.5 -190.5t166.5 -80.5h782q104 0 104 109q0 13 -2 25l-34 260q-14 106 -163 152q-33 10 -138 13q-97 2 -123 -3
q-19 -4 -36 -4q-98 0 -98 115q0 27 6 58l16 86q12 66 70 122q55 52 128.5 74.5t240.5 22.5q169 0 259 -21v-177q-143 28 -230 28q-301 0 -301 -135q209 0 282 -18q233 -58 256 -256z" />
    <glyph glyph-name="kehehfinal" unicode="&#x6a9;" horiz-adv-x="1764" arabic-form="final" 
d="M1794 0h-102q-67 0 -126 71q-61 -71 -147 -71h-820q-183 0 -312 113q-137 120 -137 308q0 228 210 476l130 -124q-156 -179 -156 -320q0 -110 70.5 -190.5t166.5 -80.5h782q104 0 104 109q0 13 -2 25l-34 260q-14 106 -163 152q-33 10 -138 13q-97 2 -123 -3
q-19 -4 -36 -4q-98 0 -98 115q0 27 6 58l16 86q12 66 70 122q55 52 128.5 74.5t240.5 22.5q169 0 259 -21v-177q-143 28 -230 28q-301 0 -301 -135q209 0 282 -18q233 -58 256 -256l35 -301q17 -150 103 -150h66v-182z" />
    <glyph glyph-name="kehehinitial" unicode="&#x6a9;" horiz-adv-x="855" arabic-form="initial" 
d="M855 300q2 -18 2 -36q0 -105 -57 -181q-61 -83 -155 -83h-675v182h609q104 0 104 109q0 13 -2 25l-34 260q-14 106 -163 152q-33 10 -138 13q-97 2 -123 -3q-19 -4 -36 -4q-98 0 -98 115q0 27 6 58l16 86q12 66 70 122q55 52 128.5 74.5t240.5 22.5q169 0 259 -21v-177
q-143 28 -230 28q-301 0 -301 -135q209 0 282 -18q233 -58 256 -256z" />
    <glyph glyph-name="kehehmedial" unicode="&#x6a9;" horiz-adv-x="1013" arabic-form="medial" 
d="M1043 0h-125q-67 0 -126 71q-61 -71 -147 -71h-675v182h609q104 0 104 109q0 13 -2 25l-34 260q-14 106 -163 152q-33 10 -138 13q-97 2 -123 -3q-19 -4 -36 -4q-98 0 -98 115q0 27 6 58l16 86q12 66 70 122q55 52 128.5 74.5t240.5 22.5q169 0 259 -21v-177
q-143 28 -230 28q-301 0 -301 -135q209 0 282 -18q233 -58 256 -256l35 -301q17 -150 103 -150h89v-182z" />
    <glyph glyph-name="gafisolated" unicode="&#x6af;" horiz-adv-x="1637" arabic-form="isolated" 
d="M1629 300q2 -18 2 -36q0 -105 -57 -181q-61 -83 -155 -83h-820q-183 0 -312 113q-137 120 -137 308q0 228 210 476l130 -124q-156 -179 -156 -320q0 -110 70.5 -190.5t166.5 -80.5h782q104 0 104 109q0 13 -2 25l-34 260q-14 106 -163 152q-33 10 -138 13q-97 2 -123 -3
q-19 -4 -36 -4q-98 0 -98 115q0 27 6 58l16 86q12 66 70 122q55 52 128.5 74.5t240.5 22.5q169 0 259 -21v-177q-143 28 -230 28q-301 0 -301 -135q209 0 282 -18q233 -58 256 -256z" />
    <glyph glyph-name="gaffinal" unicode="&#x6af;" horiz-adv-x="1764" arabic-form="final" 
d="M1794 0h-102q-67 0 -126 71q-61 -71 -147 -71h-820q-183 0 -312 113q-137 120 -137 308q0 228 210 476l130 -124q-156 -179 -156 -320q0 -110 70.5 -190.5t166.5 -80.5h782q104 0 104 109q0 13 -2 25l-34 260q-14 106 -163 152q-33 10 -138 13q-97 2 -123 -3
q-19 -4 -36 -4q-98 0 -98 115q0 27 6 58l16 86q12 66 70 122q55 52 128.5 74.5t240.5 22.5q169 0 259 -21v-177q-143 28 -230 28q-301 0 -301 -135q209 0 282 -18q233 -58 256 -256l35 -301q17 -150 103 -150h66v-182z" />
    <glyph glyph-name="gafinitial" unicode="&#x6af;" horiz-adv-x="855" arabic-form="initial" 
d="M855 300q2 -18 2 -36q0 -105 -57 -181q-61 -83 -155 -83h-675v182h609q104 0 104 109q0 13 -2 25l-34 260q-14 106 -163 152q-33 10 -138 13q-97 2 -123 -3q-19 -4 -36 -4q-98 0 -98 115q0 27 6 58l16 86q12 66 70 122q55 52 128.5 74.5t240.5 22.5q169 0 259 -21v-177
q-143 28 -230 28q-301 0 -301 -135q209 0 282 -18q233 -58 256 -256z" />
    <glyph glyph-name="gafmedial" unicode="&#x6af;" horiz-adv-x="2283" arabic-form="medial" 
d="M2308 0h-100q-25 -32 -50.5 -43.5t-58.5 -11.5q-47 0 -79.5 15.5t-51.5 39.5h-1646q-7 0 -60 -62t-88 -62q-53 0 -78 32q-10 39 -20 76q-25 39 -25 106q0 45 17.5 76t58.5 31h1786h121q0 92 -39 136t-82 44h-1356q-147 0 -253.5 53t-106.5 176q0 152 195.5 322t404.5 170
q102 0 150 -35t48 -129q0 -57 -18.5 -77.5t-81.5 -20.5q-66 0 -103.5 37.5t-70.5 37.5q-45 0 -186.5 -110.5t-141.5 -194.5q0 -43 74 -54t299 -11h350h830q145 0 220 -112t75 -232h67v-197z" />
    <glyph glyph-name="farsiyehisolated" unicode="&#x6cc;" horiz-adv-x="1242" arabic-form="isolated" 
d="M1242 719h-211q-51 0 -84 -39q-28 -33 -28 -71q0 -63 79 -141q142 -139 147 -145q79 -98 79 -210q0 -203 -211 -315q-178 -95 -431 -95q-432 0 -432 334q0 139 87 340q66 155 147 275l158 -95q-205 -314 -205 -491q0 -117 83 -159q56 -28 180 -28q428 0 428 237
q0 68 -77 147l-142 144q-77 95 -77 199q0 124 96 214q94 87 216 87h198v-188z" />
    <glyph glyph-name="farsiyehfinal" unicode="&#x6cc;" horiz-adv-x="1262" arabic-form="final" 
d="M1292 0h-187q37 -69 37 -97q0 -121 -147 -203t-375 -82q-471 0 -471 355q0 128 145 421q122 247 226 388l152 -98q-99 -145 -198 -338q-123 -239 -123 -332q0 -134 91 -185q68 -38 217 -38q87 0 171 27q110 34 110 95q0 35 -37 61t-83 26v181h472v-181z" />
    <glyph glyph-name="fathatanisolated" unicode="&#xfe70;" arabic-form="isolated" 
d="M450 2030q-222 -82 -483 -299l-52 74q248 208 498 310zM490 1850q-222 -82 -483 -299l-52 74q248 208 498 310z" />
    <glyph glyph-name="dammatanisolated" unicode="&#xfe72;" arabic-form="isolated" 
d="M366 1927q0 -143 -111 -249q-107 -101 -240 -101q0 6 -6 82l29 4q7 36 7 57q0 37 -24 37q-22 0 -72 -33l-23 64q50 47 106 47q37 0 55 -23q32 -41 11 -140q69 18 116 71q-116 32 -116 105q0 97 69 193q61 85 98 85q101 0 101 -199zM298 1938q0 105 -38 105q-17 0 -51 -61
q-35 -64 -35 -107q0 -48 91 -63q33 42 33 126z" />
    <glyph glyph-name="kasratanisolated" unicode="&#xfe74;" arabic-form="isolated" 
d="M694 -700q-222 -82 -483 -299l-52 74q248 208 498 310zM734 -880q-222 -82 -483 -299l-52 74q248 208 498 310z" />
    <glyph glyph-name="fathaisolated" unicode="&#xfe76;" arabic-form="isolated" 
d="M490 1850q-222 -82 -483 -299l-52 74q248 208 498 310z" />
    <glyph glyph-name="dammaisolated" unicode="&#xfe78;" arabic-form="isolated" 
d="M366 1926q0 -143 -111 -249q-107 -101 -240 -101q0 6 -6 81q135 8 205 85q-116 32 -116 105q0 97 69 193q61 85 98 85q101 0 101 -199zM298 1937q0 105 -38 105q-17 0 -51 -61q-35 -64 -35 -107q0 -48 91 -63q33 42 33 126z" />
    <glyph glyph-name="kasraisolated" unicode="&#xfe7a;" arabic-form="isolated" 
d="M694 -730q-222 -82 -483 -299l-52 74q248 208 498 310z" />
    <glyph glyph-name="shaddaisolated" unicode="&#xfe7c;" arabic-form="isolated" 
d="M477 1755q0 -70 -34 -119q-38 -57 -104 -57q-52 0 -106 51q-38 -55 -120 -54q-63 0 -109.5 61t-46.5 132q0 66 14 145l83 -19q-12 -40 -12 -90q0 -136 71 -136q58 0 58 68q0 20 -24 154q36 2 92 10q24 -161 25 -163q18 -63 72 -63q43 0 43 53q0 62 -52 173l77 40
q73 -121 73 -186z" />
    <glyph glyph-name="sukunisolated" unicode="&#xfe7e;" arabic-form="isolated" 
d="M391 1756q0 -77 -54 -130t-131 -53t-131 53t-54 130t54 131t131 54t131 -54t54 -131zM301 1757q0 39 -28 67t-67 28t-67 -28t-28 -67t28 -66.5t67 -27.5t67 27.5t28 66.5z" />
    <glyph glyph-name="hamzaisolated" unicode="&#x621;" horiz-adv-x="559" arabic-form="isolated" 
d="M250 213q-45 -25 -37 -70q6 -28 31.5 -41.5t56.5 -13.5q10 0 67.5 22.5t69.5 20.5q31 -6 40 -37t9 -82q-49 -28 -216 -99.5t-171 -65.5q-20 31 -31.5 52.5t-11.5 39.5q0 12 8.5 27.5t36 25.5t52.5 18q-54 39 -63 83t-9 69q0 59 39 110.5t80 64.5t71 13q52 0 96 -21.5
t44 -47.5q0 -68 -68 -68q-12 0 -33.5 4t-25.5 4q-19 0 -35 -8z" />
    <glyph glyph-name="alefwithmaddaaboveisolated" unicode="&#x622;" horiz-adv-x="448" arabic-form="isolated" 
d="M135 891q-8 51 -32.5 79.5t-49.5 59.5q-10 90 56.5 165t138.5 75q53 0 74.5 -47t15.5 -78q-14 -49 -29.5 -104.5t-15.5 -120.5q0 -134 28.5 -340.5t28.5 -315.5q0 -86 -100 -246.5t-266 -207.5q90 111 125.5 176t50 127.5t18.5 106.5t4 85q0 37 -4 94.5t-8 104.5z
M70 1307q-39 -7 -56.5 -27t-25.5 -23q-57 -6 -101 34t-44 83q0 33 28.5 45.5t47.5 10.5q34 -11 67.5 -20t66.5 -9q86 0 213 17.5t180 17.5q56 0 150 -59.5t123 -159.5q-57 45 -93 69.5t-80 34.5t-67.5 12t-52.5 2q-27 0 -63.5 -3t-59.5 -5z" />
    <glyph glyph-name="alefwithmaddaabovefinal" unicode="&#x622;" horiz-adv-x="534" arabic-form="final" 
d="M567 197h-141q-10 39 -31.5 120.5t-54.5 237.5t-59 336q-2 22 14 116.5t16 133.5q0 59 -23.5 100t-64.5 41q-53 0 -110.5 -52t-57.5 -155q0 -65 38 -133t73 -127l110 -616q0 -166 -40 -248q-54 -71 -74 -110l10 -31q96 33 149.5 104.5t73 81.5t64.5 10q59 0 76.5 -1
t31.5 -5v197zM70 1350q-39 -7 -56.5 -27t-25.5 -23q-57 -6 -101 34t-44 83q0 33 28.5 45.5t47.5 10.5q34 -11 70 -19t64 -8q88 0 228.5 16.5t164.5 16.5q56 0 150 -59.5t123 -159.5q-55 45 -93 70.5t-89.5 36.5t-100.5 11q-28 0 -77.5 -3t-55.5 -3z" />
    <glyph glyph-name="alefwithhamzaaboveisolated" unicode="&#x623;" horiz-adv-x="444" arabic-form="isolated" 
d="M177 1518q-39 -19 -28 -54q6 -20 26.5 -32.5t40.5 -12.5q8 0 52 18.5t53 16.5q24 -4 31 -27.5t7 -62.5q-38 -23 -166 -78t-133 -49q-18 27 -26 49.5t0 38.5t28.5 23.5t38.5 13.5q-41 33 -49 64.5t-8 50.5q0 49 30.5 88t63.5 49t54 10q43 0 75.5 -15.5t32.5 -37.5
q0 -29 -18.5 -44.5t-46.5 -6.5q-25 6 -33 6q-15 0 -25 -8zM206 897q-8 51 -32.5 80t-49.5 59q-10 90 56.5 165t137.5 75q54 0 75.5 -47t15.5 -78q-15 -49 -30 -104.5t-15 -120.5q0 -133 28.5 -340t28.5 -316q0 -86 -100.5 -246.5t-266.5 -207.5q90 111 126 176t50.5 127.5
t18.5 106.5t4 85q0 37 -4 94.5t-8 104.5z" />
    <glyph glyph-name="alefwithhamzaabovefinal" unicode="&#x623;" horiz-adv-x="534" arabic-form="final" 
d="M111 1620q-39 -18 -29 -53q4 -17 18.5 -28t49.5 -17q4 0 69.5 11t77.5 11q37 0 37 -41q0 -30 -42 -36.5t-83 -20.5t-87 -40t-78 -47.5t-58 -41.5q-59 6 -45 49q16 37 49 65.5t45 32.5q-41 33 -48 68t-7 45q0 49 29.5 89t62 50t53.5 10q43 0 75.5 -15t32.5 -38
q0 -28 -18 -43.5t-45 -7.5q-31 6 -35 6q-14 0 -24 -8zM567 197h-141q-10 39 -31.5 120.5t-54.5 237.5t-59 336q-2 22 14 116.5t16 133.5q0 59 -23.5 100t-64.5 41q-53 0 -110.5 -52t-57.5 -155q0 -65 38 -133t73 -127l110 -616q0 -166 -40 -248q-54 -71 -74 -110l10 -31
q96 33 149.5 104.5t73 81.5t64.5 10q59 0 76.5 -1t31.5 -5v197z" />
    <glyph glyph-name="wawwithhamzaaboveisolated" unicode="&#x624;" horiz-adv-x="819" arabic-form="isolated" 
d="M217 1067q-37 -23 -29 -53q7 -23 26 -34t42 -11q12 0 55 17.5t51 14.5q29 -4 33 -30.5t4 -59.5q-39 -22 -167 -77.5t-132 -49.5q-10 17 -20 38.5t-10 33.5q0 6 6 20.5t26.5 21.5t38.5 13q-41 31 -49 78q-6 19 -6 37q0 45 30.5 85t63.5 50t53 10q43 0 76 -15t33 -38
q0 -28 -19.5 -43.5t-46.5 -7.5q-30 6 -32 6q-11 0 -27 -6zM-69 -555q237 35 410 193t173 374q-25 0 -86 -15t-82 -15q-14 0 -82.5 12t-101.5 76.5t-33 193.5q0 199 92 291t191 92q139 0 225 -153.5t86 -370.5q0 -352 -248 -593.5t-554 -241.5q-111 0 -258.5 34.5t-266 148.5
t-186.5 193.5t-90.5 146.5t-28.5 89.5t-6 28.5q0 22 16 16q17 -2 20 -22.5t5 -36.5q90 -135 154.5 -194.5t178 -132.5t205 -96.5t177.5 -23.5q43 0 90 6zM379 432q-45 0 -62 -63q-10 -74 -12 -88q-4 -31 30 -69t64 -34q62 8 81.5 28.5t19.5 51.5q-2 23 -2 31q0 35 -33 92
t-86 51z" />
    <glyph glyph-name="wawwithhamzaabovefinal" unicode="&#x624;" horiz-adv-x="720" arabic-form="final" 
d="M178 911q-37 -22 -28 -53q4 -22 23.5 -33.5t43.5 -11.5q12 -2 74.5 9.5t73.5 11.5q36 0 36 -41q0 -31 -61 -40.5t-122.5 -42t-111 -68.5t-53.5 -34q-49 6 -49 33l4 16q12 29 45 60t49 39q-39 28 -48 62t-9 52q0 48 30.5 86.5t63.5 49t54 10.5q43 0 75.5 -15.5t32.5 -37.5
q0 -29 -18.5 -44.5t-46.5 -7.5q-25 7 -33 7q-13 0 -25 -7zM358 315q-18 -16 -18 -41q0 -28 26.5 -53.5t67.5 -25.5q17 0 30 3t13 29q0 56 -30.5 77.5t-53.5 21.5q-18 0 -35 -11zM750 0h-103q-94 -204 -181 -331t-222 -205t-340 -78q-88 0 -137 22.5t-114.5 86t-103.5 145.5
t-63 293l9 65q24 -12 46.5 -75.5t61.5 -182.5q76 -170 169 -192.5t155.5 -23.5t90.5 -3q148 0 291.5 164t143.5 321q-158 0 -224.5 64.5t-66.5 173.5q0 78 65.5 214t167.5 136q140 0 209 -191q45 -196 47 -206h99v-197z" />
    <glyph glyph-name="alefwithhamzabelowisolated" unicode="&#x625;" horiz-adv-x="430" arabic-form="isolated" 
d="M170 -350q-35 -16 -29 -53q6 -22 26.5 -32.5t43.5 -10.5q10 0 52 18.5t52 16.5q25 -6 32 -29.5t7 -62.5q-30 -19 -162.5 -76t-136.5 -51q-14 22 -26.5 44.5t-1.5 43.5q8 16 29.5 23t39.5 14q-43 34 -51 77q-6 19 -6 37q0 47 30.5 87t63.5 50.5t53 10.5q39 0 74 -16.5
t35 -36.5q0 -29 -19.5 -44.5t-46.5 -7.5q-24 6 -30 6q-15 0 -29 -8zM135 956q-8 52 -32.5 80.5t-49.5 59.5q-10 90 56.5 164.5t138.5 74.5q53 0 74.5 -47t15.5 -78q-14 -49 -29.5 -104t-15.5 -121q0 -133 28.5 -340t28.5 -315q0 -86 -100 -246.5t-266 -207.5
q90 110 125.5 175.5t50 128t18.5 106.5t4 85q0 37 -4 94t-8 104z" />
    <glyph glyph-name="alefwithhamzabelowfinal" unicode="&#x625;" horiz-adv-x="534" arabic-form="final" 
d="M338 -387q-35 -20 -29 -53q6 -22 25.5 -33.5t44.5 -11.5q12 -2 74.5 9.5t72.5 11.5q37 0 37 -41q0 -31 -63.5 -40.5t-129 -45t-97 -57t-58.5 -42.5q-49 6 -49 33l4 16q12 29 45 60t49 39q-41 30 -49 64t-8 46q0 50 29.5 89.5t62.5 50t53 10.5q43 0 76 -15.5t33 -37.5
q0 -29 -18.5 -44.5t-45.5 -7.5q-24 7 -35 7q-12 0 -24 -7zM567 197h-141q-10 39 -31.5 120.5t-54.5 237.5t-59 336q-2 22 14 116.5t16 133.5q0 59 -23.5 100t-64.5 41q-53 0 -110.5 -52t-57.5 -155q0 -65 38 -133t73 -127l110 -616q0 -166 -40 -248q-54 -71 -74 -110l10 -31
q96 33 149.5 104.5t73 81.5t64.5 10q59 0 76.5 -1t31.5 -5v197z" />
    <glyph glyph-name="yehwithhamzaaboveisolated" unicode="&#x626;" horiz-adv-x="2045" arabic-form="isolated" 
d="M640 797q-37 -23 -29 -54q6 -22 25.5 -33.5t42.5 -11.5q12 0 54 17.5t50 15.5q25 -4 32 -26.5t7 -63.5q-39 -23 -167 -78t-132 -49q-10 16 -20 37.5t-10 34.5q0 6 6 20.5t26.5 21.5t38.5 13q-39 29 -48 62.5t-9 52.5q0 47 30.5 86t63.5 49t53 10q43 0 76 -15.5t33 -37.5
q0 -29 -18.5 -44.5t-47.5 -6.5q-24 6 -32 6q-13 0 -25 -6zM374 666q-109 -183 -147 -294.5t-38 -246.5q0 -198 204 -411t567 -213q198 0 357 120.5t253 265t94 183.5q0 59 -78 140t-78 124q0 37 146.5 135t163.5 98q28 0 89.5 -61.5t84.5 -97.5q-13 -25 -33.5 -48.5
t-61.5 -27.5q-12 20 -29.5 38.5t-39.5 18.5q-31 0 -53 -55q28 -43 57 -84q33 -62 33 -148q0 -138 -180.5 -369.5t-355.5 -325t-341 -93.5q-325 0 -580 183.5t-290 329t-40 175t-5 76.5q0 37 13 130t106.5 263t160.5 219q4 2 10.5 -11t10.5 -13z" />
    <glyph glyph-name="yehwithhamzaabovefinal" unicode="&#x626;" horiz-adv-x="1540" arabic-form="final" 
d="M219 678q-39 -19 -29 -53q5 -23 22 -32t46 -13q4 0 70.5 11t77.5 11q36 0 36 -41q0 -31 -42 -37t-83 -20.5t-87 -40t-77.5 -47t-58.5 -41.5q-49 6 -49 33l4 16q12 29 47 61.5t47 36.5q-41 33 -49 64.5t-8 50.5q0 49 30.5 88t63.5 49t53 10q43 0 76 -15t33 -38
q0 -29 -18.5 -44t-47.5 -7q-24 6 -32 6q-15 0 -25 -8zM-1562 10q80 -268 271.5 -459.5t390 -237.5t345 -63.5t287.5 -17.5q467 0 814 183.5t394 410.5t47 237q0 39 -16.5 85.5t-46.5 93.5q-15 12 -15 20q0 19 56.5 30t89.5 11q20 -55 42.5 -100t58.5 -81t98.5 -65.5
t115.5 -44.5q35 -6 105.5 -8t134.5 -4l4 197q-17 -2 -51.5 -4.5t-53.5 -2.5q-96 0 -140 11.5t-76.5 39t-84 142.5t-86.5 124t-53 9q-82 0 -233.5 -77t-157.5 -107q-10 -35 63.5 -130.5t73.5 -144.5q0 -12 -26.5 -181.5t-359.5 -330.5t-766 -161q-150 0 -289 20.5t-297 70.5
t-361.5 211t-277.5 324z" />
    <glyph glyph-name="yehwithhamzaaboveinitial" unicode="&#x626;" horiz-adv-x="524" arabic-form="initial" 
d="M217 883q-37 -23 -29 -54q7 -22 26 -33.5t42 -11.5q12 0 55 17.5t51 15.5q29 -4 33 -30.5t4 -59.5q-39 -22 -167 -77.5t-132 -49.5q-10 16 -20 37.5t-10 34.5q0 6 6 20.5t26.5 21.5t38.5 13q-41 31 -49 78q-6 18 -6 37q0 45 30.5 85t63.5 50t53 10q43 0 76 -15.5
t33 -37.5q0 -29 -19.5 -44.5t-46.5 -6.5q-30 6 -32 6q-11 0 -27 -6zM-26 197h137q84 0 93 -1t97 -24q4 8 6 17.5t2 23.5q0 23 -7 33t-13 21.5t-53 11.5q-41 0 -70 32.5t-29 75.5q0 45 39 88t105 43q51 0 112.5 -90t61.5 -225q0 -97 -35 -169t-86 -72q-25 10 -70 24t-176 14
h-114v197z" />
    <glyph glyph-name="yehwithhamzaabovemedial" unicode="&#x626;" horiz-adv-x="567" arabic-form="medial" 
d="M283 983q34 0 61 -20.5t27 -53.5q0 -16 -7.5 -41.5t-21.5 -25.5q-4 0 -11 27.5t-23.5 43t-43.5 15.5q-35 0 -67.5 -25.5t-32.5 -40.5q0 -45 52 -63.5t101 -18.5q7 0 41.5 2t51.5 2q10 0 18 -1t4 -5q-33 -24 -61.5 -38.5t-70.5 -32t-122 -60.5q-31 -12 -61 -24
q-2 14 23.5 41.5t54.5 54.5q-2 0 -10.5 2t-30.5 18q-27 15 -36 34.5t-9 45.5q0 17 7 49.5t25.5 58t57.5 41t84 15.5zM604 0h-203q-18 -6 -30 -6q-23 0 -54.5 46t-56.5 69q-29 -54 -46 -81.5t-52 -27.5h-188v197h98q159 0 181.5 89t80.5 89q8 0 64.5 -89t140.5 -89h65v-197z
" />
    <glyph glyph-name="alefisolated" unicode="&#x627;" horiz-adv-x="423" arabic-form="isolated" 
d="M135 956q-8 52 -32.5 80.5t-49.5 59.5q-10 90 56.5 164.5t138.5 74.5q53 0 74.5 -47t15.5 -78q-14 -49 -29.5 -104t-15.5 -121q0 -133 28.5 -340t28.5 -315q0 -86 -100 -246.5t-266 -207.5q90 110 125.5 175.5t50 128t18.5 106.5t4 85q0 37 -4 94t-8 104z" />
    <glyph glyph-name="aleffinal" unicode="&#x627;" horiz-adv-x="534" arabic-form="final" 
d="M567 197h-141q-10 39 -31.5 120.5t-54.5 237.5t-59 336q-2 22 14 116.5t16 133.5q0 59 -23.5 100t-64.5 41q-53 0 -110.5 -52t-57.5 -155q0 -65 38 -133t73 -127l110 -616q0 -166 -40 -248q-54 -71 -74 -110l10 -31q96 33 149.5 104.5t73 81.5t64.5 10q59 0 76.5 -1
t31.5 -5v197z" />
    <glyph glyph-name="behisolated" unicode="&#x628;" horiz-adv-x="2041" arabic-form="isolated" 
d="M63 510q0 168 42 256t135 235q22 43 71 125t115 97q-102 -156 -174 -310.5t-72 -304.5q0 -262 162 -376.5t418 -114.5q127 0 367.5 58t484.5 120q24 0 65 -3t52 -3q69 0 69 55q0 23 -140 96.5t-140 130.5q8 50 36.5 99t131.5 49q108 0 171.5 -98.5t63.5 -227.5
q0 -35 -73.5 -165t-96 -136t-30 -6h-9.5q-12 0 -43 6t-53 6q-248 -65 -484.5 -115t-390.5 -50q-297 0 -487.5 154.5t-190.5 422.5zM1518 -256q0 52 29.5 85.5t80.5 33.5q53 0 81 -31.5t28 -76.5q0 -39 -33 -74t-88 -35q-98 0 -98 98z" />
    <glyph glyph-name="behfinal" unicode="&#x628;" horiz-adv-x="2555" arabic-form="final" 
d="M1907 -223q0 35 22.5 77t85.5 42q53 0 81 -31.5t28 -76.5q0 -41 -32 -75t-87 -34q-98 0 -98 98zM1894 203q48 6 119.5 103t126.5 97q31 -22 56.5 -45.5t71.5 -74t127 -69.5t155 -19h26.5t18.5 2v-197h-33t-45 -2q-29 0 -54.5 1t-39.5 7q-58 10 -101 19.5t-87 29t-79.5 55
t-52.5 40.5q-28 4 -114 -79t-170 -83q-80 0 -275.5 -6t-281.5 -6q-183 0 -314 7t-354 46t-381 148.5t-158 336.5q0 45 15.5 164t134.5 278q127 140 160.5 180t85.5 101q81 86 145 86q-150 -154 -254 -305.5t-125.5 -268t-21.5 -167.5q0 -140 68.5 -208.5t153.5 -91
t246.5 -54t294 -39t295.5 -7.5q195 0 375 7.5t266 13.5z" />
    <glyph glyph-name="behinitial" unicode="&#x628;" horiz-adv-x="569" arabic-form="initial" 
d="M-26 197h137q84 0 93 -1t97 -24q4 8 6 17.5t2 23.5q0 23 -7 33t-13 21.5t-53 11.5q-41 0 -70 32.5t-29 75.5q0 45 39 88t105 43q51 0 112.5 -90t61.5 -225q0 -97 -35 -169t-86 -72q-25 10 -70 24t-176 14h-114v197zM303 -286q0 35 32 66.5t83 31.5q57 0 77.5 -27.5
t20.5 -70.5q0 -60 -41 -87.5t-90 -27.5q-29 10 -55.5 31.5t-26.5 83.5z" />
    <glyph glyph-name="behmedial" unicode="&#x628;" horiz-adv-x="573" arabic-form="medial" 
d="M604 0h-203q-18 -6 -30 -6q-23 0 -54.5 46t-56.5 69q-29 -54 -46 -81.5t-52 -27.5h-188v197h98q159 0 181.5 89t80.5 89q8 0 64.5 -89t140.5 -89h65v-197zM150 -243q0 35 31.5 66.5t82.5 31.5q53 0 75.5 -24.5t22.5 -73.5q0 -43 -29.5 -79t-84.5 -36q-29 0 -63.5 37
t-34.5 78z" />
    <glyph glyph-name="tehmarbutaisolated" unicode="&#x629;" horiz-adv-x="1058" arabic-form="isolated" 
d="M18 999q0 35 32 67t83 32q53 0 75.5 -24.5t22.5 -74.5q0 -43 -29.5 -78.5t-84.5 -35.5q-29 0 -64 36.5t-35 77.5zM326 1032q0 35 31.5 66.5t82.5 31.5q58 0 78.5 -27.5t20.5 -70.5q0 -59 -41 -86.5t-90 -27.5q-29 10 -55.5 31.5t-26.5 82.5zM188 238q0 159 133.5 269.5
t309.5 110.5q12 0 29.5 -2t25.5 -2q0 86 -60.5 160t-60.5 103q0 63 38 105t99 42q78 0 108 -35t30 -84q0 -26 -6.5 -48.5t-10.5 -35.5q29 -88 55.5 -202.5t26.5 -249.5q0 -164 -59.5 -310.5t-192.5 -227.5q-2 12 -2 32q0 33 22.5 91t28.5 97q-63 -26 -124.5 -50.5
t-126.5 -24.5q-138 0 -200.5 71.5t-62.5 190.5zM401 219q9 -39 42.5 -59.5t78.5 -20.5q51 0 104.5 23.5t78 56.5t31.5 66.5t7 76.5q-6 74 -28.5 92.5t-46.5 18.5q-52 0 -123.5 -37t-99 -83t-38 -75.5t-6.5 -58.5z" />
    <glyph glyph-name="tehmarbutafinal" unicode="&#x629;" horiz-adv-x="763" arabic-form="final" 
d="M-24 1116q0 62 33.5 80t80.5 18q51 0 71.5 -15t43.5 -66q26 63 54 88.5t93 25.5q43 0 72 -42t29 -72q0 -43 -42 -71t-92 -28q-45 0 -65 21q-21 28 -33 45q-57 -72 -84.5 -85.5t-62.5 -13.5q-37 0 -67.5 31t-30.5 84zM793 0l36 -2h-32.5h-57.5q-104 0 -163.5 -65.5
t-196.5 -65.5q8 25 50 67t52 64q-16 2 -35.5 2h-29.5q-76 0 -93.5 -1t-29.5 -5q-80 12 -159 59t-79 228q0 168 129 241q150 41 301 82q9 19 -0.5 58.5t-20.5 63.5t-62.5 56.5t-51.5 63.5q0 78 41 98.5t105 20.5q71 0 118.5 -59.5t47.5 -157.5q0 -64 -1.5 -128.5t-1.5 -132.5
v-135q5 -104 17 -155h117v-197zM260 250q0 -29 32 -39t79 -10q47 2 61 2q88 0 88 65l-4 35l-10 96q0 37 -45 37q-37 0 -87 -21.5t-72.5 -41t-32 -52t-9.5 -71.5z" />
    <glyph glyph-name="tehisolated" unicode="&#x62a;" horiz-adv-x="2033" arabic-form="isolated" 
d="M1047 891q0 35 31.5 66.5t82.5 31.5q99 0 99 -98q0 -41 -31 -78t-84 -37q-29 0 -63.5 37t-34.5 78zM1352 924q0 34 31.5 66t82.5 32q58 0 78.5 -27.5t20.5 -70.5q0 -60 -41 -87.5t-90 -27.5q-29 10 -55.5 31.5t-26.5 83.5zM63 510q0 168 42 256t135 235q22 43 71 125
t115 97q-102 -156 -174 -310.5t-72 -304.5q0 -262 162 -376.5t418 -114.5q127 0 367.5 58t484.5 120q24 0 65 -3t52 -3q69 0 69 55q0 23 -140 96.5t-140 130.5q8 50 36.5 99t131.5 49q108 0 171.5 -98.5t63.5 -227.5q0 -35 -73.5 -165t-96 -136t-30 -6h-9.5q-12 0 -43 6
t-53 6q-248 -65 -484.5 -115t-390.5 -50q-297 0 -487.5 154.5t-190.5 422.5z" />
    <glyph glyph-name="tehfinal" unicode="&#x62a;" horiz-adv-x="2473" arabic-form="final" 
d="M1196 825q0 35 22.5 77t86.5 42q53 0 81.5 -30.5t28.5 -77.5q0 -39 -32.5 -74t-88.5 -35q-98 0 -98 98zM1481 846q0 53 29.5 87t78.5 34q53 0 81 -32t28 -77q0 -43 -32 -76.5t-87 -33.5q-98 0 -98 98zM1894 203q48 6 119.5 103t126.5 97q31 -22 56.5 -45.5t71.5 -74
t127 -69.5t155 -19h26.5t18.5 2v-197h-33t-45 -2q-29 0 -54.5 1t-39.5 7q-58 10 -101 19.5t-87 29t-79.5 55t-52.5 40.5q-28 4 -114 -79t-170 -83q-80 0 -275.5 -6t-281.5 -6q-183 0 -314 7t-354 46t-381 148.5t-158 336.5q0 45 15.5 164t134.5 278q127 140 160.5 180
t85.5 101q81 86 145 86q-150 -154 -254 -305.5t-125.5 -268t-21.5 -167.5q0 -140 68.5 -208.5t153.5 -91t246.5 -54t294 -39t295.5 -7.5q195 0 375 7.5t266 13.5z" />
    <glyph glyph-name="tehinitial" unicode="&#x62a;" horiz-adv-x="546" arabic-form="initial" 
d="M270 805q0 37 33 67.5t82 30.5q55 0 76.5 -27.5t21.5 -70.5q0 -60 -40 -87.5t-91 -27.5q-28 10 -55 31.5t-27 83.5zM23 793q0 34 31.5 66t82.5 32q99 0 99 -98q0 -41 -31 -78t-84 -37q-29 0 -63.5 37t-34.5 78zM-26 197h137q84 0 93 -1t97 -24q4 8 6 17.5t2 23.5
q0 23 -7 33t-13 21.5t-53 11.5q-41 0 -70 32.5t-29 75.5q0 45 39 88t105 43q51 0 112.5 -90t61.5 -225q0 -97 -35 -169t-86 -72q-25 10 -70 24t-176 14h-114v197z" />
    <glyph glyph-name="tehmedial" unicode="&#x62a;" horiz-adv-x="591" arabic-form="medial" 
d="M604 0h-203q-18 -6 -30 -6q-23 0 -54.5 46t-56.5 69q-29 -54 -46 -81.5t-52 -27.5h-188v197h98q159 0 181.5 89t80.5 89q8 0 64.5 -89t140.5 -89h65v-197zM51 786q0 35 32 67t83 32q53 0 75.5 -24.5t22.5 -74.5q0 -43 -29.5 -78.5t-84.5 -35.5q-29 0 -64 36.5t-35 77.5z
M319 786q0 35 32 67t83 32q58 0 78 -28t20 -71q0 -59 -40.5 -86.5t-90.5 -27.5q-28 10 -55 31.5t-27 82.5z" />
    <glyph glyph-name="thehisolated" unicode="&#x62b;" horiz-adv-x="2033" arabic-form="isolated" 
d="M1169 1143q0 35 32 66.5t83 31.5q98 0 98 -98q0 -41 -30.5 -78t-83.5 -37q-29 0 -64 37t-35 78zM1047 891q0 35 31.5 66.5t82.5 31.5q99 0 99 -98q0 -41 -31 -78t-84 -37q-29 0 -63.5 37t-34.5 78zM1352 924q0 34 31.5 66t82.5 32q58 0 78.5 -27.5t20.5 -70.5
q0 -60 -41 -87.5t-90 -27.5q-29 10 -55.5 31.5t-26.5 83.5zM63 510q0 168 42 256t135 235q22 43 71 125t115 97q-102 -156 -174 -310.5t-72 -304.5q0 -262 162 -376.5t418 -114.5q127 0 367.5 58t484.5 120q24 0 65 -3t52 -3q69 0 69 55q0 23 -140 96.5t-140 130.5
q8 50 36.5 99t131.5 49q108 0 171.5 -98.5t63.5 -227.5q0 -35 -73.5 -165t-96 -136t-30 -6h-9.5q-12 0 -43 6t-53 6q-248 -65 -484.5 -115t-390.5 -50q-297 0 -487.5 154.5t-190.5 422.5z" />
    <glyph glyph-name="thehfinal" unicode="&#x62b;" horiz-adv-x="2523" arabic-form="final" 
d="M1294 1075q0 53 30 87t79 34q53 0 81.5 -30.5t28.5 -78.5q0 -40 -32.5 -75t-87.5 -35q-99 0 -99 98zM1196 825q0 35 22.5 77t86.5 42q53 0 81.5 -30.5t28.5 -77.5q0 -39 -32.5 -74t-88.5 -35q-98 0 -98 98zM1481 846q0 53 29.5 87t78.5 34q53 0 81 -32t28 -77
q0 -43 -32 -76.5t-87 -33.5q-98 0 -98 98zM1894 203q48 6 119.5 103t126.5 97q31 -22 56.5 -45.5t71.5 -74t127 -69.5t155 -19h26.5t18.5 2v-197h-33t-45 -2q-29 0 -54.5 1t-39.5 7q-58 10 -101 19.5t-87 29t-79.5 55t-52.5 40.5q-28 4 -114 -79t-170 -83q-80 0 -275.5 -6
t-281.5 -6q-183 0 -314 7t-354 46t-381 148.5t-158 336.5q0 45 15.5 164t134.5 278q127 140 160.5 180t85.5 101q81 86 145 86q-150 -154 -254 -305.5t-125.5 -268t-21.5 -167.5q0 -140 68.5 -208.5t153.5 -91t246.5 -54t294 -39t295.5 -7.5q195 0 375 7.5t266 13.5z" />
    <glyph glyph-name="thehinitial" unicode="&#x62b;" horiz-adv-x="620" arabic-form="initial" 
d="M133 1067q0 35 32 66.5t83 31.5q53 0 75.5 -24.5t22.5 -73.5q0 -43 -29.5 -79t-85.5 -36q-28 0 -63 37t-35 78zM303 827q0 35 32 67t83 32q57 0 77.5 -28t20.5 -71q0 -59 -41 -86.5t-90 -27.5q-29 10 -55.5 31.5t-26.5 82.5zM-26 197h137q84 0 93 -1t97 -24q4 8 6 17.5
t2 23.5q0 23 -7 33t-13 21.5t-53 11.5q-41 0 -70 32.5t-29 75.5q0 45 39 88t105 43q51 0 112.5 -90t61.5 -225q0 -97 -35 -169t-86 -72q-25 10 -70 24t-176 14h-114v197zM154 793q0 34 31.5 66t82.5 32q99 0 99 -98q0 -41 -31 -78t-84 -37q-29 0 -63.5 37t-34.5 78z" />
    <glyph glyph-name="thehmedial" unicode="&#x62b;" horiz-adv-x="579" arabic-form="medial" 
d="M166 1047q0 34 31.5 66t83.5 32q53 0 75.5 -24.5t22.5 -73.5q0 -43 -30 -79t-85 -36q-28 0 -63 37t-35 78zM604 0h-203q-18 -6 -30 -6q-23 0 -54.5 46t-56.5 69q-29 -54 -46 -81.5t-52 -27.5h-188v197h98q159 0 181.5 89t80.5 89q8 0 64.5 -89t140.5 -89h65v-197zM51 786
q0 35 32 67t83 32q53 0 75.5 -24.5t22.5 -74.5q0 -43 -29.5 -78.5t-84.5 -35.5q-29 0 -64 36.5t-35 77.5zM319 786q0 35 32 67t83 32q58 0 78 -28t20 -71q0 -59 -40.5 -86.5t-90.5 -27.5q-28 10 -55 31.5t-27 82.5z" />
    <glyph glyph-name="jeemisolated" unicode="&#x62c;" horiz-adv-x="1511" arabic-form="isolated" 
d="M857 -288q0 35 22.5 77t86.5 42q53 0 80.5 -32t27.5 -77q0 -41 -31.5 -75t-87.5 -34q-98 0 -98 99zM943 199q0 112 -55 153t-141 51q-48 -32 -84.5 -49.5t-59.5 -17.5q-45 0 -62.5 20.5t-17.5 55.5q0 18 5.5 41.5t14.5 75t58 94.5t141 43q113 0 197 -123q51 -90 102 -181
q43 -53 126 -116.5t141 -48.5q28 6 49 6q35 0 49 -17.5t14 -50.5q0 -49 -34.5 -108t-65.5 -59q-39 0 -62.5 14t-142.5 14q-323 0 -425.5 -19.5t-305.5 -88.5q-53 -25 -106.5 -71t-53.5 -163q0 -92 58.5 -219t191.5 -291l-55 -51q-158 148 -253 302.5t-95 271.5
q0 118 66.5 218.5t175 160.5t259 96t371.5 57z" />
    <glyph glyph-name="jeemfinal" unicode="&#x62c;" horiz-adv-x="1366" arabic-form="final" 
d="M794 -352q0 35 31.5 67t82.5 32q99 0 99 -99q0 -41 -31 -77.5t-84 -36.5q-29 0 -63.5 36.5t-34.5 77.5zM943 199q0 112 -55 153t-141 51q-48 -32 -84.5 -49.5t-59.5 -17.5q-45 0 -62.5 20.5t-17.5 55.5q0 18 5.5 41.5t14.5 75t58 94.5t141 43q113 0 197 -123
q51 -90 102 -181q23 -28 46.5 -50.5t74.5 -54.5t77 -47t65 -15h36.5t44.5 2q35 0 47.5 -35t12.5 -70q0 -41 -13.5 -66.5t-41.5 -25.5q-37 0 -110 -2t-165 -2q-323 0 -425.5 -19.5t-305.5 -88.5q-53 -25 -106.5 -71t-53.5 -163q0 -92 58.5 -219t191.5 -291l-55 -51
q-158 148 -253 302.5t-95 271.5q0 118 66.5 218.5t175 160.5t259 96t371.5 57z" />
    <glyph glyph-name="jeeminitial" unicode="&#x62c;" horiz-adv-x="1316" arabic-form="initial" 
d="M614 -243q0 35 32 66.5t83 31.5q98 0 98 -98q0 -41 -30.5 -78t-83.5 -37q-29 0 -64 37t-35 78zM-26 197q36 0 74 -1t93 -1q123 0 256 8t232 16q0 105 -86 148q-68 28 -135 57q-37 -31 -64 -51.5t-55 -20.5q-72 0 -95.5 47t-23.5 101q0 86 61.5 125t151.5 39
q166 0 281.5 -159t168 -201t96.5 -52t101 -10h53q78 0 115 -26t37 -120q0 -65 -24.5 -100.5t-80.5 -35.5q-12 0 -127.5 29t-205.5 29q-293 0 -454 -8t-255 -8l-114 -2v197z" />
    <glyph glyph-name="jeemmedial" unicode="&#x62c;" horiz-adv-x="1048" arabic-form="medial" 
d="M434 -253q0 34 32 66t83 32q57 0 77.5 -27.5t20.5 -70.5q0 -60 -41 -87.5t-90 -27.5q-29 10 -55.5 31.5t-26.5 83.5zM-30 197l79 -2q123 0 235.5 7t217.5 17q0 105 -86 148q-68 28 -135 57q-21 -18 -50.5 -45t-66.5 -27q-76 0 -98.5 45t-22.5 103q0 86 61.5 125t151.5 39
q170 0 288 -162t180 -212t161.5 -67.5t189.5 -25.5v-197h-65q-13 0 -127.5 9t-210.5 9q-289 0 -409 -8t-220 -8l-73 -2v197z" />
    <glyph glyph-name="hahisolated" unicode="&#x62d;" horiz-adv-x="1511" arabic-form="isolated" 
d="M943 199q0 112 -55 153t-141 51q-48 -32 -84.5 -49.5t-59.5 -17.5q-45 0 -62.5 20.5t-17.5 55.5q0 18 5.5 41.5t14.5 75t58 94.5t141 43q113 0 197 -123q51 -90 102 -181q43 -53 126 -116.5t141 -48.5q28 6 49 6q35 0 49 -17.5t14 -50.5q0 -49 -34.5 -108t-65.5 -59
q-39 0 -62.5 14t-142.5 14q-323 0 -425.5 -19.5t-305.5 -88.5q-53 -25 -106.5 -71t-53.5 -163q0 -92 58.5 -219t191.5 -291l-55 -51q-158 148 -253 302.5t-95 271.5q0 118 66.5 218.5t175 160.5t259 96t371.5 57z" />
    <glyph glyph-name="hahfinal" unicode="&#x62d;" horiz-adv-x="1366" arabic-form="final" 
d="M943 199q0 112 -55 153t-141 51q-48 -32 -84.5 -49.5t-59.5 -17.5q-45 0 -62.5 20.5t-17.5 55.5q0 18 5.5 41.5t14.5 75t58 94.5t141 43q113 0 197 -123q51 -90 102 -181q23 -28 46.5 -50.5t74.5 -54.5t77 -47t65 -15h36.5t44.5 2q35 0 47.5 -35t12.5 -70
q0 -41 -13.5 -66.5t-41.5 -25.5q-37 0 -110 -2t-165 -2q-323 0 -425.5 -19.5t-305.5 -88.5q-53 -25 -106.5 -71t-53.5 -163q0 -92 58.5 -219t191.5 -291l-55 -51q-158 148 -253 302.5t-95 271.5q0 118 66.5 218.5t175 160.5t259 96t371.5 57z" />
    <glyph glyph-name="hahinitial" unicode="&#x62d;" horiz-adv-x="1316" arabic-form="initial" 
d="M-26 197q36 0 74 -1t93 -1q123 0 256 8t232 16q0 105 -86 148q-68 28 -135 57q-37 -31 -64 -51.5t-55 -20.5q-72 0 -95.5 47t-23.5 101q0 86 61.5 125t151.5 39q166 0 281.5 -159t168 -201t96.5 -52t101 -10h53q78 0 115 -26t37 -120q0 -65 -24.5 -100.5t-80.5 -35.5
q-12 0 -127.5 29t-205.5 29q-293 0 -454 -8t-255 -8l-114 -2v197z" />
    <glyph glyph-name="hahmedial" unicode="&#x62d;" horiz-adv-x="1048" arabic-form="medial" 
d="M-30 197l79 -2q123 0 235.5 7t217.5 17q0 105 -86 148q-68 28 -135 57q-21 -18 -50.5 -45t-66.5 -27q-76 0 -98.5 45t-22.5 103q0 86 61.5 125t151.5 39q170 0 288 -162t180 -212t161.5 -67.5t189.5 -25.5v-197h-65q-13 0 -127.5 9t-210.5 9q-289 0 -409 -8t-220 -8
l-73 -2v197z" />
    <glyph glyph-name="khahisolated" unicode="&#x62e;" horiz-adv-x="1511" arabic-form="isolated" 
d="M540 989q0 35 22.5 77t85.5 42q53 0 82 -30.5t29 -78.5q0 -38 -33 -73t-88 -35q-98 0 -98 98zM943 199q0 112 -55 153t-141 51q-48 -32 -84.5 -49.5t-59.5 -17.5q-45 0 -62.5 20.5t-17.5 55.5q0 18 5.5 41.5t14.5 75t58 94.5t141 43q113 0 197 -123q51 -90 102 -181
q43 -53 126 -116.5t141 -48.5q28 6 49 6q35 0 49 -17.5t14 -50.5q0 -49 -34.5 -108t-65.5 -59q-39 0 -62.5 14t-142.5 14q-323 0 -425.5 -19.5t-305.5 -88.5q-53 -25 -106.5 -71t-53.5 -163q0 -92 58.5 -219t191.5 -291l-55 -51q-158 148 -253 302.5t-95 271.5
q0 118 66.5 218.5t175 160.5t259 96t371.5 57z" />
    <glyph glyph-name="khahfinal" unicode="&#x62e;" horiz-adv-x="1366" arabic-form="final" 
d="M597 936q0 35 32 66.5t83 31.5q98 0 98 -98q0 -41 -30.5 -78t-84.5 -37q-28 0 -63 37t-35 78zM943 199q0 112 -55 153t-141 51q-48 -32 -84.5 -49.5t-59.5 -17.5q-45 0 -62.5 20.5t-17.5 55.5q0 18 5.5 41.5t14.5 75t58 94.5t141 43q113 0 197 -123q51 -90 102 -181
q23 -28 46.5 -50.5t74.5 -54.5t77 -47t65 -15h36.5t44.5 2q35 0 47.5 -35t12.5 -70q0 -41 -13.5 -66.5t-41.5 -25.5q-37 0 -110 -2t-165 -2q-323 0 -425.5 -19.5t-305.5 -88.5q-53 -25 -106.5 -71t-53.5 -163q0 -92 58.5 -219t191.5 -291l-55 -51q-158 148 -253 302.5
t-95 271.5q0 118 66.5 218.5t175 160.5t259 96t371.5 57z" />
    <glyph glyph-name="khahinitial" unicode="&#x62e;" horiz-adv-x="1316" arabic-form="initial" 
d="M369 915q0 35 31.5 67t82.5 32q58 0 78.5 -28t20.5 -71q0 -59 -41 -86.5t-90 -27.5q-29 10 -55.5 31.5t-26.5 82.5zM-26 197q36 0 74 -1t93 -1q123 0 256 8t232 16q0 105 -86 148q-68 28 -135 57q-37 -31 -64 -51.5t-55 -20.5q-72 0 -95.5 47t-23.5 101q0 86 61.5 125
t151.5 39q166 0 281.5 -159t168 -201t96.5 -52t101 -10h53q78 0 115 -26t37 -120q0 -65 -24.5 -100.5t-80.5 -35.5q-12 0 -127.5 29t-205.5 29q-293 0 -454 -8t-255 -8l-114 -2v197z" />
    <glyph glyph-name="khahmedial" unicode="&#x62e;" horiz-adv-x="1048" arabic-form="medial" 
d="M260 958q0 35 32 67t83 32q57 0 77.5 -28t20.5 -71q0 -59 -41 -86.5t-90 -27.5q-29 10 -55.5 31.5t-26.5 82.5zM-30 197l79 -2q123 0 235.5 7t217.5 17q0 105 -86 148q-68 28 -135 57q-21 -18 -50.5 -45t-66.5 -27q-76 0 -98.5 45t-22.5 103q0 86 61.5 125t151.5 39
q170 0 288 -162t180 -212t161.5 -67.5t189.5 -25.5v-197h-65q-13 0 -127.5 9t-210.5 9q-289 0 -409 -8t-220 -8l-73 -2v197z" />
    <glyph glyph-name="dalisolated" unicode="&#x62f;" horiz-adv-x="1228" arabic-form="isolated" 
d="M65 -161q0 145 122.5 225.5t290.5 117.5q84 15 170 29q-141 117 -231 237.5t-90 241.5q0 70 44 125t87 55q61 0 112.5 -47t51.5 -100l-50 -131q21 -70 116 -154t195.5 -125t186.5 -73q76 -45 76 -140q0 -77 -38 -103.5t-126 -26.5q-68 0 -102.5 32.5t-61.5 32.5
q-299 0 -491.5 -55t-251.5 -207q-6 17 -8 26t-2 40z" />
    <glyph glyph-name="dalfinal" unicode="&#x62f;" horiz-adv-x="976" arabic-form="final" 
d="M996 0h-102q-37 0 -91 21.5t-59 21.5q-6 0 -29.5 -20.5t-90.5 -20.5q-37 0 -104.5 13.5t-108.5 13.5q-119 0 -211 -76q-80 -94 -158 -188q-10 33 0 41q0 115 96.5 221t177 133.5t139 36t76.5 12.5q-116 65 -195 121.5t-79 175.5q0 76 47 131t123 55q51 0 77.5 -39
t26.5 -67q0 -66 -56 -75t-56 -26q0 -49 174 -94t219 -176q55 -18 145 -18h39v-197z" />
    <glyph glyph-name="thalisolated" unicode="&#x630;" horiz-adv-x="1228" arabic-form="isolated" 
d="M165 1120q0 35 31.5 67t83.5 32q53 0 75.5 -25t22.5 -74q0 -43 -30 -78.5t-85 -35.5q-28 0 -63 36.5t-35 77.5zM65 -161q0 145 122.5 225.5t290.5 117.5q84 15 170 29q-141 117 -231 237.5t-90 241.5q0 70 44 125t87 55q61 0 112.5 -47t51.5 -100l-50 -131
q21 -70 116 -154t195.5 -125t186.5 -73q76 -45 76 -140q0 -77 -38 -103.5t-126 -26.5q-68 0 -102.5 32.5t-61.5 32.5q-299 0 -491.5 -55t-251.5 -207q-6 17 -8 26t-2 40z" />
    <glyph glyph-name="thalfinal" unicode="&#x630;" horiz-adv-x="976" arabic-form="final" 
d="M204 981q0 35 31.5 66.5t82.5 31.5q99 0 99 -98q0 -41 -31 -78t-84 -37q-29 0 -63.5 37t-34.5 78zM996 0h-102q-37 0 -91 21.5t-59 21.5q-6 0 -29.5 -20.5t-90.5 -20.5q-37 0 -104.5 13.5t-108.5 13.5q-119 0 -211 -76q-80 -94 -158 -188q-10 33 0 41q0 115 96.5 221
t177 133.5t139 36t76.5 12.5q-116 65 -195 121.5t-79 175.5q0 76 47 131t123 55q51 0 77.5 -39t26.5 -67q0 -66 -56 -75t-56 -26q0 -49 174 -94t219 -176q55 -18 145 -18h39v-197z" />
    <glyph glyph-name="rehisolated" unicode="&#x631;" horiz-adv-x="917" arabic-form="isolated" 
d="M-178 -565q-272 0 -520 167t-278 416l32 -26q119 -196 286 -310t431 -114q141 0 270 33t216 92.5t196.5 209.5t109.5 320q0 29 -2 48.5t-97 58.5t-95 133q0 151 118 151q95 0 164.5 -112.5t69.5 -263.5q0 -160 -104.5 -344t-188.5 -260q-119 -88 -269.5 -143.5
t-338.5 -55.5z" />
    <glyph glyph-name="rehfinal" unicode="&#x631;" horiz-adv-x="800" arabic-form="final" 
d="M827 0h-82q-96 0 -140 -140t-161.5 -304t-367.5 -282.5t-426 -118.5q-409 0 -601.5 205.5t-218.5 381t-26 199.5v41v24t5 10q22 -99 51.5 -208t87 -203t243 -192.5t433.5 -98.5q141 0 334.5 97.5t326.5 251.5q16 26 90 170.5t74 184.5q0 11 -38 51t-38 117
q0 64 33.5 91.5t91.5 27.5q69 0 109 -54t77 -54h143v-197z" />
    <glyph glyph-name="zainisolated" unicode="&#x632;" horiz-adv-x="917" arabic-form="isolated" 
d="M111 954q0 35 31.5 67t82.5 32q99 0 99 -99q0 -41 -31 -77.5t-84 -36.5q-29 0 -63.5 36.5t-34.5 77.5zM-178 -565q-272 0 -520 167t-278 416l32 -26q119 -196 286 -310t431 -114q141 0 270 33t216 92.5t196.5 209.5t109.5 320q0 29 -2 48.5t-97 58.5t-95 133
q0 151 118 151q95 0 164.5 -112.5t69.5 -263.5q0 -160 -104.5 -344t-188.5 -260q-119 -88 -269.5 -143.5t-338.5 -55.5z" />
    <glyph glyph-name="zainfinal" unicode="&#x632;" horiz-adv-x="800" arabic-form="final" 
d="M133 635q0 35 32 66.5t83 31.5q53 0 75.5 -24.5t22.5 -73.5q0 -43 -29.5 -79t-85.5 -36q-28 0 -63 37t-35 78zM827 0h-82q-96 0 -140 -140t-161.5 -304t-367.5 -282.5t-426 -118.5q-409 0 -601.5 205.5t-218.5 381t-26 199.5v41v24t5 10q22 -99 51.5 -208t87 -203
t243 -192.5t433.5 -98.5q141 0 334.5 97.5t326.5 251.5q16 26 90 170.5t74 184.5q0 11 -38 51t-38 117q0 64 33.5 91.5t91.5 27.5q69 0 109 -54t77 -54h143v-197z" />
    <glyph glyph-name="seenisolated" unicode="&#x633;" horiz-adv-x="972" arabic-form="isolated" 
d="M451 162q43 0 73.5 78.5t50.5 78.5q41 -75 80 -127.5t84 -41.5q21 4 26 31.5t5 41.5v22t-2 15q0 31 -10 37t-60 6q-41 0 -73.5 33t-32.5 65q0 41 46 91.5t107 50.5q39 0 107 -101.5t68 -187.5q2 -16 2 -29q0 -86 -45.5 -168.5t-180.5 -107.5q-20 -4 -57 45t-55 63
q-23 -20 -54.5 -56.5t-78.5 -47.5q-35 31 -66 57q-31 19 -59 37q8 -63 -103.5 -308.5t-314 -453.5t-469.5 -208q-389 0 -630.5 128t-348 323.5t-106.5 404.5h35q0 -268 252 -464t761 -196q357 0 543 277.5t186 580.5q0 49 -4 78t-5 45t-1 25q0 69 27.5 99t70.5 30
q66 0 71 -35t19.5 -62.5t32.5 -58.5q18 -39 44 -64.5t65 -25.5z" />
    <glyph glyph-name="seenfinal" unicode="&#x633;" horiz-adv-x="1218" arabic-form="final" 
d="M1260 0q-31 -2 -93.5 -4t-103.5 -2q-45 0 -86 34.5t-76 67.5q-35 -41 -57.5 -75.5t-42.5 -34.5q-19 0 -53.5 24.5t-85.5 67.5q0 -37 -9.5 -63.5t-30 -38.5t-40.5 -12q-43 6 -59.5 7t-18.5 -3q-2 -70 -28.5 -173.5t-116 -254t-303 -303t-443.5 -152.5q-270 0 -479 142.5
t-209 377.5q8 84 28.5 173t82.5 128q-23 -78 -34 -129t-11 -88q0 -143 170 -290.5t442 -147.5q168 0 307 91t218 186.5t116 153.5t55 147.5t18 156.5q0 43 -13 69.5t-13 102.5q0 71 25.5 97t86.5 26q50 0 87.5 -40t74.5 -79q15 12 76 84.5t78 72.5q24 0 56 -52t65 -87
q20 19 65 83.5t74 64.5q43 -49 84 -87t74 -38q8 -2 44 -4t38 -2h27h14v-197z" />
    <glyph glyph-name="seeninitial" unicode="&#x633;" horiz-adv-x="933" arabic-form="initial" 
d="M631 -18q-21 -4 -57.5 45t-55.5 63q-12 -10 -48 -47t-85 -57q-2 0 -52 52t-69 52q-24 0 -53 -43t-45 -47h-200v197h52q150 0 181.5 89t81.5 83q20 -4 53 -68.5t61 -101.5q15 14 51.5 83.5t63.5 69.5q41 -76 80 -128t84 -42q20 4 25.5 32t5.5 42v21.5t-3 15.5q0 31 -10 37
t-59 6q-41 0 -74 32.5t-33 65.5q0 41 46 91t108 50q39 0 106.5 -101t67.5 -187q2 -17 2 -29q0 -86 -45 -169t-180 -107z" />
    <glyph glyph-name="seenmedial" unicode="&#x633;" horiz-adv-x="993" arabic-form="medial" 
d="M1022 0h-25q-20 -2 -32 -2q-35 0 -78 21.5t-123 93.5q-29 -62 -45.5 -90.5t-63.5 -28.5q-24 0 -63 31.5t-74 62.5q-31 -27 -53.5 -58.5t-65.5 -41.5q-22 26 -57 65t-51 39q-21 0 -46.5 -32.5t-51 -43t-56.5 -15.5t-63 -5q-47 4 -56 4l-48 2l2 195h89q138 0 171.5 75.5
t78.5 69.5q19 -2 42.5 -55.5t52.5 -91.5q16 14 49.5 71.5t60.5 57.5q12 0 49 -41t70 -68q43 55 68.5 87t50.5 32q22 0 81.5 -61.5t106.5 -75.5h80v-197z" />
    <glyph glyph-name="sheenisolated" unicode="&#x634;" horiz-adv-x="1005" arabic-form="isolated" 
d="M106 772q0 35 32 66.5t83 31.5q98 0 98 -98q0 -41 -30.5 -78t-83.5 -37q-29 0 -64 37t-35 78zM412 805q0 37 32.5 67.5t81.5 30.5q56 0 77.5 -27.5t21.5 -70.5q0 -60 -40 -87.5t-91 -27.5q-29 10 -55.5 31.5t-26.5 83.5zM244 1047q0 34 31.5 66t82.5 32q99 0 99 -98
q0 -41 -31 -78t-84 -37q-29 0 -63.5 37t-34.5 78zM451 162q43 0 73.5 78.5t50.5 78.5q41 -75 80 -127.5t84 -41.5q21 4 26 31.5t5 41.5v22t-2 15q0 31 -10 37t-60 6q-41 0 -73.5 33t-32.5 65q0 41 46 91.5t107 50.5q39 0 107 -101.5t68 -187.5q2 -16 2 -29
q0 -86 -45.5 -168.5t-180.5 -107.5q-20 -4 -57 45t-55 63q-23 -20 -54.5 -56.5t-78.5 -47.5q-35 31 -66 57q-31 19 -59 37q8 -63 -103.5 -308.5t-314 -453.5t-469.5 -208q-389 0 -630.5 128t-348 323.5t-106.5 404.5h35q0 -268 252 -464t761 -196q357 0 543 277.5t186 580.5
q0 49 -4 78t-5 45t-1 25q0 69 27.5 99t70.5 30q66 0 71 -35t19.5 -62.5t32.5 -58.5q18 -39 44 -64.5t65 -25.5z" />
    <glyph glyph-name="sheenfinal" unicode="&#x634;" horiz-adv-x="1218" arabic-form="final" 
d="M424 752q0 34 31.5 66t83.5 32q98 0 98 -98q0 -41 -31 -78t-84 -37q-28 0 -63 37t-35 78zM729 784q0 35 32 67t83 32q57 0 77.5 -28t20.5 -71q0 -59 -41 -86.5t-90 -27.5q-29 10 -55.5 31.5t-26.5 82.5zM559 1024q0 35 32 66.5t83 31.5q53 0 75.5 -24.5t22.5 -73.5
q0 -43 -29.5 -79t-85.5 -36q-28 0 -63 37t-35 78zM1260 0q-31 -2 -93.5 -4t-103.5 -2q-45 0 -86 34.5t-76 67.5q-35 -41 -57.5 -75.5t-42.5 -34.5q-19 0 -53.5 24.5t-85.5 67.5q0 -37 -9.5 -63.5t-30 -38.5t-40.5 -12q-43 6 -59.5 7t-18.5 -3q-2 -70 -28.5 -173.5t-116 -254
t-303 -303t-443.5 -152.5q-270 0 -479 142.5t-209 377.5q8 84 28.5 173t82.5 128q-23 -78 -34 -129t-11 -88q0 -143 170 -290.5t442 -147.5q168 0 307 91t218 186.5t116 153.5t55 147.5t18 156.5q0 43 -13 69.5t-13 102.5q0 71 25.5 97t86.5 26q50 0 87.5 -40t74.5 -79
q15 12 76 84.5t78 72.5q24 0 56 -52t65 -87q20 19 65 83.5t74 64.5q43 -49 84 -87t74 -38q8 -2 44 -4t38 -2h27h14v-197z" />
    <glyph glyph-name="sheeninitial" unicode="&#x634;" horiz-adv-x="933" arabic-form="initial" 
d="M106 772q0 35 32 66.5t83 31.5q98 0 98 -98q0 -41 -30.5 -78t-83.5 -37q-29 0 -64 37t-35 78zM412 805q0 37 32.5 67.5t81.5 30.5q56 0 77.5 -27.5t21.5 -70.5q0 -60 -40 -87.5t-91 -27.5q-29 10 -55.5 31.5t-26.5 83.5zM244 1047q0 34 31.5 66t82.5 32q99 0 99 -98
q0 -41 -31 -78t-84 -37q-29 0 -63.5 37t-34.5 78zM631 -18q-21 -4 -57.5 45t-55.5 63q-12 -10 -48 -47t-85 -57q-2 0 -52 52t-69 52q-24 0 -53 -43t-45 -47h-200v197h52q150 0 181.5 89t81.5 83q20 -4 53 -68.5t61 -101.5q15 14 51.5 83.5t63.5 69.5q41 -76 80 -128t84 -42
q20 4 25.5 32t5.5 42v21.5t-3 15.5q0 31 -10 37t-59 6q-41 0 -74 32.5t-33 65.5q0 41 46 91t108 50q39 0 106.5 -101t67.5 -187q2 -17 2 -29q0 -86 -45 -169t-180 -107z" />
    <glyph glyph-name="sheenmedial" unicode="&#x634;" horiz-adv-x="993" arabic-form="medial" 
d="M270 772q0 35 32 66.5t83 31.5q98 0 98 -98q0 -41 -30.5 -78t-83.5 -37q-29 0 -64 37t-35 78zM575 805q0 37 33 67.5t82 30.5q55 0 76.5 -27.5t21.5 -70.5q0 -60 -39.5 -87.5t-91.5 -27.5q-28 10 -55 31.5t-27 83.5zM408 1047q0 34 31.5 66t82.5 32q99 0 99 -98
q0 -41 -31 -78t-84 -37q-29 0 -63.5 37t-34.5 78zM1022 0h-25q-20 -2 -32 -2q-35 0 -78 21.5t-123 93.5q-29 -62 -45.5 -90.5t-63.5 -28.5q-24 0 -63 31.5t-74 62.5q-31 -27 -53.5 -58.5t-65.5 -41.5q-22 26 -57 65t-51 39q-21 0 -46.5 -32.5t-51 -43t-56.5 -15.5t-63 -5
q-47 4 -56 4l-48 2l2 195h89q138 0 171.5 75.5t78.5 69.5q19 -2 42.5 -55.5t52.5 -91.5q16 14 49.5 71.5t60.5 57.5q12 0 49 -41t70 -68q43 55 68.5 87t50.5 32q22 0 81.5 -61.5t106.5 -75.5h80v-197z" />
    <glyph glyph-name="sadisolated" unicode="&#x635;" horiz-adv-x="1736" arabic-form="isolated" 
d="M1403 209q-31 80 -132.5 143.5t-168 71.5t-86.5 8q-103 0 -219.5 -66.5t-192.5 -183.5q51 -16 98.5 -22t176.5 -6q86 0 261 17t263 38zM-1341 -448q-29 74 -48.5 153.5t-19.5 153.5q0 43 5.5 58.5t29.5 39.5q11 -114 66 -234t110 -200q54 -106 197 -192t322 -86
q258 0 457.5 148.5t317 339t117.5 269.5q0 21 -27.5 71t-27.5 81q0 41 26.5 70.5t81.5 29.5q49 0 64.5 -11.5t62.5 -52.5q152 158 303 318q181 117 426 117q207 0 352.5 -149.5t145.5 -356.5q0 -60 -14.5 -111t-57.5 -51q-16 0 -55 26.5t-82 26.5t-81 -18t-261 -18
q-199 0 -347.5 18t-211.5 18q-117 0 -141.5 -154.5t-171 -375.5t-398 -318t-452.5 -97q-174 0 -290.5 58t-276.5 218z" />
    <glyph glyph-name="sadfinal" unicode="&#x635;" horiz-adv-x="1693" arabic-form="final" 
d="M1403 209q-31 80 -132.5 143.5t-168 71.5t-86.5 8q-103 0 -219.5 -66.5t-192.5 -183.5q51 -16 98.5 -22t176.5 -6q86 0 261 17t263 38zM1720 0h-116q-2 0 -20.5 -28.5t-35.5 -28.5q-16 0 -56 33.5t-81 33.5q-43 0 -81 -18t-261 -18q-199 0 -347.5 18t-211.5 18
q-117 0 -141.5 -154.5t-171 -375.5t-398 -318t-452.5 -97q-174 0 -290.5 58t-276.5 218l-121 211q-29 74 -48.5 153.5t-19.5 153.5q0 43 5.5 58.5t29.5 39.5q11 -114 66 -234t110 -200q54 -106 197 -192t322 -86q258 0 457.5 148.5t317 339t117.5 269.5q0 21 -27.5 71
t-27.5 81q0 41 26.5 70.5t81.5 29.5q49 0 64.5 -11.5t62.5 -52.5q152 158 303 318q181 117 426 117q187 0 326 -124t166 -304h106v-197z" />
    <glyph glyph-name="sadinitial" unicode="&#x635;" horiz-adv-x="1550" arabic-form="initial" 
d="M1253 242q-30 80 -131.5 143.5t-168 71.5t-87.5 8q-102 0 -219 -66.5t-190 -183.5q35 -10 91 -16t183 -6q105 0 268.5 13t253.5 36zM1393 -79q-50 0 -80.5 61t-67.5 61q-43 0 -71.5 -18.5t-253.5 -18.5q-168 0 -248 5t-137 9q-39 0 -75 -6t-61.5 -11t-63.5 -39.5
t-87 -34.5q-51 0 -73.5 34.5t-37.5 34.5h-57h-37h-27q-32 0 -42 2v197l98 -2q0 86 12 128t43 42q74 0 104 -150q64 76 150 178.5t229.5 183t362.5 80.5q194 0 336.5 -132t158.5 -328q-2 -93 -14 -184.5t-61 -91.5z" />
    <glyph glyph-name="sadmedial" unicode="&#x635;" horiz-adv-x="1550" arabic-form="medial" 
d="M1253 242q-30 80 -131.5 143.5t-168 71.5t-87.5 8q-102 0 -219 -66.5t-190 -183.5q35 -10 91 -16t183 -6q105 0 268.5 13t253.5 36zM1579 197v-203q2 2 -4 4t-70 2q-51 0 -63 -39.5t-49 -39.5q-50 0 -80.5 61t-67.5 61q-43 0 -71.5 -18.5t-253.5 -18.5q-168 0 -248 5
t-137 9q-39 0 -75 -6t-61.5 -11t-63.5 -39.5t-87 -34.5q-51 0 -73.5 34.5t-37.5 34.5h-57h-37h-27q-32 0 -42 2v197l98 -2q0 86 12 128t43 42q74 0 104 -150q64 76 150 178.5t229.5 183t362.5 80.5q194 0 336.5 -132t158.5 -328h111z" />
    <glyph glyph-name="dadisolated" unicode="&#x636;" horiz-adv-x="1736" arabic-form="isolated" 
d="M588 969q0 35 31.5 66.5t82.5 31.5q99 0 99 -98q0 -41 -31 -78t-84 -37q-29 0 -63.5 37t-34.5 78zM1403 209q-31 80 -132.5 143.5t-168 71.5t-86.5 8q-103 0 -219.5 -66.5t-192.5 -183.5q51 -16 98.5 -22t176.5 -6q86 0 261 17t263 38zM-1341 -448q-29 74 -48.5 153.5
t-19.5 153.5q0 43 5.5 58.5t29.5 39.5q11 -114 66 -234t110 -200q54 -106 197 -192t322 -86q258 0 457.5 148.5t317 339t117.5 269.5q0 21 -27.5 71t-27.5 81q0 41 26.5 70.5t81.5 29.5q49 0 64.5 -11.5t62.5 -52.5q152 158 303 318q181 117 426 117q207 0 352.5 -149.5
t145.5 -356.5q0 -60 -14.5 -111t-57.5 -51q-16 0 -55 26.5t-82 26.5t-81 -18t-261 -18q-199 0 -347.5 18t-211.5 18q-117 0 -141.5 -154.5t-171 -375.5t-398 -318t-452.5 -97q-174 0 -290.5 58t-276.5 218z" />
    <glyph glyph-name="dadfinal" unicode="&#x636;" horiz-adv-x="1693" arabic-form="final" 
d="M543 981q0 35 31.5 66.5t82.5 31.5q54 0 76.5 -24.5t22.5 -73.5q0 -43 -30 -79t-85 -36q-29 0 -63.5 37t-34.5 78zM1403 209q-31 80 -132.5 143.5t-168 71.5t-86.5 8q-103 0 -219.5 -66.5t-192.5 -183.5q51 -16 98.5 -22t176.5 -6q86 0 261 17t263 38zM1720 0h-116
q-2 0 -20.5 -28.5t-35.5 -28.5q-16 0 -56 33.5t-81 33.5q-43 0 -81 -18t-261 -18q-199 0 -347.5 18t-211.5 18q-117 0 -141.5 -154.5t-171 -375.5t-398 -318t-452.5 -97q-174 0 -290.5 58t-276.5 218l-121 211q-29 74 -48.5 153.5t-19.5 153.5q0 43 5.5 58.5t29.5 39.5
q11 -114 66 -234t110 -200q54 -106 197 -192t322 -86q258 0 457.5 148.5t317 339t117.5 269.5q0 21 -27.5 71t-27.5 81q0 41 26.5 70.5t81.5 29.5q49 0 64.5 -11.5t62.5 -52.5q152 158 303 318q181 117 426 117q187 0 326 -124t166 -304h106v-197z" />
    <glyph glyph-name="dadinitial" unicode="&#x636;" horiz-adv-x="1550" arabic-form="initial" 
d="M559 1024q0 35 32 66.5t83 31.5q53 0 75.5 -24.5t22.5 -73.5q0 -43 -29.5 -79t-85.5 -36q-28 0 -63 37t-35 78zM1253 242q-30 80 -131.5 143.5t-168 71.5t-87.5 8q-102 0 -219 -66.5t-190 -183.5q35 -10 91 -16t183 -6q105 0 268.5 13t253.5 36zM1393 -79q-50 0 -80.5 61
t-67.5 61q-43 0 -71.5 -18.5t-253.5 -18.5q-168 0 -248 5t-137 9q-39 0 -75 -6t-61.5 -11t-63.5 -39.5t-87 -34.5q-51 0 -73.5 34.5t-37.5 34.5h-57h-37h-27q-32 0 -42 2v197l98 -2q0 86 12 128t43 42q74 0 104 -150q64 76 150 178.5t229.5 183t362.5 80.5q194 0 336.5 -132
t158.5 -328q-2 -93 -14 -184.5t-61 -91.5z" />
    <glyph glyph-name="dadmedial" unicode="&#x636;" horiz-adv-x="1550" arabic-form="medial" 
d="M653 1090q0 34 32 66t83 32q57 0 77.5 -27.5t20.5 -70.5q0 -60 -41 -87.5t-90 -27.5q-28 10 -55 31.5t-27 83.5zM1253 242q-30 80 -131.5 143.5t-168 71.5t-87.5 8q-102 0 -219 -66.5t-190 -183.5q35 -10 91 -16t183 -6q105 0 268.5 13t253.5 36zM1579 197v-203q2 2 -4 4
t-70 2q-51 0 -63 -39.5t-49 -39.5q-50 0 -80.5 61t-67.5 61q-43 0 -71.5 -18.5t-253.5 -18.5q-168 0 -248 5t-137 9q-39 0 -75 -6t-61.5 -11t-63.5 -39.5t-87 -34.5q-51 0 -73.5 34.5t-37.5 34.5h-57h-37h-27q-32 0 -42 2v197l98 -2q0 86 12 128t43 42q74 0 104 -150
q64 76 150 178.5t229.5 183t362.5 80.5q194 0 336.5 -132t158.5 -328h111z" />
    <glyph glyph-name="tahisolated" unicode="&#x637;" horiz-adv-x="1566" arabic-form="isolated" 
d="M991 637q166 -41 276.5 -179.5t110.5 -312.5q0 -79 -18.5 -121t-50.5 -42q-15 0 -56 24.5t-84 24.5q-49 0 -147 -22.5t-197 -22.5q-159 0 -307.5 18.5t-236.5 18.5q-31 0 -40.5 -4.5t-17.5 -33t-31.5 -50t-43 -24.5t-35.5 -3q-56 0 -60 44t-8 55t-20 11q-19 0 -34 -7
t-23 -11v197h165q174 245 327.5 347.5t379.5 102.5q71 207 93.5 275.5t28 102.5t5.5 56q0 41 -16.5 76t-14.5 49q16 72 83.5 118t135.5 46q25 0 50.5 -9t36.5 -31.5t11 -53.5q0 -16 -2 -31.5t-10 -30.5q-33 -40 -64.5 -85.5t-75.5 -161t-65.5 -173t-44.5 -157.5zM760 457
q-101 0 -211.5 -69t-183.5 -181q55 -14 102 -20.5t172 -6.5q119 0 274.5 14.5t247.5 41.5q-33 75 -104.5 139.5t-161.5 64.5q-66 -92 -179.5 -162.5t-269.5 -70.5q123 74 191 116t123 134z" />
    <glyph glyph-name="tahfinal" unicode="&#x637;" horiz-adv-x="1431" arabic-form="final" 
d="M772 457q-100 0 -211.5 -67.5t-181.5 -182.5q51 -14 100 -20.5t174 -6.5q150 0 292 6.5t231 26.5q-31 82 -104 154.5t-165 72.5q-61 -92 -175 -162.5t-271 -70.5q102 63 207 129q59 45 104 121zM1444 0q-14 0 -43 -4t-31 -4q-22 0 -49 8q-16 0 -55 18.5t-82 18.5
t-81 -18.5t-261 -18.5q-203 0 -355.5 15.5t-197.5 15.5q-17 0 -26 -9.5t-18 -42t-35 -49t-56 -20.5q-62 -8 -62 45q0 27 12.5 61.5t24.5 63.5q2 10 -29.5 20.5t-46 19.5t-27 39.5t-12.5 63.5q0 39 15.5 69t44.5 36q24 4 55 -36t82 -40q106 199 262 297t381 98
q41 123 57.5 189.5t26.5 144.5t10 100q0 39 -17.5 75t-15.5 50q19 72 86.5 118t135.5 46q24 0 49.5 -9t37 -31.5t11.5 -53.5q0 -16 -2 -31.5t-10 -30.5q-45 -51 -75 -95t-61.5 -149.5t-47 -176t-33.5 -156.5q153 -39 261.5 -162t123.5 -278h53v-197z" />
    <glyph glyph-name="tahinitial" unicode="&#x637;" horiz-adv-x="1431" arabic-form="initial" 
d="M772 457q-100 0 -211.5 -67.5t-181.5 -182.5q51 -14 100 -20.5t174 -6.5q150 0 292 6.5t231 26.5q-31 82 -104 154.5t-165 72.5q-61 -92 -175 -162.5t-271 -70.5q102 63 207 129q59 45 104 121zM1321 0q-16 0 -55 18.5t-82 18.5t-81 -18.5t-261 -18.5q-203 0 -355.5 15.5
t-197.5 15.5q-17 0 -26 -9.5t-18 -42t-35 -49t-56 -20.5q-62 -8 -62 45q0 27 12.5 61.5t24.5 63.5q2 10 -29.5 20.5t-46 19.5t-27 39.5t-12.5 63.5q0 39 15.5 69t44.5 36q24 4 55 -36t82 -40q106 199 262 297t381 98q41 123 57.5 189.5t26.5 144.5t10 100q0 39 -17.5 75
t-15.5 50q19 72 86.5 118t135.5 46q24 0 49.5 -9t37 -31.5t11.5 -53.5q0 -16 -2 -31.5t-10 -30.5q-45 -51 -75 -95t-61.5 -149.5t-47 -176t-33.5 -156.5q153 -39 261.5 -162t123.5 -278q-5 -72 -17 -140.5t-53 -56.5z" />
    <glyph glyph-name="tahmedial" unicode="&#x637;" horiz-adv-x="1439" arabic-form="medial" 
d="M760 457q-101 0 -211.5 -69t-183.5 -181q55 -14 102 -20.5t172 -6.5q149 0 291.5 6.5t230.5 26.5q-31 80 -103.5 153.5t-162.5 73.5q-66 -92 -179.5 -162.5t-269.5 -70.5q123 74 191 116t123 134zM1473 0h-164q-15 0 -56 18.5t-84 18.5t-79.5 -18.5t-260.5 -18.5h-142
t-140 -2q-33 0 -102.5 12.5t-157.5 12.5q-35 0 -48.5 -9.5t-20.5 -37t-28.5 -45t-41 -20.5t-35.5 -3q-56 0 -60 44t-8 55t-20 11q-19 0 -34 -7t-23 -11v197l165 2q152 161 303 323q180 125 404 125q41 123 57 189.5t26.5 144.5t10.5 100q0 41 -16.5 76t-14.5 49
q17 72 84.5 118t134.5 46q25 0 50.5 -9t37 -31.5t11.5 -53.5q0 -16 -2 -31.5t-11 -30.5q-45 -51 -74.5 -95t-59.5 -144.5t-47 -176t-36 -161.5q156 -39 263.5 -161t123.5 -279h95v-197z" />
    <glyph glyph-name="zahisolated" unicode="&#x638;" horiz-adv-x="1624" arabic-form="isolated" 
d="M1247 870q0 35 32 67t83 32q53 0 75.5 -24.5t22.5 -74.5q0 -43 -29.5 -78.5t-84.5 -35.5q-29 0 -64 36.5t-35 77.5zM991 637q166 -41 276.5 -179.5t110.5 -312.5q0 -79 -18.5 -121t-50.5 -42q-15 0 -56 24.5t-84 24.5q-49 0 -147 -22.5t-197 -22.5q-159 0 -307.5 18.5
t-236.5 18.5q-31 0 -40.5 -4.5t-17.5 -33t-31.5 -50t-43 -24.5t-35.5 -3q-56 0 -60 44t-8 55t-20 11q-19 0 -34 -7t-23 -11v197h165q174 245 327.5 347.5t379.5 102.5q71 207 93.5 275.5t28 102.5t5.5 56q0 41 -16.5 76t-14.5 49q16 72 83.5 118t135.5 46q25 0 50.5 -9
t36.5 -31.5t11 -53.5q0 -16 -2 -31.5t-10 -30.5q-33 -40 -64.5 -85.5t-75.5 -161t-65.5 -173t-44.5 -157.5zM760 457q-101 0 -211.5 -69t-183.5 -181q55 -14 102 -20.5t172 -6.5q119 0 274.5 14.5t247.5 41.5q-33 75 -104.5 139.5t-161.5 64.5q-66 -92 -179.5 -162.5
t-269.5 -70.5q123 74 191 116t123 134z" />
    <glyph glyph-name="zahfinal" unicode="&#x638;" horiz-adv-x="1431" arabic-form="final" 
d="M1161 817q0 35 32 66.5t83 31.5q98 0 98 -98q0 -41 -30.5 -78t-83.5 -37q-29 0 -64 37t-35 78zM772 457q-100 0 -211.5 -67.5t-181.5 -182.5q51 -14 100 -20.5t174 -6.5q150 0 292 6.5t231 26.5q-31 82 -104 154.5t-165 72.5q-61 -92 -175 -162.5t-271 -70.5
q102 63 207 129q59 45 104 121zM1444 0q-14 0 -43 -4t-31 -4q-22 0 -49 8q-16 0 -55 18.5t-82 18.5t-81 -18.5t-261 -18.5q-203 0 -355.5 15.5t-197.5 15.5q-17 0 -26 -9.5t-18 -42t-35 -49t-56 -20.5q-62 -8 -62 45q0 27 12.5 61.5t24.5 63.5q2 10 -29.5 20.5t-46 19.5
t-27 39.5t-12.5 63.5q0 39 15.5 69t44.5 36q24 4 55 -36t82 -40q106 199 262 297t381 98q41 123 57.5 189.5t26.5 144.5t10 100q0 39 -17.5 75t-15.5 50q19 72 86.5 118t135.5 46q24 0 49.5 -9t37 -31.5t11.5 -53.5q0 -16 -2 -31.5t-10 -30.5q-45 -51 -75 -95t-61.5 -149.5
t-47 -176t-33.5 -156.5q153 -39 261.5 -162t123.5 -278h53v-197z" />
    <glyph glyph-name="zahinitial" unicode="&#x638;" horiz-adv-x="1366" arabic-form="initial" 
d="M1128 793q0 34 32 66t83 32q98 0 98 -98q0 -41 -30.5 -78t-83.5 -37q-29 0 -64 37t-35 78zM772 457q-100 0 -211.5 -67.5t-181.5 -182.5q51 -14 100 -20.5t174 -6.5q150 0 292 6.5t231 26.5q-31 82 -104 154.5t-165 72.5q-61 -92 -175 -162.5t-271 -70.5q102 63 207 129
q59 45 104 121zM1321 0q-16 0 -55 18.5t-82 18.5t-81 -18.5t-261 -18.5q-203 0 -355.5 15.5t-197.5 15.5q-17 0 -26 -9.5t-18 -42t-35 -49t-56 -20.5q-62 -8 -62 45q0 27 12.5 61.5t24.5 63.5q2 10 -29.5 20.5t-46 19.5t-27 39.5t-12.5 63.5q0 39 15.5 69t44.5 36
q24 4 55 -36t82 -40q106 199 262 297t381 98q41 123 57.5 189.5t26.5 144.5t10 100q0 39 -17.5 75t-15.5 50q19 72 86.5 118t135.5 46q24 0 49.5 -9t37 -31.5t11.5 -53.5q0 -16 -2 -31.5t-10 -30.5q-45 -51 -75 -95t-61.5 -149.5t-47 -176t-33.5 -156.5q153 -39 261.5 -162
t123.5 -278q-5 -72 -17 -140.5t-53 -56.5z" />
    <glyph glyph-name="zahmedial" unicode="&#x638;" horiz-adv-x="1439" arabic-form="medial" 
d="M1133 827q0 35 31.5 67t82.5 32q58 0 78.5 -28t20.5 -71q0 -59 -41 -86.5t-91 -27.5q-28 10 -54.5 31.5t-26.5 82.5zM760 457q-101 0 -211.5 -69t-183.5 -181q55 -14 102 -20.5t172 -6.5q149 0 291.5 6.5t230.5 26.5q-31 80 -103.5 153.5t-162.5 73.5
q-66 -92 -179.5 -162.5t-269.5 -70.5q123 74 191 116t123 134zM1473 0h-164q-15 0 -56 18.5t-84 18.5t-79.5 -18.5t-260.5 -18.5h-142t-140 -2q-33 0 -102.5 12.5t-157.5 12.5q-35 0 -48.5 -9.5t-20.5 -37t-28.5 -45t-41 -20.5t-35.5 -3q-56 0 -60 44t-8 55t-20 11
q-19 0 -34 -7t-23 -11v197l165 2q152 161 303 323q180 125 404 125q41 123 57 189.5t26.5 144.5t10.5 100q0 41 -16.5 76t-14.5 49q17 72 84.5 118t134.5 46q25 0 50.5 -9t37 -31.5t11.5 -53.5q0 -16 -2 -31.5t-11 -30.5q-45 -51 -74.5 -95t-59.5 -144.5t-47 -176
t-36 -161.5q156 -39 263.5 -161t123.5 -279h95v-197z" />
    <glyph glyph-name="ainisolated" unicode="&#x639;" horiz-adv-x="1441" arabic-form="isolated" 
d="M767 -14q-61 0 -113.5 1t-97.5 1q-96 0 -138 -10t-126 -53q-47 -49 -94 -118t-47 -169q0 -35 18 -97.5t79.5 -165t166.5 -224.5l-45 -37q-160 149 -254 303.5t-94 269.5q0 123 56 222t151.5 162.5t167 88t128.5 24.5q35 -2 72 -4q-35 62 -70 123q-18 39 -18 107
q0 96 93 187t251 91q197 0 197 -164q0 -53 -39 -92t-109 -39q-43 0 -88 12.5t-76 47.5q0 -7 -2 -27t-2 -33q0 -18 11.5 -73.5t86 -104.5t164.5 -49q76 0 172.5 25.5t112.5 25.5q35 0 52.5 -26.5t17.5 -98.5q0 -69 -72 -92.5t-203 -23.5q-73 0 -190 5t-119 5z" />
    <glyph glyph-name="ainfinal" unicode="&#x639;" horiz-adv-x="1169" arabic-form="final" 
d="M625 242q-78 2 -151 14t-73 74q0 67 68 110q59 31 119 64q39 26 89 89.5t87 63.5q53 0 104.5 -65.5t81.5 -87.5q80 -39 133.5 -74t53.5 -100q0 -62 -103 -82q-65 -8 -131 -17q25 -18 46.5 -27t37.5 -9q31 2 51 2h183v-197h-359q-10 0 -53 51t-57 51q-15 0 -47.5 -33.5
t-63.5 -68.5h-156q-147 -36 -238 -130.5t-91 -235.5v-51q6 -25 23.5 -114t193.5 -152.5t289 -102.5q-27 -6 -59 -12t-40 -4q-227 47 -369.5 145t-159 209t-16.5 147q0 191 131.5 334t325.5 164q43 0 67.5 8t82.5 37zM614 383q11 -16 70 -35.5t84 -19.5q33 0 76 11t65 34
q-16 18 -30 37q-84 59 -115 59q-35 0 -96.5 -38t-53.5 -48z" />
    <glyph glyph-name="aininitial" unicode="&#x639;" horiz-adv-x="1228" arabic-form="initial" 
d="M-32 197q10 -2 22 -3t20 -1q31 0 74 7t94 23q-51 96 -69.5 131t-18.5 99q0 96 94.5 187t249.5 91q197 0 197 -164q0 -53 -41 -92t-107 -39q-39 0 -89 13.5t-85 42.5v-17v-20q0 -43 13.5 -96.5t87 -100.5t168.5 -47q67 0 194 21.5t168 21.5q70 0 104.5 -27.5t34.5 -101.5
q0 -62 -31.5 -84.5t-91.5 -22.5q-32 0 -104 10.5t-80 10.5q-188 0 -337.5 -19.5t-170.5 -19.5h-296v197z" />
    <glyph glyph-name="ainmedial" unicode="&#x639;" horiz-adv-x="845" arabic-form="medial" 
d="M539 0h344v197h-197q-53 6 -72.5 18t-38.5 25q72 4 138.5 17t66.5 77q0 67 -59 108q-55 31 -109 62q-32 22 -82.5 87.5t-103.5 65.5q-39 0 -91 -64.5t-87 -88.5q-76 -39 -128 -72t-52 -98q0 -62 90 -80q61 -8 123 -14q-29 -15 -47.5 -27t-59.5 -16h-200v-197h315
q12 0 61 47t62 47q14 0 63 -47t64 -47zM426 498q12 0 24.5 -38t45 -45t60.5 -20.5t28 -21.5q0 -19 -65.5 -31t-98.5 -12q-62 6 -111 14t-49 25q0 12 41 26.5t65.5 20.5t33 44t26.5 38z" />
    <glyph glyph-name="ghainisolated" unicode="&#x63a;" horiz-adv-x="1441" arabic-form="isolated" 
d="M603 989q0 35 32 66.5t83 31.5q98 0 98 -98q0 -41 -30.5 -78t-84.5 -37q-28 0 -63 37t-35 78zM767 -14q-61 0 -113.5 1t-97.5 1q-96 0 -138 -10t-126 -53q-47 -49 -94 -118t-47 -169q0 -35 18 -97.5t79.5 -165t166.5 -224.5l-45 -37q-160 149 -254 303.5t-94 269.5
q0 123 56 222t151.5 162.5t167 88t128.5 24.5q35 -2 72 -4q-35 62 -70 123q-18 39 -18 107q0 96 93 187t251 91q197 0 197 -164q0 -53 -39 -92t-109 -39q-43 0 -88 12.5t-76 47.5q0 -7 -2 -27t-2 -33q0 -18 11.5 -73.5t86 -104.5t164.5 -49q76 0 172.5 25.5t112.5 25.5
q35 0 52.5 -26.5t17.5 -98.5q0 -69 -72 -92.5t-203 -23.5q-73 0 -190 5t-119 5z" />
    <glyph glyph-name="ghainfinal" unicode="&#x63a;" horiz-adv-x="1169" arabic-form="final" 
d="M604 1024q0 35 32 66.5t83 31.5q98 0 98 -98q0 -41 -30.5 -78t-84.5 -37q-28 0 -63 37t-35 78zM625 242q-78 2 -151 14t-73 74q0 67 68 110q59 31 119 64q39 26 89 89.5t87 63.5q53 0 104.5 -65.5t81.5 -87.5q80 -39 133.5 -74t53.5 -100q0 -62 -103 -82q-65 -8 -131 -17
q25 -18 46.5 -27t37.5 -9q31 2 51 2h183v-197h-359q-10 0 -53 51t-57 51q-15 0 -47.5 -33.5t-63.5 -68.5h-156q-147 -36 -238 -130.5t-91 -235.5v-51q6 -25 23.5 -114t193.5 -152.5t289 -102.5q-27 -6 -59 -12t-40 -4q-227 47 -369.5 145t-159 209t-16.5 147
q0 191 131.5 334t325.5 164q43 0 67.5 8t82.5 37zM614 383q11 -16 70 -35.5t84 -19.5q33 0 76 11t65 34q-16 18 -30 37q-84 59 -115 59q-35 0 -96.5 -38t-53.5 -48z" />
    <glyph glyph-name="ghaininitial" unicode="&#x63a;" horiz-adv-x="1228" arabic-form="initial" 
d="M172 1001q0 37 33 68t82 31q55 0 76.5 -28t21.5 -71q0 -59 -40 -86.5t-91 -27.5q-29 10 -55.5 31.5t-26.5 82.5zM-32 197q10 -2 22 -3t20 -1q31 0 74 7t94 23q-51 96 -69.5 131t-18.5 99q0 96 94.5 187t249.5 91q197 0 197 -164q0 -53 -41 -92t-107 -39q-39 0 -89 13.5
t-85 42.5v-17v-20q0 -43 13.5 -96.5t87 -100.5t168.5 -47q67 0 194 21.5t168 21.5q70 0 104.5 -27.5t34.5 -101.5q0 -62 -31.5 -84.5t-91.5 -22.5q-32 0 -104 10.5t-80 10.5q-188 0 -337.5 -19.5t-170.5 -19.5h-296v197z" />
    <glyph glyph-name="ghainmedial" unicode="&#x63a;" horiz-adv-x="845" arabic-form="medial" 
d="M326 948q0 35 31.5 67t82.5 32q58 0 78.5 -28t20.5 -71q0 -59 -41 -86.5t-90 -27.5q-29 10 -55.5 31.5t-26.5 82.5zM539 0h344v197h-197q-53 6 -72.5 18t-38.5 25q72 4 138.5 17t66.5 77q0 67 -59 108q-55 31 -109 62q-32 22 -82.5 87.5t-103.5 65.5q-39 0 -91 -64.5
t-87 -88.5q-76 -39 -128 -72t-52 -98q0 -62 90 -80q61 -8 123 -14q-29 -15 -47.5 -27t-59.5 -16h-200v-197h315q12 0 61 47t62 47q14 0 63 -47t64 -47zM426 498q12 0 24.5 -38t45 -45t60.5 -20.5t28 -21.5q0 -19 -65.5 -31t-98.5 -12q-62 6 -111 14t-49 25q0 12 41 26.5
t65.5 20.5t33 44t26.5 38z" />
    <glyph glyph-name="fehisolated" unicode="&#x641;" horiz-adv-x="2195" arabic-form="isolated" 
d="M1349 1210q-9 33 22 88.5t62.5 65.5t42.5 10q32 0 66 -22.5t43 -52t9 -48.5q0 -86 -57 -103.5t-72 -17.5q-36 0 -70 25t-46 55zM1840 498q-51 -9 -70.5 -10t-31.5 -1q-80 0 -134.5 30t-64.5 75t-10 76q0 108 59.5 212.5t123 125t93.5 20.5q80 0 153 -77t116 -206
q16 -30 30.5 -74t14.5 -118q0 -78 -29 -162q-20 -70 -87 -200t-92.5 -136t-41.5 -6q-12 0 -47 6t-60 6q-24 0 -222 -52t-396.5 -91.5t-351.5 -39.5q-332 0 -543 171.5t-211 470.5q0 189 46 285t117.5 211.5t112.5 183.5q68 98 127 113q-114 -176 -193 -345t-79 -337
q0 -291 179 -419t464 -128q141 0 408.5 64.5t537.5 132.5q39 0 70 -2.5t61 -4.5q76 0 76 62q0 102 -37 137t-88 27zM1717 723q0 -68 49 -57q25 4 47.5 8t22.5 16q0 8 -10 33t-31.5 46.5t-38.5 18.5q-16 0 -27.5 -19t-11.5 -46z" />
    <glyph glyph-name="fehfinal" unicode="&#x641;" horiz-adv-x="2443" arabic-form="final" 
d="M1970 850q0 -49 -28.5 -73.5t-69.5 -24.5q-121 0 -121 86q0 53 37 92t94 39q29 -13 58.5 -36.5t29.5 -82.5zM2464 0h-203q-33 0 -73 20.5t-52 16.5q-49 -23 -83 -37t-171 -14q-98 -4 -245.5 -8t-307.5 -4q-272 0 -397 8t-340 47t-379 144.5t-164 320.5q0 53 22.5 178
t86 214t192.5 230q49 60 101 121q81 86 145 86q-143 -154 -250.5 -306.5t-129 -268t-21.5 -166.5q0 -140 68.5 -208.5t153.5 -91t253 -55t338 -42t346 -9.5q205 0 317.5 4t194.5 10q47 0 47 25q0 6 -21.5 40t-32 54.5t-10.5 81.5q0 107 64.5 163t165.5 56q110 0 182 -97
t72 -208q-2 -14 -6.5 -31.5t-26.5 -76.5h164v-197zM2034 346q8 -33 22.5 -60.5t32.5 -27.5q10 0 24.5 18.5t23.5 38t9 41.5q0 13 -5 35.5t-18.5 42t-47.5 15.5q-27 -5 -37 -19t-10 -37q0 -10 2 -22.5t4 -24.5z" />
    <glyph glyph-name="fehinitial" unicode="&#x641;" horiz-adv-x="751" arabic-form="initial" 
d="M-26 197h61q65 10 135 10q78 0 137.5 -13.5t106.5 -50.5q24 78 24 103q0 30 -39 30q-120 0 -201 38t-81 130q0 109 83 226.5t146.5 127t79.5 9.5q90 0 150.5 -87t71.5 -173t13.5 -118t2.5 -54q0 -96 -15.5 -180t-51.5 -148.5t-54.5 -84t-53.5 -25.5q-49 -8 -98 16
q-57 33 -112 65q-35 -4 -112 -9t-149 -5l-44 -4v197zM51 1047q0 34 32 66t83 32q53 0 75.5 -24.5t22.5 -73.5q0 -43 -29.5 -79t-84.5 -36q-29 0 -64 37t-35 78zM326 535q-13 -31 -13 -52q0 -26 45 -47.5t80 -21.5q43 0 43 53q0 16 -5 43t-37.5 62.5t-51.5 35.5
q-14 0 -29.5 -16.5t-31.5 -56.5z" />
    <glyph glyph-name="fehmedial" unicode="&#x641;" horiz-adv-x="661" arabic-form="medial" 
d="M457 850q0 -49 -29 -73.5t-70 -24.5q-118 0 -118 86q0 55 35.5 93t95.5 38q28 -13 57 -35.5t29 -83.5zM694 0h-164q-34 0 -79 19.5t-56 15.5q-51 -17 -96 -26t-86 -9h-61h-178v197h202q-18 0 -37.5 64.5t-19.5 129.5q0 107 64.5 163t164.5 56q113 0 185.5 -90t72.5 -198
q-2 -19 -7 -45.5t-26 -79.5h121v-197zM309 328q6 -31 18.5 -56.5t32.5 -25.5q13 0 30.5 19.5t27.5 41t6 47.5q-6 31 -18.5 55.5t-55.5 18.5q-33 -4 -41 -19.5t-8 -31.5q0 -17 8 -49z" />
    <glyph glyph-name="qafisolated" unicode="&#x642;" horiz-adv-x="1058" arabic-form="isolated" 
d="M1001 203q-6 -58 -14 -118t-27.5 -110t-46.5 -128q-49 -100 -177 -277.5t-375.5 -296t-425.5 -118.5q-414 0 -604.5 204.5t-216 381t-25.5 200.5v41v24t4 10q23 -99 52.5 -208t87 -203t243 -192.5t432.5 -98.5q149 0 331.5 85t323.5 253q74 111 127 200t49 142
q-22 0 -80.5 -10t-87.5 -10q-94 0 -137 70.5t-43 242.5q0 198 94.5 290.5t194.5 92.5q143 0 232 -130t89 -337zM162 969q0 35 31.5 66.5t82.5 31.5q99 0 99 -98q0 -41 -31 -78t-84 -37q-29 0 -63.5 37t-34.5 78zM467 1001q0 37 32.5 68t82.5 31q55 0 76.5 -28t21.5 -71
q0 -59 -40 -86.5t-91 -27.5q-29 10 -55.5 31.5t-26.5 82.5zM596 246q12 -39 40 -53.5t66 -10.5q41 0 67 20.5t26 69.5q0 21 -5.5 62t-35 80t-62.5 39q-18 0 -42.5 -10.5t-42 -54.5t-17.5 -91q0 -29 6 -51z" />
    <glyph glyph-name="qaffinal" unicode="&#x642;" horiz-adv-x="1058" arabic-form="final" 
d="M993 195l119 2v-197h-143q-15 -53 -58 -150t-173 -277.5t-377.5 -299t-425.5 -118.5q-414 0 -604.5 204.5t-216 381t-25.5 200.5v41v24t4 10q23 -99 52.5 -208t87 -203t243 -192.5t432.5 -98.5q145 0 350 100.5t326 256.5q37 55 93 175t56 154q-20 0 -76.5 -13t-85.5 -13
q-94 0 -137 70.5t-43 242.5q0 198 94.5 290.5t194.5 92.5q141 0 227 -133.5t86 -341.5zM162 969q0 35 31.5 66.5t82.5 31.5q99 0 99 -98q0 -41 -31 -78t-84 -37q-29 0 -63.5 37t-34.5 78zM467 1001q0 37 32.5 68t82.5 31q55 0 76.5 -28t21.5 -71q0 -59 -40 -86.5t-91 -27.5
q-29 10 -55.5 31.5t-26.5 82.5zM580 244q10 -35 39.5 -42t91.5 -7q82 0 82 71q0 15 -17.5 71t-46.5 86t-72 30t-64.5 -46.5t-21.5 -101.5q0 -43 9 -61z" />
    <glyph glyph-name="qafinitial" unicode="&#x642;" horiz-adv-x="751" arabic-form="initial" 
d="M358 1079q0 35 32 67t83 32q57 0 77.5 -28t20.5 -71q0 -59 -41 -86.5t-90 -27.5q-28 10 -55 31.5t-27 82.5zM-26 197h61q65 10 135 10q78 0 137.5 -13.5t106.5 -50.5q24 78 24 103q0 30 -39 30q-120 0 -201 38t-81 130q0 109 83 226.5t146.5 127t79.5 9.5q90 0 150.5 -87
t71.5 -173t13.5 -118t2.5 -54q0 -96 -15.5 -180t-51.5 -148.5t-54.5 -84t-53.5 -25.5q-49 -8 -98 16q-57 33 -112 65q-35 -4 -112 -9t-149 -5l-44 -4v197zM51 1047q0 34 32 66t83 32q53 0 75.5 -24.5t22.5 -73.5q0 -43 -29.5 -79t-84.5 -36q-29 0 -64 37t-35 78zM326 535
q-13 -31 -13 -52q0 -26 45 -47.5t80 -21.5q43 0 43 53q0 16 -5 43t-37.5 62.5t-51.5 35.5q-14 0 -29.5 -16.5t-31.5 -56.5z" />
    <glyph glyph-name="qafmedial" unicode="&#x642;" horiz-adv-x="661" arabic-form="medial" 
d="M207 850q0 -51 -32 -74.5t-79 -23.5q-35 0 -60.5 26.5t-25.5 71.5q0 47 36 77.5t63 30.5q59 0 78.5 -31.5t19.5 -76.5zM457 850q0 -49 -29 -73.5t-70 -24.5q-118 0 -118 86q0 55 35.5 93t95.5 38q28 -13 57 -35.5t29 -83.5zM694 0h-164q-34 0 -79 19.5t-56 15.5
q-51 -17 -96 -26t-86 -9h-61h-178v197h202q-18 0 -37.5 64.5t-19.5 129.5q0 107 64.5 163t164.5 56q113 0 185.5 -90t72.5 -198q-2 -19 -7 -45.5t-26 -79.5h121v-197zM309 328q6 -31 18.5 -56.5t32.5 -25.5q13 0 30.5 19.5t27.5 41t6 47.5q-6 31 -18.5 55.5t-55.5 18.5
q-33 -4 -41 -19.5t-8 -31.5q0 -17 8 -49z" />
    <glyph glyph-name="kafisolated" unicode="&#x643;" horiz-adv-x="2228" arabic-form="isolated" 
d="M2077 0q-62 -55 -109 -55t-80 15.5t-51 39.5h-1863v197h1808h121q0 92 -39 136t-82 44h-1356q-147 0 -253.5 53t-106.5 176q0 152 195.5 322t404.5 170q102 0 150 -35t48 -129q0 -57 -18.5 -77.5t-81.5 -20.5q-66 0 -103.5 37.5t-70.5 37.5q-45 0 -186.5 -110.5
t-141.5 -194.5q0 -43 74 -54t299 -11h350h830q141 0 209.5 -105.5t77.5 -178.5t10.5 -87t1.5 -39q0 -43 -7.5 -78t-29.5 -53z" />
    <glyph glyph-name="arabickaffinal" unicode="&#x643;" horiz-adv-x="2283" arabic-form="final" 
d="M2308 0h-100q-25 -32 -50.5 -43.5t-58.5 -11.5q-47 0 -79.5 15.5t-51.5 39.5h-1646q-7 0 -60 -62t-88 -62q-53 0 -78 32q-10 39 -20 76q-25 39 -25 106q0 45 17.5 76t58.5 31h1786h121q0 92 -39 136t-82 44h-1356q-147 0 -253.5 53t-106.5 176q0 152 195.5 322t404.5 170
q102 0 150 -35t48 -129q0 -57 -18.5 -77.5t-81.5 -20.5q-66 0 -103.5 37.5t-70.5 37.5q-45 0 -186.5 -110.5t-141.5 -194.5q0 -43 74 -54t299 -11h350h830q145 0 220 -112t75 -232h67v-197z" />
    <glyph glyph-name="kafinitial" unicode="&#x643;" horiz-adv-x="2228" arabic-form="initial" 
d="M2077 0q-62 -55 -109 -55t-80 15.5t-51 39.5h-1863v197h1808h121q0 92 -39 136t-82 44h-1356q-147 0 -253.5 53t-106.5 176q0 152 195.5 322t404.5 170q102 0 150 -35t48 -129q0 -57 -18.5 -77.5t-81.5 -20.5q-66 0 -103.5 37.5t-70.5 37.5q-45 0 -186.5 -110.5
t-141.5 -194.5q0 -43 74 -54t299 -11h350h830q141 0 209.5 -105.5t77.5 -178.5t10.5 -87t1.5 -39q0 -43 -7.5 -78t-29.5 -53z" />
    <glyph glyph-name="kafmedial" unicode="&#x643;" horiz-adv-x="2177" arabic-form="medial" 
d="M2177 0h-100q-25 -32 -50.5 -43.5t-58.5 -11.5q-47 0 -80 15.5t-51 39.5h-1863v197h1808h121q0 92 -39 136t-82 44h-1356q-147 0 -253.5 53t-106.5 176q0 152 195.5 322t404.5 170q102 0 150 -35t48 -129q0 -57 -18.5 -77.5t-81.5 -20.5q-66 0 -103.5 37.5t-70.5 37.5
q-45 0 -186.5 -110.5t-141.5 -194.5q0 -43 74 -54t299 -11h350h830q145 0 219.5 -112t74.5 -232h68v-197z" />
    <glyph glyph-name="lamisolated" unicode="&#x644;" horiz-adv-x="1009" arabic-form="isolated" 
d="M653 18q0 160 -39 445t-75.5 420t-93 213t-56.5 176q0 74 53.5 125t112.5 51q37 0 73 -52.5t36 -115.5q0 -14 -4.5 -51t-4.5 -62q0 -108 50.5 -374.5t63.5 -360.5t22.5 -163.5t9.5 -133.5q0 -61 -15.5 -158t-34 -141t-163 -244t-392 -318.5t-425.5 -118.5
q-414 0 -604.5 204.5t-216 381t-25.5 200.5v41v24t4 10q23 -99 52.5 -208t88 -204t244 -196.5t430.5 -101.5q136 0 325 92.5t339 237.5q34 22 139.5 184t105.5 198z" />
    <glyph glyph-name="lamfinal" unicode="&#x644;" horiz-adv-x="907" arabic-form="final" 
d="M801 0q-31 -126 -50.5 -167t-162 -241t-391 -318.5t-426.5 -118.5q-414 0 -604.5 204.5t-216 381t-25.5 200.5v41v24t4 10q23 -99 52.5 -208t88 -205t245 -202.5t429.5 -106.5q138 0 331 89t277 171t192.5 247t108.5 217q2 27 -12 197t-45 367.5t-62.5 316.5t-88 197
t-56.5 176q0 74 53.5 125t112.5 51q37 0 73 -52.5t36 -115.5q0 -14 -4.5 -51t-4.5 -62q0 -108 50.5 -374.5t58.5 -335t23.5 -156.5t17.5 -104h129v-197h-45.5t-54.5 2h-22t-11 -2z" />
    <glyph glyph-name="laminitial" unicode="&#x644;" horiz-adv-x="475" arabic-form="initial" 
d="M428 375q0 -156 -42 -309.5t-159 -153.5q-16 0 -56 44t-67 44h-130v197h180q26 0 50.5 -15.5t39.5 -25.5q6 82 11 181t5 185q0 103 -18.5 182.5t-27.5 122.5t-69.5 142.5t-60.5 175.5q0 74 54.5 126t111.5 52q37 0 72.5 -52t35.5 -116q0 -22 -5 -60t-3 -53
q0 -102 22.5 -229t29 -173t16.5 -122t10 -143z" />
    <glyph glyph-name="lammedial" unicode="&#x644;" horiz-adv-x="550" arabic-form="medial" 
d="M-26 197h212q33 10 66 23t33 38q-23 188 -43.5 363.5t-32.5 248t-70.5 148.5t-58.5 168q0 74 54 126t114 52q39 0 72.5 -52t33.5 -116q0 -16 -4 -61t-4 -54q0 -100 25.5 -228t37 -213t19.5 -256t16 -183q7 -2 29.5 -3t46.5 -1h41h23v-197h-181q-18 -63 -75.5 -137.5
t-122.5 -97.5q0 39 23.5 105.5t31.5 129.5h-286v197z" />
    <glyph glyph-name="meemisolated" unicode="&#x645;" horiz-adv-x="1013" arabic-form="isolated" 
d="M112 -962q0 37 33.5 156.5t33.5 156.5q-26 84 -44.5 266.5t-18.5 409.5q0 237 90 264.5t143 42.5q15 53 59 124.5t175 71.5q112 0 176.5 -95t64.5 -212q0 -123 -59 -192t-160 -69q-90 0 -143 55t-86 55q-60 0 -83.5 -27t-23.5 -124q0 -35 7.5 -156t14.5 -199t14 -142.5
t7 -92.5q0 -41 -2 -60.5t-19.5 -88t-32.5 -104.5t-64 -63q-17 -6 -33 -6q-49 0 -49 29zM525 209q21 -35 60 -35q12 0 24.5 4t21.5 24.5t9 45.5q0 35 -24.5 55.5t-57.5 13.5q-43 -10 -43 -67q0 -21 10 -41z" />
    <glyph glyph-name="meemfinal" unicode="&#x645;" horiz-adv-x="997" arabic-form="final" 
d="M757 66h-27q-86 -37 -102 -35q-86 10 -137.5 61t-88.5 47q-49 -6 -80.5 -55t-31.5 -98q16 -123 28.5 -233.5t12.5 -175.5q0 -279 -101 -406q-53 -29 -106 -57q-4 37 24.5 176t28.5 155q0 64 -23.5 254.5t-23.5 396.5q0 205 98 260q74 23 148 45q18 80 75.5 138.5
t159.5 58.5q113 0 176.5 -94t63.5 -211q0 -57 45 -77.5t104 -20.5h22t15 2v-197h-18t-27 -2q-88 0 -164.5 14.5t-70.5 53.5zM562 272q31 -45 76 -32q23 8 31 27.5t8 45.5q0 33 -25.5 54.5t-56.5 15.5q-45 -10 -45 -68q0 -24 12 -43z" />
    <glyph glyph-name="meeminitial" unicode="&#x645;" horiz-adv-x="741" arabic-form="initial" 
d="M-26 197h216q0 94 34 156.5t155 62.5q82 0 164 -95.5t82 -265.5q0 -110 -49.5 -152t-126.5 -42q-68 0 -117 43q-43 49 -84 96h-274v197zM360 92q27 -51 62 -51q10 0 31.5 8t21.5 47q0 23 -10 55.5t-34.5 54t-55.5 13.5q-17 -6 -25 -21.5t-8 -33.5q0 -23 4 -37t14 -35z
" />
    <glyph glyph-name="meemmedial" unicode="&#x645;" horiz-adv-x="739" arabic-form="medial" 
d="M-26 197h171q27 88 77 156.5t143 68.5q131 0 192 -112.5t80 -112.5h131v-197h-131q-27 0 -81 -87t-159 -87q-116 0 -172.5 87t-68.5 87q-9 2 -33.5 2h-38.5h-62.5t-47.5 -2v197zM317 102q15 -86 72 -86q35 0 45 30t10 79q-4 43 -21 73.5t-52 30.5q-27 0 -42.5 -28.5
t-15.5 -67.5q0 -10 4 -31z" />
    <glyph glyph-name="noonisolated" unicode="&#x646;" horiz-adv-x="983" arabic-form="isolated" 
d="M385 547q53 0 84 -36t31 -79q0 -49 -22.5 -73.5t-76.5 -24.5q-51 0 -82.5 31.5t-31.5 66.5q0 41 34.5 78t63.5 37zM879 -155q-2 -47 -27 -155.5t-182.5 -245t-418.5 -224.5t-492 -88q-103 0 -242 36t-277.5 183.5t-138.5 378.5q0 74 13.5 136.5t16.5 73.5t42 58
q8 -22 8 -65q0 -23 -2 -81t-2 -60q0 -50 2 -80.5t26.5 -112.5t133.5 -167t226.5 -109.5t213.5 -24.5q301 0 574.5 150.5t361.5 410.5q12 35 -38 101.5t-50 113.5q0 16 8 44.5t34.5 47t63.5 18.5q17 0 51.5 -10t73.5 -80.5t39 -152.5q0 -49 -18 -96z" />
    <glyph glyph-name="noonfinal" unicode="&#x646;" horiz-adv-x="1966" arabic-form="final" 
d="M1156 590q12 24 32.5 36.5t51.5 12.5q23 0 43.5 -10.5t32.5 -30.5t12 -51q0 -23 -16.5 -55.5t-75.5 -32.5q-23 0 -55.5 16.5t-32.5 75.5q0 22 8 39zM1992 0q-29 -2 -58.5 -3t-56.5 -7q-14 -53 -45 -111.5t-117 -187.5t-331.5 -286.5t-352 -167t-126 -10.5t-34.5 -1
q-331 0 -590 222.5t-259 529.5q2 36 4 73q16 103 93 248t247 334q0 -10 2 -14.5t2 -28.5q-80 -103 -143.5 -247t-63.5 -310q0 -264 186.5 -438t468.5 -174q148 0 310.5 67.5t268 173t193.5 220t88 165.5q0 10 -48 50t-58 100q-4 26 23.5 67t97.5 41q47 0 99 -32.5t58.5 -52
t37 -21.5t38.5 -2h43h23v-197z" />
    <glyph glyph-name="nooninitial" unicode="&#x646;" horiz-adv-x="569" arabic-form="initial" 
d="M-26 197h137q84 0 93 -1t97 -24q4 8 6 17.5t2 23.5q0 23 -7 33t-13 21.5t-53 11.5q-41 0 -70 32.5t-29 75.5q0 45 39 88t105 43q51 0 112.5 -90t61.5 -225q0 -97 -35 -169t-86 -72q-25 10 -70 24t-176 14h-114v197zM154 793q0 34 31.5 66t82.5 32q99 0 99 -98
q0 -41 -31 -78t-84 -37q-29 0 -63.5 37t-34.5 78z" />
    <glyph glyph-name="noonmedial" unicode="&#x646;" horiz-adv-x="573" arabic-form="medial" 
d="M604 0h-203q-18 -6 -30 -6q-23 0 -54.5 46t-56.5 69q-29 -54 -46 -81.5t-52 -27.5h-188v197h98q159 0 181.5 89t80.5 89q8 0 64.5 -89t140.5 -89h65v-197zM74 739q0 35 31.5 67t82.5 32q99 0 99 -99q0 -41 -31 -77.5t-84 -36.5q-29 0 -63.5 36.5t-34.5 77.5z" />
    <glyph glyph-name="hehisolated" unicode="&#x647;" horiz-adv-x="1058" arabic-form="isolated" 
d="M188 238q0 159 133.5 269.5t309.5 110.5q12 0 29.5 -2t25.5 -2q0 86 -60.5 160t-60.5 103q0 63 38 105t99 42q78 0 108 -35t30 -84q0 -26 -6.5 -48.5t-10.5 -35.5q29 -88 55.5 -202.5t26.5 -249.5q0 -164 -59.5 -310.5t-192.5 -227.5q-2 12 -2 32q0 33 22.5 91t28.5 97
q-63 -26 -124.5 -50.5t-126.5 -24.5q-138 0 -200.5 71.5t-62.5 190.5zM401 219q9 -39 42.5 -59.5t78.5 -20.5q51 0 104.5 23.5t78 56.5t31.5 66.5t7 76.5q-6 74 -28.5 92.5t-46.5 18.5q-52 0 -123.5 -37t-99 -83t-38 -75.5t-6.5 -58.5z" />
    <glyph glyph-name="hehfinal" unicode="&#x647;" horiz-adv-x="763" arabic-form="final" 
d="M793 0l36 -2h-32.5h-57.5q-104 0 -163.5 -65.5t-196.5 -65.5q8 25 50 67t52 64q-16 2 -35.5 2h-29.5q-76 0 -93.5 -1t-29.5 -5q-80 12 -159 59t-79 228q0 168 129 241q150 41 301 82q9 19 -0.5 58.5t-20.5 63.5t-62.5 56.5t-51.5 63.5q0 78 41 98.5t105 20.5
q71 0 118.5 -59.5t47.5 -157.5q0 -64 -1.5 -128.5t-1.5 -132.5v-135q5 -104 17 -155h117v-197zM260 250q0 -29 32 -39t79 -10q47 2 61 2q88 0 88 65l-4 35l-10 96q0 37 -45 37q-37 0 -87 -21.5t-72.5 -41t-32 -52t-9.5 -71.5z" />
    <glyph glyph-name="hehinitial" unicode="&#x647;" horiz-adv-x="962" arabic-form="initial" 
d="M649 0h-168q-32 0 -72 13.5t-53 9.5q-57 -21 -74.5 -22t-25.5 -1h-282v197h155q-25 47 -42 83.5t-17 110.5q0 107 64.5 163t164.5 56q111 0 181.5 -97t70.5 -208q-2 -16 -6 -36.5t-27 -73.5h115q61 0 90 39.5t29 107.5q0 61 -22.5 125.5t-61.5 105.5t-78 84
q-49 48 -92 48q-54 0 -107 -68q-47 6 -94 20.5t-58.5 43t-11.5 42.5q0 31 28 56.5t71 57.5t83 44t80 12q58 0 149 -33.5t163.5 -144t85.5 -258.5q0 -121 -17.5 -189.5t-62.5 -128t-67.5 -81t-90.5 -78.5zM246 328q6 -33 31.5 -57.5t46.5 -10.5q47 29 36 94q-6 37 -21 57.5
t-50 14.5q-29 -4 -39 -17.5t-10 -35.5q0 -11 2 -23t4 -22z" />
    <glyph glyph-name="hehmedial" unicode="&#x647;" horiz-adv-x="964" arabic-form="medial" 
d="M653 250q0 -31 -3 -65.5t-23.5 -65.5t-31.5 -44.5t-34 -23.5l8 -8q23 -8 43 -8q52 0 69 23.5t23.5 44t6.5 34.5q0 39 -18.5 65.5t-39.5 47.5zM461 203q28 35 28 80q0 79 -49 94.5t-63 15.5q-39 0 -67.5 -28.5t-28.5 -69.5q0 -29 19 -54.5t49 -39t57 -13.5q45 0 55 15z
M854 0q-8 -28 -26.5 -46.5t-68.5 -53.5t-159 -35q-92 0 -180 36t-112.5 68.5t-74.5 32.5q-51 0 -112.5 -1t-134.5 -1v197h143q-25 34 -25 82q0 83 56.5 168t120.5 92l71 8q-14 31 -14 65q0 50 32.5 84.5t80.5 34.5q36 0 71 -23.5t53.5 -57.5t53.5 -112.5t89 -124.5
t101 -100.5t68 -115.5h104v-197h-137z" />
    <glyph glyph-name="wawisolated" unicode="&#x648;" horiz-adv-x="841" arabic-form="isolated" 
d="M-69 -555q237 35 410 193t173 374q-25 0 -86 -15t-82 -15q-14 0 -82.5 12t-101.5 76.5t-33 193.5q0 199 92 291t191 92q139 0 225 -153.5t86 -370.5q0 -352 -248 -593.5t-554 -241.5q-111 0 -258.5 34.5t-266 148.5t-186.5 193.5t-90.5 146.5t-28.5 89.5t-6 28.5
q0 22 16 16q17 -2 20 -22.5t5 -36.5q90 -135 154.5 -194.5t178 -132.5t205 -96.5t177.5 -23.5q43 0 90 6zM379 432q-45 0 -62 -63q-10 -74 -12 -88q-4 -31 30 -69t64 -34q62 8 81.5 28.5t19.5 51.5q-2 23 -2 31q0 35 -33 92t-86 51z" />
    <glyph glyph-name="wawfinal" unicode="&#x648;" horiz-adv-x="720" arabic-form="final" 
d="M358 315q-18 -16 -18 -41q0 -28 26.5 -53.5t67.5 -25.5q17 0 30 3t13 29q0 56 -30.5 77.5t-53.5 21.5q-18 0 -35 -11zM750 0h-103q-94 -204 -181 -331t-222 -205t-340 -78q-88 0 -137 22.5t-114.5 86t-103.5 145.5t-63 293l9 65q24 -12 46.5 -75.5t61.5 -182.5
q76 -170 169 -192.5t155.5 -23.5t90.5 -3q148 0 291.5 164t143.5 321q-158 0 -224.5 64.5t-66.5 173.5q0 78 65.5 214t167.5 136q140 0 209 -191q45 -196 47 -206h99v-197z" />
    <glyph glyph-name="alefmaksuraisolated" unicode="&#x649;" horiz-adv-x="2140" arabic-form="isolated" 
d="M374 666q-109 -183 -147 -294.5t-38 -246.5q0 -198 204 -411t567 -213q198 0 357 120.5t253 265t94 183.5q0 59 -78 140t-78 124q0 37 146.5 135t163.5 98q28 0 89.5 -61.5t84.5 -97.5q-13 -25 -33.5 -48.5t-61.5 -27.5q-12 20 -29.5 38.5t-39.5 18.5q-31 0 -53 -55
q28 -43 57 -84q33 -62 33 -148q0 -138 -180.5 -369.5t-355.5 -325t-341 -93.5q-325 0 -580 183.5t-290 329t-40 175t-5 76.5q0 37 13 130t106.5 263t160.5 219q4 2 10.5 -11t10.5 -13z" />
    <glyph glyph-name="alefmaksurafinal" unicode="&#x649;" horiz-adv-x="1540" arabic-form="final" 
d="M-1562 10q80 -268 271.5 -459.5t390 -237.5t345 -63.5t287.5 -17.5q467 0 814 183.5t394 410.5t47 237q0 39 -16.5 85.5t-46.5 93.5q-15 12 -15 20q0 19 56.5 30t89.5 11q20 -55 42.5 -100t58.5 -81t98.5 -65.5t115.5 -44.5q35 -6 105.5 -8t134.5 -4l4 197
q-17 -2 -51.5 -4.5t-53.5 -2.5q-96 0 -140 11.5t-76.5 39t-84 142.5t-86.5 124t-53 9q-82 0 -233.5 -77t-157.5 -107q-10 -35 63.5 -130.5t73.5 -144.5q0 -12 -26.5 -181.5t-359.5 -330.5t-766 -161q-150 0 -289 20.5t-297 70.5t-361.5 211t-277.5 324z" />
    <glyph glyph-name="yehisolated" unicode="&#x64a;" horiz-adv-x="2064" arabic-form="isolated" 
d="M794 -677q53 0 83.5 -35t30.5 -80q0 -49 -22.5 -73.5t-75.5 -24.5q-49 0 -82 32.5t-33 65.5q0 41 35 78t64 37zM1082 -655q50 0 90.5 -26.5t40.5 -88.5q0 -43 -20 -70.5t-78 -27.5q-49 0 -82 31t-33 67q0 72 31 89.5t51 25.5zM374 829q-109 -182 -147 -293.5t-38 -246.5
q0 -199 204 -411.5t567 -212.5q198 0 357 120.5t253 265t94 182.5q0 60 -78 141t-78 124q0 37 146.5 135t163.5 98q28 0 89.5 -61.5t84.5 -98.5q-13 -24 -33.5 -47.5t-61.5 -27.5q-12 20 -29.5 38.5t-39.5 18.5q-31 0 -53 -55q28 -43 57 -84q33 -62 33 -148
q0 -139 -180.5 -370t-355.5 -324.5t-341 -93.5q-325 0 -580 183.5t-290 328.5t-40 175t-5 77q0 37 13 130t106.5 263t160.5 219q4 2 10.5 -11.5t10.5 -13.5z" />
    <glyph glyph-name="yehfinal" unicode="&#x64a;" horiz-adv-x="1540" arabic-form="final" 
d="M51 -909q0 35 32 66.5t83 31.5q53 0 75.5 -24.5t22.5 -73.5q0 -43 -29.5 -79t-84.5 -36q-29 0 -64 37t-35 78zM358 -876q0 35 32 66.5t83 31.5q57 0 77.5 -27.5t20.5 -70.5q0 -59 -41 -87t-90 -28q-28 11 -55 32.5t-27 82.5zM-1562 10q80 -268 271.5 -459.5t390 -237.5
t345 -63.5t287.5 -17.5q467 0 814 183.5t394 410.5t47 237q0 39 -16.5 85.5t-46.5 93.5q-15 12 -15 20q0 19 56.5 30t89.5 11q20 -55 42.5 -100t58.5 -81t98.5 -65.5t115.5 -44.5q35 -6 105.5 -8t134.5 -4l4 197q-17 -2 -51.5 -4.5t-53.5 -2.5q-96 0 -140 11.5t-76.5 39
t-84 142.5t-86.5 124t-53 9q-82 0 -233.5 -77t-157.5 -107q-10 -35 63.5 -130.5t73.5 -144.5q0 -12 -26.5 -181.5t-359.5 -330.5t-766 -161q-150 0 -289 20.5t-297 70.5t-361.5 211t-277.5 324z" />
    <glyph glyph-name="yehinitial" unicode="&#x64a;" horiz-adv-x="546" arabic-form="initial" 
d="M51 -309q0 35 32 67t83 32q53 0 75.5 -25t22.5 -74q0 -43 -29.5 -78.5t-84.5 -35.5q-29 0 -64 36.5t-35 77.5zM-26 197h137q84 0 93 -1t97 -24q4 8 6 17.5t2 23.5q0 23 -7 33t-13 21.5t-53 11.5q-41 0 -70 32.5t-29 75.5q0 45 39 88t105 43q51 0 112.5 -90t61.5 -225
q0 -97 -35 -169t-86 -72q-25 10 -70 24t-176 14h-114v197zM303 -286q0 35 32 66.5t83 31.5q57 0 77.5 -27.5t20.5 -70.5q0 -60 -41 -87.5t-90 -27.5q-29 10 -55.5 31.5t-26.5 83.5z" />
    <glyph glyph-name="yehmedial" unicode="&#x64a;" horiz-adv-x="579" arabic-form="medial" 
d="M604 0h-203q-18 -6 -30 -6q-23 0 -54.5 46t-56.5 69q-29 -54 -46 -81.5t-52 -27.5h-188v197h98q159 0 181.5 89t80.5 89q8 0 64.5 -89t140.5 -89h65v-197zM51 -276q0 35 32 66.5t83 31.5q53 0 75.5 -24.5t22.5 -73.5q0 -43 -29.5 -79t-84.5 -36q-29 0 -64 37t-35 78z
M326 -270q0 35 31.5 66.5t82.5 31.5q58 0 78.5 -27.5t20.5 -70.5q0 -59 -41 -87t-90 -28q-29 11 -55.5 32.5t-26.5 82.5z" />
    <glyph glyph-name=".notdef" horiz-adv-x="1024" 
d="M128 0v1414h768v-1414h-768zM256 128h512v1158h-512v-1158z" />
    <glyph glyph-name=".null" horiz-adv-x="0" 
 />
    <glyph glyph-name="nonmarkingreturn" horiz-adv-x="500" 
 />
    <glyph glyph-name="space" unicode=" " horiz-adv-x="500" 
 />
    <glyph glyph-name="exclam" unicode="!" horiz-adv-x="483" 
d="M482 265l-188 -11q0 483 -136 887l195 51q129 -433 129 -927zM482 201q0 -63 -9 -204h-194l11 195z" />
    <glyph glyph-name="quotedbl" unicode="&#x22;" horiz-adv-x="502" 
d="M502 1068l-90 -7q0 166 -66 343l94 23q62 -210 62 -359zM327 1050l-90 -7q0 166 -66 343l94 23q62 -210 62 -359z" />
    <glyph glyph-name="numbersign" unicode="#" horiz-adv-x="1365" 
d="M1273 477h-327l-87 -409h-104l87 409h-443l-85 -409h-104l85 409h-204v104h226l82 389h-308v104h329l88 411h104l-88 -411h440l86 411h104l-86 -411h205v-104h-225l-81 -389h306v-104zM944 970h-441l-82 -387h442z" />
    <glyph glyph-name="dollar" unicode="$" horiz-adv-x="939" 
d="M881 505q0 -131 -107 -241q-89 -93 -227 -149v-168h-72v156l-63 -2q-125 -4 -296 68v352h67q42 -335 292 -352v540q-169 110 -215 152q-116 106 -116 224q0 120 108 221q97 91 223 121v164h72v-155h39q88 0 230 -49v-312h-69q-30 249 -200 291v-481q47 -36 109 -78
q116 -78 156 -123q69 -77 69 -179zM475 934v435q-78 -7 -128 -55q-53 -51 -53 -128q0 -135 181 -252zM724 398q0 149 -177 258v-479q177 44 177 221z" />
    <glyph glyph-name="percent" unicode="%" horiz-adv-x="1009" 
d="M468 928q0 -65 -46 -111.5t-111 -46.5t-111 46.5t-46 111.5t46 111t111 46t111 -46t46 -111zM1009 1084q-111 -285 -338 -658q-218 -357 -393 -552l-170 105q531 670 740 1200zM1014 53q0 -65 -46 -111.5t-111 -46.5t-111 46.5t-46 111.5t46 111t111 46t111 -46t46 -111z
" />
    <glyph glyph-name="ampersand" unicode="&#x26;" horiz-adv-x="1301" 
d="M1318 411q-164 -311 -267 -311q-118 0 -342 278q-103 -130 -160 -181q-108 -97 -213 -97q-110 0 -189 88q-75 84 -75 196q0 201 334 456q-109 206 -109 322q0 134 143 211q118 64 265 64q90 0 152 -39q74 -46 74 -131q0 -81 -81 -156q-37 -34 -149 -105q-72 -45 -124 -83
q142 -229 213 -336q93 144 120 336h358v-51q-248 0 -444 -329q202 -271 293 -271q62 0 159 159zM765 1263q0 56 -38.5 88t-95.5 32q-74 0 -118 -48t-44 -122q0 -84 87 -249q103 95 134 132q75 90 75 167zM681 414q-166 224 -255 386q-164 -170 -164 -331q0 -87 44 -149
q49 -70 133 -70q110 0 242 164z" />
    <glyph glyph-name="quotesingle" unicode="'" horiz-adv-x="320" 
d="M267 1342q0 -43 -12 -114l-54 -321h-39l-49 325q-12 80 -12 110q0 95 85 95q81 0 81 -95z" />
    <glyph glyph-name="parenleft" unicode="(" horiz-adv-x="571" 
d="M571 -203l-148 -114q-271 383 -271 837q0 451 268 832l134 -120q-103 -134 -166 -346q-58 -195 -58 -366q0 -163 65 -368q70 -216 176 -355z" />
    <glyph glyph-name="parenright" unicode=")" horiz-adv-x="571" 
d="M570 520q0 -454 -271 -837l-148 114q106 139 176 355q65 205 65 368q0 171 -58 366q-63 212 -166 346l134 120q268 -381 268 -832z" />
    <glyph glyph-name="asterisk" unicode="*" horiz-adv-x="865" 
d="M871 610q-107 -137 -221 -251q103 -106 215 -246l-126 -109q-96 121 -207 239q-124 -116 -265 -218l-102 126q127 86 252 208q-136 130 -259 211l104 127q131 -94 270 -223q109 114 212 245z" />
    <glyph glyph-name="plus" unicode="+" horiz-adv-x="995" 
d="M995 435l-13 -166q-165 19 -323 23q-6 -184 -33 -349l-163 17q30 151 33 332q-181 -3 -325 -32l-17 162q163 27 341 33q-5 173 -23 316l166 12q20 -155 23 -326q170 -1 334 -22z" />
    <glyph glyph-name="comma" unicode="," horiz-adv-x="463" 
d="M463 163q0 -75 -47 -119t-119 -44q-65 0 -106 55t-41 146q0 90 48 171q52 87 146 137q8 -8 56 -89q-71 -43 -98 -105q76 0 121 -48q40 -43 40 -104z" />
    <glyph glyph-name="hyphenminus" unicode="-" horiz-adv-x="995" 
d="M995 435l-13 -167q-203 25 -408 25q-234 0 -403 -34l-17 163q215 35 465 35q197 0 376 -22z" />
    <glyph glyph-name="hyphenminus" unicode="&#x2010;" horiz-adv-x="995" 
d="M995 435l-13 -167q-203 25 -408 25q-234 0 -403 -34l-17 163q215 35 465 35q197 0 376 -22z" />
    <glyph glyph-name="period" unicode="." horiz-adv-x="464" 
d="M464 158q0 -65 -46 -111.5t-111 -46.5t-111 46.5t-46 111.5t46 111t111 46t111 -46t46 -111z" />
    <glyph glyph-name="slash" unicode="/" horiz-adv-x="925" 
d="M909 960q-85 -293 -280 -684q-186 -375 -343 -584l-179 90q469 706 632 1260z" />
    <glyph glyph-name="zero" unicode="0" horiz-adv-x="1131" 
d="M1054 875q0 -263 -142 -500q-165 -275 -413 -275q-119 0 -221 78q-95 72 -145 186q-55 125 -55 298q0 258 136 499q160 283 401 283q212 0 334 -186q105 -160 105 -383zM908 720q0 376 -199 536q-97 78 -183 78q-170 0 -251 -186q-59 -136 -59 -332q0 -202 92 -381
q112 -218 297 -218q166 0 245 180q58 132 58 323z" />
    <glyph glyph-name="one" unicode="1" horiz-adv-x="1131" 
d="M876 129h-528v48h49q133 0 133 127v890q0 87 -76 87q-35 0 -166 -46v49l487 170v-40q-83 -23 -83 -116v-977q0 -144 135 -144h49v-48z" />
    <glyph glyph-name="two" unicode="2" horiz-adv-x="1131" 
d="M1034 436l-72 -354h-47v12q0 35 -36 35h-781v48l292 352q299 360 362 517q37 92 37 154q0 79 -50 132.5t-129 53.5q-136 0 -230 -138q-80 -117 -92 -264h-69v304q240 149 450 149q128 0 215 -60q99 -68 99 -191q0 -128 -108 -267q-45 -58 -204 -215l-425 -420h564
q150 0 176 152h48z" />
    <glyph glyph-name="three" unicode="3" horiz-adv-x="1131" 
d="M1020 598q0 -200 -183 -353q-173 -145 -377 -145q-131 0 -297 64v333h69q15 -139 99 -229q89 -97 225 -97q130 0 207 92q73 86 73 218q0 155 -84.5 238.5t-239.5 83.5h-165v47q144 15 268 123q133 116 133 255q0 70 -45 113t-116 43q-134 0 -218 -138q-70 -115 -75 -260
h-68v302q236 149 432 149q110 0 185 -49q88 -57 88 -161q0 -209 -419 -377q70 3 103 3q405 0 405 -255z" />
    <glyph glyph-name="four" unicode="4" horiz-adv-x="1131" 
d="M1007 494h-204v-190q0 -127 126 -127h29v-48h-502v48h42q141 0 141 127v190h-576v46l393 496q190 240 297 411h50v-852h204v-101zM639 595v529q-138 -131 -250 -273l-202 -256h452z" />
    <glyph glyph-name="five" unicode="5" horiz-adv-x="1131" 
d="M1025 637q0 -212 -167.5 -374.5t-380.5 -162.5q-143 0 -279 66v331h70q19 -135 89 -221q81 -101 208 -101q137 0 209 109q62 93 62 237q0 150 -69 257q-80 123 -223 123q-158 0 -257 -159h-59l31 666h595q60 0 61 51h47v-352h-47q0 151 -145 151h-454l-19 -399
q130 104 333 104q163 0 272 -80q123 -89 123 -246z" />
    <glyph glyph-name="six" unicode="6" horiz-adv-x="1131" 
d="M1044 517q0 -175 -149 -300q-140 -117 -319 -117q-221 0 -344 181q-107 157 -107 389q0 286 152 512q172 255 445 255q113 0 235 -49v-344h-74q-2 130 -49 221q-61 118 -177 118q-114 0 -205 -117q-71 -92 -107 -221q-43 -155 -43 -282q0 -43 9 -127q167 195 376 195
q156 0 252 -78q105 -84 105 -236zM853 458q0 119 -57 201q-65 94 -179 94q-120 0 -188 -91q-62 -82 -62 -206q0 -120 60 -205q67 -97 182 -97q117 0 184 97q60 85 60 207z" />
    <glyph glyph-name="seven" unicode="7" horiz-adv-x="1131" 
d="M1048 1346q-233 -298 -340 -569q-115 -292 -125 -648h-181q11 227 57 383q77 262 332 581l131 164h-530q-86 0 -119.5 -33t-35.5 -120h-47v350h47v-7q0 -39 55 -39h756v-62z" />
    <glyph glyph-name="eight" unicode="8" horiz-adv-x="1131" 
d="M1067 490q0 -193 -269 -327q-126 -63 -290 -63q-159 0 -274 64q-141 79 -141 227q0 112 107 212q60 56 203 141q19 11 73 44q-17 10 -58 31q-120 62 -166 107q-72 70 -72 175q0 150 166 250q143 86 303 86q120 0 211 -47q114 -59 114 -168q0 -95 -115 -204
q-52 -49 -193 -149q26 -15 97 -52q144 -75 202 -125q102 -88 102 -202zM810 1189q0 95 -73 146q-65 46 -163 46t-167 -51q-77 -56 -77 -151q0 -98 104 -178q55 -43 188 -107q188 164 188 295zM894 431q0 137 -162 219q-88 44 -208 114q-118 -78 -170 -137q-79 -90 -79 -197
q0 -125 93 -200q87 -70 214 -70q125 0 215 72q97 77 97 199z" />
    <glyph glyph-name="nine" unicode="9" horiz-adv-x="1131" 
d="M1029 864q0 -194 -72 -365q-77 -184 -221 -295q-134 -104 -297 -104q-124 0 -237 51v341h72q2 -124 49 -218q60 -119 171 -119q186 0 283 239q73 179 73 396q0 34 -5 108q-184 -190 -386 -190q-149 0 -245 84q-101 88 -101 235q0 170 149 293q141 117 314 117
q224 0 347 -181q106 -156 106 -392zM787 1084q0 114 -59 203q-67 101 -177 101q-123 0 -191 -97q-60 -85 -60 -213q0 -122 62 -204q68 -91 186 -91q114 0 180 97q59 85 59 204z" />
    <glyph glyph-name="colon" unicode=":" horiz-adv-x="464" 
d="M464 562q0 -65 -46 -111.5t-111 -46.5t-111 46.5t-46 111.5t46 111t111 46t111 -46t46 -111zM464 158q0 -65 -46 -111.5t-111 -46.5t-111 46.5t-46 111.5t46 111t111 46t111 -46t46 -111z" />
    <glyph glyph-name="semicolon" unicode=";" horiz-adv-x="491" 
d="M369 949q0 -50 -35.5 -85.5t-85.5 -35.5t-85.5 35.5t-35.5 85.5q0 49 35 85t84 36q51 0 87 -35t36 -86zM458 163q0 -265 -334 -481v58q222 160 222 340q0 44 -31 97q-32 -48 -92 -48q-98 0 -98 98q0 57 49 92q43 31 103 31q84 0 132.5 -51t48.5 -136z" />
    <glyph glyph-name="less" unicode="&#x3c;" horiz-adv-x="1365" 
d="M1222 270l-1080 456v97l1080 455v-118l-936 -385l936 -387v-118z" />
    <glyph glyph-name="equal" unicode="=" horiz-adv-x="1008" 
d="M995 575l-13 -167q-203 25 -408 25q-234 0 -403 -34l-17 163q215 35 465 35q197 0 376 -22zM995 285l-13 -167q-203 25 -408 25q-234 0 -403 -34l-17 163q215 35 465 35q197 0 376 -22z" />
    <glyph glyph-name="greater" unicode="&#x3e;" horiz-adv-x="1365" 
d="M1222 724l-1080 -454v117l937 386l-937 387v118l1080 -457v-97z" />
    <glyph glyph-name="question" unicode="?" horiz-adv-x="917" 
d="M887 1213q0 -110 -94 -223q-93 -96 -187 -192q-112 -116 -140 -217q-17 -61 -19 -144h-99q2 155 41 257q34 89 134 224q143 193 143 291q0 79 -50 124t-130 45q-143 0 -236 -130q-81 -114 -89 -265h-66v302q277 152 498 152q123 0 201 -49q93 -58 93 -175zM516 221
q0 -50 -35 -85.5t-85 -35.5t-85 35.5t-35 85.5q0 49 34.5 85t83.5 36q51 0 86.5 -35t35.5 -86z" />
    <glyph glyph-name="at" unicode="@" horiz-adv-x="1877" 
d="M1837 293q-95 -277 -332 -443.5t-531 -166.5q-247 0 -448 113q-210 118 -318 332q-106 211 -106 454q0 409 268 686q271 281 679 281q315 0 509 -183q197 -188 197 -501q0 -397 -280 -628q-111 -91 -259 -91q-157 0 -157 140q0 40 25 155q-109 -132 -165 -182
q-115 -102 -217 -102q-95 0 -147 70q-47 62 -47 160q0 162 97 331q88 152 225 266q124 103 235 103q129 0 169 -141l31 115l131 19l-139 -469q-74 -250 -74 -316q0 -82 93 -82q184 0 315 241q112 206 112 406q0 291 -183 466q-181 172 -473 172q-249 0 -447.5 -131
t-305.5 -359q-111 -237 -111 -481q0 -215 103 -401q107 -195 290.5 -292.5t399.5 -97.5q270 0 492.5 152t314.5 405h54zM1197 886q0 155 -137 155q-153 0 -290 -247q-122 -219 -122 -388q0 -142 126 -142q102 0 218 134q93 108 142 226q63 152 63 262z" />
    <glyph glyph-name="A" unicode="A" horiz-adv-x="1237" 
d="M1235 129h-359v48h23q17 0 17 33q0 10 -4 22l-120 348h-437q-69 -194 -69 -289q0 -114 118 -114h53v-48h-448v48q113 6 204 239l410 1045h59l354 -1022q38 -110 69 -162q58 -97 130 -100v-48zM770 641l-182 532l-210 -532h392z" />
    <glyph glyph-name="B" unicode="B" horiz-adv-x="1109" 
d="M1039 579q0 -190 -164 -324q-154 -126 -348 -126h-469v48q88 1 120 35.5t32 123.5v866q0 89 -31.5 122.5t-120.5 35.5v48h605q146 0 219 -40q98 -53 98 -186q0 -206 -283 -373q160 -2 234 -38q108 -53 108 -192zM801 1048q0 124 -61 212q-69 101 -187 101q-99 0 -158 -48
v-465h195q211 0 211 200zM847 457q0 158 -96 251.5t-254 93.5h-102v-527q103 -81 215 -81q113 0 177 77q60 71 60 186z" />
    <glyph glyph-name="C" unicode="C" horiz-adv-x="1259" 
d="M1206 373q-317 -273 -578 -273q-249 0 -405 183q-147 174 -147 427q0 396 338 620q161 107 388 107q198 0 374 -62v-302h-71q-13 146 -132 228q-107 73 -260 73q-221 0 -349 -168q-116 -153 -116 -381q0 -240 129 -403q140 -177 374 -177q221 0 455 189v-61z" />
    <glyph glyph-name="D" unicode="D" horiz-adv-x="1451" 
d="M1377 903q0 -345 -221.5 -559.5t-567.5 -214.5h-524v48q88 1 120 35.5t32 123.5v866q0 89 -31.5 122.5t-120.5 35.5v48h786q527 0 527 -505zM1189 773q0 590 -498 590q-175 0 -290 -77v-999q160 -93 312 -93q230 0 360 180q116 160 116 399z" />
    <glyph glyph-name="E" unicode="E" horiz-adv-x="981" 
d="M963 497l-82 -412h-50q-1 44 -38 44h-729v48q89 1 120.5 35t31.5 124v865q0 89 -31.5 123t-120.5 36v48h714q65 0 67 50h47v-382h-73q-4 284 -342 284h-76q-12 -109 -12 -195q0 -333 281 -333h98v-70l-367 -10v-575h106q336 0 385 320h71z" />
    <glyph glyph-name="F" unicode="F" horiz-adv-x="875" 
d="M890 1072h-72q0 288 -344 288h-76q-11 -109 -11 -196q0 -181 57 -261q68 -96 239 -96h83v-69l-368 -8v-394q0 -154 152 -159v-48h-489v48q88 1 120 35.5t32 123.5v866q0 89 -31.5 122.5t-120.5 35.5v48h757q23 0 28 44h44v-380z" />
    <glyph glyph-name="G" unicode="G" horiz-adv-x="1365" 
d="M1311 632q-49 -1 -77 -46q-24 -38 -24 -91v-412h-50q-5 176 -133 176q-58 0 -139 -56q-27 -18 -40 -26q-134 -77 -254 -77q-137 0 -263 86q-121 82 -184 209q-66 134 -66 302q0 202 96 374.5t268 271.5q164 94 370 94q160 0 363 -61v-303h-73q-17 144 -130 224
q-103 74 -253 74q-220 0 -350 -158q-121 -147 -121 -371q0 -235 119 -412q135 -201 360 -201q120 0 208 65q99 72 99 187q0 151 -189 151h-36v47h499v-47z" />
    <glyph glyph-name="H" unicode="H" horiz-adv-x="1408" 
d="M1345 129h-489v48q87 1 119.5 36t32.5 123v461h-610v-461q0 -155 152 -159v-48h-489v48q88 1 120 35.5t32 123.5v866q0 89 -31.5 122.5t-120.5 35.5v48h489v-48q-89 -2 -120.5 -35.5t-31.5 -122.5v-343h610v343q0 89 -31.5 122.5t-120.5 35.5v48h489v-48
q-89 -2 -120.5 -35.5t-31.5 -122.5v-866q0 -90 31.5 -124t120.5 -35v-48z" />
    <glyph glyph-name="I" unicode="I" horiz-adv-x="619" 
d="M562 129h-489v48q88 1 120 35.5t32 123.5v866q0 89 -31.5 122.5t-120.5 35.5v48h489v-48q-89 -2 -120.5 -35t-31.5 -123v-866q0 -154 152 -159v-48z" />
    <glyph glyph-name="J" unicode="J" horiz-adv-x="597" 
d="M556 1360q-89 -2 -120.5 -36t-31.5 -123v-839q0 -337 -235 -579q-103 -106 -214 -106q-46 0 -105 18v317h70q6 -80 37 -138q41 -77 111 -77q151 0 151 332v1072q0 90 -31.5 123.5t-120.5 35.5v48h489v-48z" />
    <glyph glyph-name="K" unicode="K" horiz-adv-x="1195" 
d="M1222 129h-323l-503 675v-468q0 -154 152 -159v-48h-489v48q88 1 120 35.5t32 123.5v865q0 90 -31.5 123.5t-120.5 35.5v48h489v-48q-89 -2 -120.5 -35.5t-31.5 -123.5v-404l247 242q164 161 164 254q0 64 -103 67v48h460v-48q-130 -16 -278 -159l-324 -313l351 -469
q181 -242 309 -242v-48z" />
    <glyph glyph-name="L" unicode="L" horiz-adv-x="960" 
d="M965 495l-86 -413h-47q-1 47 -43 47h-724v48q88 1 120 35.5t32 123.5v865q0 89 -31.5 123t-120.5 36v48h491v-48q-91 -2 -122 -35t-31 -124v-1024h130q303 0 360 318h72z" />
    <glyph glyph-name="M" unicode="M" horiz-adv-x="1813" 
d="M1800 129h-492v48q77 2 107 32t30 107q0 14 -2 34l-78 795q-171 -304 -244 -475l-251 -588h-45l-468 1164l-34 -359q-23 -243 -23 -385q0 -316 158 -325v-48h-452v48q85 20 138 146q24 57 58 206q43 185 63 402l25 266q1 11 1 41q0 71 -32 97q-27 23 -100 25v48h327
l429 -1058l246 581q138 327 183 477h357v-48q-80 -2 -114 -24q-42 -28 -42 -104q0 -13 1 -23l76 -798q12 -130 34 -168q35 -63 144 -66v-48z" />
    <glyph glyph-name="N" unicode="N" horiz-adv-x="1387" 
d="M1376 1360q-183 -17 -183 -601v-676h-47l-863 1166v-372q0 -257 18 -389q40 -295 167 -311v-48h-434v48q182 28 182 689v345q0 84 -33 115.5t-117 33.5v48h328l727 -977v297q0 613 -182 632v48h437v-48z" />
    <glyph glyph-name="O" unicode="O" horiz-adv-x="1493" 
d="M1418 829q0 -199 -111.5 -377.5t-289.5 -269.5q-161 -82 -337 -82q-258 0 -431 173t-173 431q0 294 214.5 513.5t507.5 219.5q335 0 523 -272q97 -140 97 -336zM1249 653q0 186 -76 347q-83 176 -233 262q-143 82 -267 82q-199 0 -317 -139q-111 -131 -111 -333
q0 -267 154 -466q168 -217 428 -217q189 0 309 140q113 132 113 324z" />
    <glyph glyph-name="P" unicode="P" horiz-adv-x="981" 
d="M1011 1179q0 -165 -148.5 -309.5t-314.5 -144.5q-68 0 -152 37v-426q0 -154 152 -159v-48h-489v48q89 1 120.5 35t31.5 124v866q0 89 -31.5 122.5t-120.5 35.5v48h633q319 0 319 -229zM813 1052q0 126 -54 209q-63 98 -182 98q-93 0 -181 -64v-399q128 -96 229 -96
q188 0 188 252z" />
    <glyph glyph-name="Q" unicode="Q" horiz-adv-x="1493" 
d="M1482 -67q-92 -104 -128 -137q-90 -81 -162 -81q-86 0 -293 172q-231 192 -314 229q-29 13 -57 13q-78 0 -208 -132v62q47 66 100 111q-162 67 -252 217q-87 144 -87 324q0 392 364 624q160 102 362 102q344 0 525 -281q87 -135 87 -323q0 -259 -167.5 -460t-421.5 -252
q65 -16 226 -144q148 -118 213 -118q71 0 213 138v-64zM1255 662q0 181 -80 342q-84 170 -232 261q-139 85 -267 85q-195 0 -315 -142q-114 -135 -114 -333q0 -376 288 -584q133 -96 294 -96q190 0 311 141q115 133 115 326z" />
    <glyph glyph-name="R" unicode="R" horiz-adv-x="1109" 
d="M1157 129h-240q-73 0 -128 86l-396 616v-495q0 -154 154 -159v-48h-491v48q88 1 120 35.5t32 123.5v866q0 89 -31.5 122.5t-120.5 35.5v48h636q283 0 283 -220q0 -245 -318 -427l223 -345q150 -232 277 -239v-48zM770 1046q0 119 -51 208q-61 107 -172 107
q-82 0 -154 -50v-417q117 -85 201 -85q176 0 176 237z" />
    <glyph glyph-name="S" unicode="S" horiz-adv-x="917" 
d="M862 502q0 -168 -155 -289q-144 -113 -317 -113q-131 0 -294 63v360h71q0 -139 77 -242q86 -114 220 -114q106 0 173 62t67 168q0 109 -101 204q-40 37 -193 139q-128 85 -190 138q-93 80 -93 199q0 157 146 264q131 96 295 96q89 0 237 -51v-314h-73q-7 119 -70 203
q-72 94 -186 94q-84 0 -140 -51t-56 -134q0 -102 116 -206q45 -41 200 -144q137 -92 180 -135q86 -87 86 -197z" />
    <glyph glyph-name="T" unicode="T" horiz-adv-x="1067" 
d="M1061 1073h-71q-3 287 -304 287h-54v-1024q0 -155 152 -159v-48h-489v48q88 1 120 35.5t32 123.5v1024h-69q-277 0 -286 -287h-70v380h44q13 -45 39 -45h874q34 0 34 45h48v-380z" />
    <glyph glyph-name="U" unicode="U" horiz-adv-x="1387" 
d="M1366 1360q-187 -28 -187 -625q0 -213 -2 -238q-11 -140 -67 -223q-116 -174 -416 -174q-315 0 -436 179q-59 87 -59 212v710q0 89 -31.5 123t-120.5 36v48h489v-48q-89 -2 -120.5 -36t-31.5 -123v-702q0 -191 146 -283q84 -53 207 -53q256 0 334 180q38 88 38 269
q0 297 -14 414q-39 322 -170 334v48h441v-48z" />
    <glyph glyph-name="V" unicode="V" horiz-adv-x="1259" 
d="M1259 1360q-109 -1 -207 -247l-408 -1028h-59l-360 1045q-79 228 -187 230v48h354v-48q-39 -1 -39 -29q0 -16 11 -48l317 -914l203 515q84 213 84 342q0 132 -158 134v48h449v-48z" />
    <glyph glyph-name="W" unicode="W" horiz-adv-x="1984" 
d="M1983 1360q-109 -2 -219 -278l-400 -1000h-60l-290 845q-99 -176 -158 -327l-204 -518h-58l-337 994q-68 200 -130 252q-35 29 -71 32v48h349v-48q-37 -1 -37 -33q0 -8 4 -20l317 -938l167 420q73 184 73 350q0 212 -168 221v48h354v-48q-43 -1 -43 -32q0 -9 4 -21
l321 -938l204 517q94 238 94 339q0 80 -43 109q-35 24 -119 26v48h450v-48z" />
    <glyph glyph-name="X" unicode="X" horiz-adv-x="1237" 
d="M1224 129h-398v48q40 2 40 31q0 9 -7 21l-288 481q-228 -298 -228 -432q0 -99 135 -101v-48h-475v48q131 11 294 239l245 343l-222 371q-132 220 -254 230v48h390v-48q-40 -2 -40 -25q0 -8 4 -15l240 -400q176 247 176 342q0 96 -152 98v48h479v-48q-138 -20 -292 -230
l-187 -255l319 -524q64 -106 144 -149q32 -17 77 -25v-48z" />
    <glyph glyph-name="Y" unicode="Y" horiz-adv-x="1195" 
d="M1236 1360q-109 -2 -239 -224l-303 -516v-284q0 -154 152 -159v-48h-489v48q88 1 120 35.5t32 123.5v284l-250 502q-49 99 -87 149q-66 88 -137 89v48h363v-48q-38 -1 -38 -27q0 -10 4 -18l314 -624q243 380 243 554q0 70 -49 96q-34 18 -114 19v48h478v-48z" />
    <glyph glyph-name="Z" unicode="Z" horiz-adv-x="1216" 
d="M1190 497l-82 -412h-48q-2 44 -24 44h-958v58l823 1173h-296q-189 0 -276 -50q-114 -66 -122 -237h-69v380h46q2 -45 38 -45h896v-59l-826 -1172h301q226 0 337 54q149 72 188 266h72z" />
    <glyph glyph-name="bracketleft" unicode="[" horiz-adv-x="640" 
d="M539 -101h-325v1645h325v-62h-182v-1521h182v-62z" />
    <glyph glyph-name="backslash" unicode="\" horiz-adv-x="1045" 
d="M932 92h-110l-709 1463h110z" />
    <glyph glyph-name="bracketright" unicode="]" horiz-adv-x="640" 
d="M419 -101h-284v62h141v1520h-141v61h284v-1643z" />
    <glyph glyph-name="asciicircum" unicode="^" horiz-adv-x="960" 
d="M923 691h-92l-350 586l-350 -586h-94l431 717h30z" />
    <glyph glyph-name="underscore" unicode="_" horiz-adv-x="1024" 
d="M1036 -256h-1048v102h1048v-102z" />
    <glyph glyph-name="grave" unicode="`" horiz-adv-x="683" 
d="M409 1214l-36 -21l-139 156q-66 74 -66 97q0 62 60 62q36 0 67 -63z" />
    <glyph glyph-name="a" unicode="a" horiz-adv-x="960" 
d="M948 249q-152 -149 -248 -149q-86 0 -86 96v148q-238 -244 -375 -244q-79 0 -131 62q-50 59 -50 139q0 217 556 468v120q0 127 -124 127q-114 0 -191 -115q-64 -95 -77 -220h-67v240q230 152 433 152q97 0 137.5 -43t40.5 -141v-625q0 -45 41 -45q40 0 141 92v-62z
M625 688q-144 -30 -261 -103q-154 -96 -154 -217q0 -62 38.5 -99t100.5 -37q145 0 219 166q55 123 57 290z" />
    <glyph glyph-name="b" unicode="b" horiz-adv-x="1045" 
d="M1007 712q0 -127 -54 -252t-147 -208q-84 -75 -168 -101q-71 -22 -196 -22h-92q-82 0 -106 -5q-60 -12 -83 -58h-67q57 103 57 237v985q0 88 -67 88q-31 0 -85 -23v49l333 138v-41q-28 -16 -28 -53v-685q140 160 184 200q124 111 238 111q138 0 215 -115q66 -99 66 -245z
M857 610q0 127 -45 215q-57 112 -173 112q-158 0 -261 -183q-87 -155 -87 -325q0 -64 13 -144q122 -75 260 -75q156 0 232 129q61 104 61 271z" />
    <glyph glyph-name="c" unicode="c" horiz-adv-x="917" 
d="M842 374q-219 -274 -424 -274q-168 0 -274 134q-99 125 -99 297q0 215 140 375q146 168 358 168q125 0 271 -66v-261h-73q-3 116 -72 189q-71 77 -185 77q-142 0 -224 -128q-71 -110 -71 -260q0 -154 75 -265q86 -127 233 -127q149 0 345 211v-70z" />
    <glyph glyph-name="d" unicode="d" horiz-adv-x="1067" 
d="M1048 201l-255 -100h-47v323q-124 -158 -175 -207q-122 -117 -236 -117q-138 0 -220 131q-71 113 -71 259q0 203 145 387q155 196 353 196q86 0 204 -53v269q0 85 -65 85q-34 0 -86 -21v55l346 132v-41q-43 -17 -43 -68v-1118q0 -83 71 -83q32 0 79 22v-51zM758 766
q0 68 -12 121q-139 115 -268 115q-139 0 -218 -154q-64 -125 -64 -278q0 -120 53 -219q64 -119 175 -119q147 0 249 201q85 168 85 333z" />
    <glyph glyph-name="e" unicode="e" horiz-adv-x="896" 
d="M856 380q-223 -280 -435 -280q-161 0 -273 141q-104 131 -104 296q0 198 126 360q136 174 329 174q149 0 239 -108q83 -100 88 -253h-645q-2 -39 -2 -57q0 -160 81 -279q92 -135 245 -135q172 0 351 207v-66zM662 760q-11 105 -64 171q-61 77 -160 77q-98 0 -168 -77
q-65 -70 -80 -171h472z" />
    <glyph glyph-name="f" unicode="f" horiz-adv-x="640" 
d="M695 1223h-72q-5 184 -123 184q-80 0 -121 -92q-32 -71 -32 -160q0 -187 173 -187h83v-47h-245v-588q0 -84 34.5 -119t118.5 -37v-48h-458v48q84 2 118.5 37t34.5 119v588h-153v47h44q80 0 118 135q44 156 130 261q108 132 248 132q37 0 102 -20v-253z" />
    <glyph glyph-name="g" unicode="g" horiz-adv-x="1024" 
d="M1005 33q0 -175 -237 -279q-187 -82 -388 -82q-143 0 -258 45q-156 61 -156 182q0 123 193 213q122 57 297 91q-73 53 -73 111q0 69 135 175q-11 -1 -36 -5q-77 -12 -108 -12q-117 0 -196 60q-88 66 -88 179q0 150 148 259q137 101 291 101q65 0 185 -49q137 -56 215 -56
h71v-47h-204q24 -52 24 -95q0 -83 -60 -164q-38 -51 -126 -127q-119 -103 -119 -145q0 -58 192 -121q135 -45 190 -77q108 -64 108 -157zM663 769q0 97 -50 165q-56 77 -149 77q-100 0 -159 -74q-54 -67 -54 -170q0 -98 52 -167q57 -76 152 -76t154 77q54 70 54 168z
M864 -24q0 62 -89 107q-17 8 -142 53l-115 41q-411 -104 -411 -261q0 -99 129 -148q92 -35 209 -35q143 0 262 51q157 67 157 192z" />
    <glyph glyph-name="h" unicode="h" horiz-adv-x="1131" 
d="M1089 129h-349v48q44 2 44 54v597q0 130 -106 130q-151 0 -253 -224q-84 -184 -84 -355q0 -202 123 -202h40v-48h-454v48q83 2 117 37.5t34 118.5v987q0 59 -66 59q-37 0 -85 -19v48l344 137v-43q-41 -16 -41 -72v-688q234 332 420 332q163 0 163 -219v-522
q0 -85 34 -119.5t119 -36.5v-48z" />
    <glyph glyph-name="i" unicode="i" horiz-adv-x="555" 
d="M384 1393q0 -40 -28 -67.5t-68 -27.5t-67.5 27.5t-27.5 67.5q0 39 27 67.5t66 28.5q41 0 69.5 -27.5t28.5 -68.5zM517 129h-458v48q84 2 118.5 37t34.5 119v547q0 63 -72 63q-26 0 -57 -13q-16 -7 -24 -9v51l256 101h49v-740q0 -84 34.5 -119t118.5 -37v-48z" />
    <glyph glyph-name="j" unicode="j" horiz-adv-x="533" 
d="M378 1393q0 -39 -28 -67t-67 -28q-40 0 -67.5 27.5t-27.5 67.5q0 38 27.5 66.5t65.5 28.5q41 0 69 -27t28 -68zM358 204q0 -172 -103 -341q-117 -192 -278 -192q-50 0 -107 23v271h72q1 -77 26 -130q34 -71 101 -71t106 87q31 70 31 145v849q0 93 -71 93q-34 0 -81 -22
v51l259 104h45v-867z" />
    <glyph glyph-name="k" unicode="k" horiz-adv-x="1024" 
d="M1049 129h-308l-386 489l-1 -308q0 -130 154 -133v-48h-457v48q84 2 118 37t34 119v936q0 107 -72 107q-29 0 -80 -16v48l344 137v-41q-40 -13 -40 -60v-826l229 195q75 64 75 122q0 62 -120 64v46h469v-46q-123 -2 -305 -153l-203 -168l197 -250q197 -250 352 -251v-48z
" />
    <glyph glyph-name="l" unicode="l" horiz-adv-x="555" 
d="M518 129h-459v48q84 2 119 37t35 119v951q0 92 -76 92q-32 0 -78 -16v48l349 137v-41q-43 -21 -43 -73v-1098q0 -84 34.5 -119t118.5 -37v-48z" />
    <glyph glyph-name="m" unicode="m" horiz-adv-x="1643" 
d="M1607 129h-348v48q43 1 43 47v573q0 161 -106 161q-145 0 -235 -219q-71 -172 -71 -341q0 -110 28 -157q37 -62 136 -64v-48h-345v48q42 2 42 37v615q0 51 -24 86q-28 41 -76 41q-148 0 -238 -219q-70 -171 -70 -343q0 -109 27 -155q36 -62 135 -62v-48h-453v48
q82 2 116 37.5t34 118.5v524q0 83 -65 83q-32 0 -85 -22v50l255 102h47v-304q109 145 163 197q114 109 223 109q163 0 163 -233q0 -26 -1 -63q113 142 166 191q115 106 222 106q76 0 120 -51.5t44 -128.5v-560q0 -84 34.5 -119t118.5 -37v-48z" />
    <glyph glyph-name="n" unicode="n" horiz-adv-x="1131" 
d="M1089 129h-348v48q42 2 42 49v618q0 115 -97 115q-157 0 -260 -226q-83 -183 -83 -362q0 -106 29 -145q35 -47 135 -49v-48h-455v48q84 2 118 37t34 119v511q0 99 -66 99q-24 0 -86 -25v50l260 106h42v-329q107 143 177 209q127 120 236 120q169 0 169 -217v-524
q0 -84 34.5 -119t118.5 -37v-48z" />
    <glyph glyph-name="o" unicode="o" horiz-adv-x="1003" 
d="M958 637q0 -215 -144 -374q-149 -163 -362 -163q-192 0 -303 122q-107 118 -107 312q0 213 142 372q148 165 358 165q194 0 305 -119.5t111 -314.5zM822 526q0 121 -53 232q-56 118 -151 182q-79 53 -161 53q-140 0 -214 -104q-66 -91 -66 -236q0 -168 103 -309
q113 -154 275 -154q127 0 202 108q65 95 65 228z" />
    <glyph glyph-name="p" unicode="p" horiz-adv-x="1088" 
d="M1043 702q0 -219 -142 -403q-153 -199 -366 -199q-89 0 -197 47v-236q0 -85 35 -121t120 -37v-49h-457v49q83 1 117.5 37.5t34.5 120.5v956q0 75 -59 75q-21 0 -93 -26v50l257 105h45v-325q107 147 174 211q122 116 238 116q139 0 221 -120q72 -106 72 -251zM892 611
q0 129 -44 223q-58 124 -172 124q-159 0 -263 -209q-86 -173 -86 -348q0 -47 11 -126q140 -114 248 -114q150 0 236 158q70 129 70 292z" />
    <glyph glyph-name="q" unicode="q" horiz-adv-x="1067" 
d="M1051 -298h-458v48q83 1 117 37.5t34 120.5v500q-126 -144 -193 -200q-129 -108 -247 -108q-128 0 -200 125q-60 104 -60 241q0 156 88 305q90 153 228 218q114 54 285 52l96 -1q138 -1 167 61h53q-63 -110 -63 -297v-896q0 -84 35 -120.5t118 -37.5v-48zM757 762
q0 57 -13 130q-134 78 -253 78q-145 0 -224 -144q-64 -117 -64 -275q0 -121 44 -209q57 -113 167 -113q157 0 259 197q84 163 84 336z" />
    <glyph glyph-name="r" unicode="r" horiz-adv-x="811" 
d="M787 748h-71q-1 181 -105 181q-128 0 -205 -222q-59 -171 -59 -328q0 -125 51 -166q45 -36 173 -36v-48h-520v48q84 2 119 37t35 119v519q0 88 -65 88q-27 0 -89 -22v48l263 107h44v-325q189 323 350 323q33 0 79 -15v-308z" />
    <glyph glyph-name="s" unicode="s" horiz-adv-x="747" 
d="M694 409q0 -132 -119 -224q-110 -85 -246 -85q-107 0 -247 60v277h68q7 -113 63 -188q64 -86 171 -86q75 0 125 45.5t50 120.5q0 74 -61 133q-28 27 -125 88l-128 81q-132 93 -132 193q0 117 109 188q94 61 218 61q91 0 196 -40v-262h-72q-1 96 -52 167q-57 78 -150 78
q-52 0 -85.5 -33.5t-33.5 -85.5q0 -63 62 -119q28 -26 115 -80q156 -98 177 -115q97 -80 97 -174z" />
    <glyph glyph-name="t" unicode="t" horiz-adv-x="597" 
d="M579 923h-245v-642q0 -63 50 -63q49 0 146 80q11 9 17 13v-58q-170 -153 -271 -153q-94 0 -94 145v678h-153v45q87 0 124.5 35.5t37.5 122.5v151l205 83v-52q-63 -15 -63 -142q0 -137 66 -176q37 -22 97 -22h83v-45z" />
    <glyph glyph-name="u" unicode="u" horiz-adv-x="1131" 
d="M1088 207l-276 -110h-49v332q-108 -147 -177 -212q-123 -117 -241 -117q-165 0 -165 234v547q0 87 -93 87q-20 0 -56 -6v47l343 61v-39q-42 -12 -42 -69v-619q0 -131 99 -131q152 0 257 224q86 184 86 356q0 178 -107 178q-19 0 -57 -8v47l348 61v-39q-44 -7 -44 -69
v-643q0 -93 69 -93q41 0 105 30v-49z" />
    <glyph glyph-name="v" unicode="v" horiz-adv-x="981" 
d="M991 997q-114 -12 -215 -251l-281 -663h-53l-255 720q-68 193 -174 194v48h322v-48q-38 0 -38 -36q0 -20 10 -48l213 -600l126 313q63 156 63 252q0 117 -145 119v48h427v-48z" />
    <glyph glyph-name="w" unicode="w" horiz-adv-x="1536" 
d="M1550 997q-81 -12 -146 -114q-35 -55 -85 -174l-262 -626h-60l-214 616q-48 -90 -73 -142l-35 -72q-24 -49 -34 -74l-134 -328h-60l-230 667q-38 111 -64 154q-53 89 -127 93v48h320v-48q-39 -1 -39 -31q0 -14 7 -34l214 -621l113 272q72 173 72 293q0 118 -142 121v48
h325v-48q-43 0 -43 -29q0 -13 10 -42l214 -615l124 302q66 161 66 267q0 117 -146 117v48h429v-48z" />
    <glyph glyph-name="x" unicode="x" horiz-adv-x="1067" 
d="M1050 129h-358v48q33 0 33 21q0 18 -17 38l-202 293q-150 -177 -150 -266q0 -84 120 -86v-48h-445v48q126 11 310 234l135 164l-168 238q-128 181 -237 184v48h366v-48q-40 -1 -40 -28q0 -12 8 -24l169 -246q130 150 130 224q0 72 -99 74v48h405v-48q-102 -5 -229 -134
q-46 -47 -176 -211l202 -285q131 -185 243 -190v-48z" />
    <glyph glyph-name="y" unicode="y" horiz-adv-x="960" 
d="M976 997q-64 -4 -98 -41q-43 -47 -89 -165l-343 -890q-79 -205 -298 -224l-162 191l54 43q79 -98 176 -98q105 0 159 107q17 34 67 162l16 41l-273 679q-38 95 -65 130q-49 64 -122 65v48h324v-48q-38 -2 -38 -24q0 -10 6 -25l248 -617l98 261q66 176 66 292
q0 113 -143 113v48h417v-48z" />
    <glyph glyph-name="z" unicode="z" horiz-adv-x="917" 
d="M853 83h-47q-3 46 -82 46h-663v48l584 820h-188q-253 0 -266 -225h-66v318h48v-8q0 -37 52 -37h604v-49l-586 -819h214q319 0 329 256h67v-350z" />
    <glyph glyph-name="braceleft" unicode="{" horiz-adv-x="981" 
d="M832 -320q-152 27 -249 129q-103 107 -103 257q0 61 26 177q19 85 19 112q0 96 -72 163q-68 62 -166 73v38q239 52 239 219q0 47 -16 122q-27 126 -27 188q0 151 101 257q96 102 248 127v-40q-94 -14 -155 -73q-67 -64 -67 -155q0 -46 13 -115q30 -160 30 -210
q0 -224 -286 -336q283 -116 283 -350q0 -49 -27 -179q-17 -82 -17 -135q0 -180 226 -233v-36z" />
    <glyph glyph-name="bar" unicode="|" horiz-adv-x="1045" 
d="M577 -296h-109v1841h109v-1841z" />
    <glyph glyph-name="braceright" unicode="}" horiz-adv-x="981" 
d="M695 593q-239 -52 -239 -220q0 -52 15 -122q28 -131 28 -187q0 -151 -101 -257q-96 -102 -248 -127v40q94 14 155 73q66 63 66 155q0 48 -12 114q-30 164 -30 211q0 223 285 336q-282 116 -282 349q0 55 26 180q18 87 18 135q0 180 -226 233v36q151 -28 249 -129
q103 -107 103 -257q0 -57 -27 -177q-18 -80 -18 -113q0 -97 73 -162q64 -58 165 -74v-37z" />
    <glyph glyph-name="asciitilde" unicode="~" horiz-adv-x="1365" 
d="M1219 918q-3 -121 -65 -200q-68 -88 -185 -88q-84 0 -192 45l-182 76q-151 63 -219 63q-147 0 -182 -182h-47q4 118 62 197q66 91 178 91q96 0 381 -122q152 -65 219 -65q81 0 130 53q47 50 54 132h48z" />
    <glyph glyph-name="nonbreakingspace" unicode="&#xa0;" horiz-adv-x="500" 
 />
    <glyph glyph-name="exclamdown" unicode="&#xa1;" horiz-adv-x="650" 
d="M360 981q0 -36 -27 -63t-63 -27q-37 0 -63.5 26.5t-26.5 63.5q0 36 26.5 63t62.5 27q37 0 64 -26.5t27 -63.5zM438 81q-77 0 -220 -176v817l105 106v-480q0 -63 115 -267z" />
    <glyph glyph-name="cent" unicode="&#xa2;" horiz-adv-x="917" 
d="M842 554q-170 -209 -325 -258v-167h-72v153q-218 0 -333 181q-67 106 -67 248q0 185 110 339q114 161 290 199v159h72v-151q154 0 296 -62v-263h-69q-8 103 -66 175q-62 78 -161 88v-776q138 2 325 213v-78zM445 423v772q-123 -21 -194 -143q-63 -108 -63 -241
q0 -137 61 -243q71 -120 196 -145z" />
    <glyph glyph-name="sterling" unicode="&#xa3;" horiz-adv-x="1195" 
d="M1196 431q-53 -142 -92 -205q-78 -126 -169 -126q-79 0 -253.5 64.5t-253.5 64.5q-125 0 -215 -152h-59q29 51 129 194q89 127 113 169q63 110 63 190q0 91 -64 169h-241v69h106q56 0 56 35q0 11 -11 39q-30 76 -30 137q0 158 158 264q141 94 307 94q108 0 303 -62v-302
h-72q-13 127 -87 213q-81 95 -204 95q-109 0 -179.5 -70.5t-70.5 -179.5q0 -125 97 -197q87 -66 216 -66h145v-69h-287q13 -30 13 -57q0 -74 -75 -190q-17 -26 -124 -168q36 10 65 10q56 0 232 -59q220 -74 260 -74q101 0 180 185z" />
    <glyph glyph-name="currency" unicode="&#xa4;" horiz-adv-x="1024" 
d="M995 382l-58 -55l-143 143q-134 -103 -270 -103q-76 0 -158 26q-91 29 -137 77l-146 -143l-56 55l144 145q-102 117 -102 282q0 157 102 283l-144 141l56 57l146 -142q118 102 285 102q162 0 280 -102l143 142l58 -57l-144 -141q103 -132 103 -281q0 -154 -103 -284z
M874 808q0 96 -50.5 182.5t-133.5 131.5q-86 47 -178 47q-152 0 -257 -105.5t-105 -257.5q0 -150 105.5 -254.5t255.5 -104.5t256.5 105.5t106.5 255.5z" />
    <glyph glyph-name="yen" unicode="&#xa5;" horiz-adv-x="1195" 
d="M1236 1360q-109 -2 -239 -224l-262 -446h417v-72h-458v-145h458v-72h-458v-65q0 -154 152 -159v-48h-489v48q88 1 120 35.5t32 123.5v65h-401v72h401v145h-401v72h366l-215 432q-49 99 -87 149q-66 88 -137 89v48h363v-48q-38 -1 -38 -27q0 -10 4 -18l314 -624
q243 380 243 554q0 70 -49 96q-34 18 -114 19v48h478v-48z" />
    <glyph glyph-name="brokenbar" unicode="&#xa6;" horiz-adv-x="410" 
d="M244 809h-83v742h83v-742zM244 -313h-83v742h83v-742z" />
    <glyph glyph-name="section" unicode="&#xa7;" horiz-adv-x="853" 
d="M763 622q0 -206 -233 -314q116 -80 157 -125q73 -79 73 -178q0 -150 -137 -244q-123 -84 -279 -84q-115 0 -238 57v273h74q2 -111 55 -184q60 -83 167 -83q92 0 160.5 61.5t68.5 152.5q0 89 -84 162q-31 27 -160 105q-139 84 -196 141q-96 96 -96 212q0 215 255 317
q-114 73 -157 120q-72 78 -72 177q0 148 113 230q100 73 254 73q111 0 222 -44v-253h-70q-14 102 -66 167q-60 76 -156 76q-77 0 -130.5 -50t-53.5 -127q0 -83 76 -153q33 -30 146 -102q154 -98 209 -154q98 -101 98 -229zM659 564q0 90 -85 169q-47 43 -163 111
q-201 -50 -201 -215q0 -85 99 -171q50 -43 171 -116q179 89 179 222z" />
    <glyph glyph-name="dieresis" unicode="&#xa8;" horiz-adv-x="683" 
d="M626 1350q0 -42 -29.5 -71.5t-71.5 -29.5t-71.5 29.5t-29.5 71.5q0 41 29 71t70 30q43 0 73 -29t30 -72zM262 1351q0 -42 -29.5 -71.5t-71.5 -29.5t-71 29.5t-29 71.5q0 41 29 70.5t70 29.5q43 0 72.5 -28.5t29.5 -71.5z" />
    <glyph glyph-name="copyright" unicode="&#xa9;" horiz-adv-x="1567" 
d="M1491 729q0 -296 -206 -501.5t-502 -205.5q-297 0 -502 205t-205 502q0 296 205.5 502t501.5 206q297 0 502.5 -205.5t205.5 -502.5zM1437 728q0 177 -90.5 332t-244.5 238.5t-319 83.5q-274 0 -464 -190t-190 -464t190 -464t464 -190q273 0 463.5 190.5t190.5 463.5z
M1140 512q-128 -218 -349 -218q-189 0 -309 128q-117 125 -117 315q0 189 120 321q123 136 310 136q80 0 172 -37q37 -15 62 -15q39 0 40 55h30l19 -293h-29q-70 246 -284 246q-150 0 -234 -133q-71 -113 -71 -272q0 -168 75 -272q85 -118 247 -118q173 0 296 172z" />
    <glyph glyph-name="ordfeminine" unicode="&#xaa;" horiz-adv-x="640" 
d="M628 896q-100 -100 -164 -100q-57 0 -57 68v95q-154 -160 -245 -160q-54 0 -89 39.5t-35 93.5q0 138 369 310v68q0 95 -78 95q-80 0 -131 -74q-44 -63 -50 -148h-46v157q151 101 288 101q117 0 117 -93v-434q0 -38 24 -38q33 0 97 58v-38zM413 1183q-96 -20 -173 -67
q-101 -62 -101 -142q0 -90 91 -90q96 0 145 108q36 80 38 191z" />
    <glyph glyph-name="guillemotleft" unicode="&#xab;" horiz-adv-x="854" 
d="M804 129h-93l-340 400l340 393h87l-226 -393zM497 129h-89l-338 400l340 393h87l-226 -393z" />
    <glyph glyph-name="logicalnot" unicode="&#xac;" horiz-adv-x="1365" 
d="M1222 490h-108v466h-972v108h1080v-574z" />
    <glyph glyph-name="sfthyphen" unicode="&#xad;" horiz-adv-x="1155" 
d="M1106 926h-1070v81h1070v-81z" />
    <glyph glyph-name="sfthyphen" unicode="&#x2212;" horiz-adv-x="1155" 
d="M1106 926h-1070v81h1070v-81z" />
    <glyph glyph-name="registered" unicode="&#xae;" horiz-adv-x="1567" 
d="M1491 729q0 -296 -206 -501.5t-502 -205.5q-297 0 -502 205t-205 502q0 296 205.5 502t501.5 206q297 0 502.5 -205.5t205.5 -502.5zM1437 728q0 177 -90.5 332t-244.5 238.5t-319 83.5q-274 0 -464 -190t-190 -464t190 -464t464 -190q273 0 463.5 190.5t190.5 463.5z
M1190 304h-204l-81 114l-210 291h-71v-228q0 -110 47 -132q17 -8 81 -9v-36h-366v36q83 0 104 29q17 23 17 111v526q0 78 -21 103q-24 29 -100 28v32h254q129 0 181 -9q102 -18 157 -78q51 -56 51 -137q0 -94 -66 -152q-60 -53 -157 -62l165 -224q49 -67 62 -82
q41 -47 78 -65.5t79 -19.5v-36zM899 957q0 168 -189 168q-45 0 -86 -17v-357q20 -1 30 -1q245 0 245 207z" />
    <glyph glyph-name="macron" unicode="&#xaf;" horiz-adv-x="683" 
d="M603 1297h-521v108h521v-108z" />
    <glyph glyph-name="macron" unicode="&#x2c9;" horiz-adv-x="683" 
d="M603 1297h-521v108h521v-108z" />
    <glyph glyph-name="degree" unicode="&#xb0;" horiz-adv-x="768" 
d="M713 1139q0 -127 -89 -216t-216 -89q-128 0 -216.5 88.5t-88.5 216.5t88.5 216.5t216.5 88.5q129 0 217 -88t88 -217zM649 1139q0 102 -69.5 171.5t-171.5 69.5q-101 0 -171 -70t-70 -171q0 -102 69.5 -171.5t171.5 -69.5q101 0 171 70t70 171z" />
    <glyph glyph-name="plusminus" unicode="&#xb1;" horiz-adv-x="946" 
d="M835 452h-321v-253h-84v253h-325v83h325v328h84v-328h321v-83zM835 46h-730v83h730v-83z" />
    <glyph glyph-name="twosuperior" unicode="&#xb2;" horiz-adv-x="725" 
d="M640 989l-48 -239h-33q-1 27 -18 27h-476v37q177 197 239 277q161 208 161 316q0 93 -89 93q-131 0 -188 -222h-49v175q168 88 303 88q173 0 173 -151q0 -68 -60 -143q-27 -34 -113 -113l-254 -234h313q85 0 104 89h35z" />
    <glyph glyph-name="threesuperior" unicode="&#xb3;" horiz-adv-x="725" 
d="M637 1038q0 -122 -113 -205q-103 -76 -229 -76q-89 0 -188 36v228h49q7 -86 55 -150q55 -72 136 -72q71 0 111 46t40 118q0 192 -267 200v37q87 14 148 64q70 58 70 140q0 92 -87 92q-75 0 -125 -76q-44 -66 -47 -146h-49v176q177 90 290 90q153 0 153 -121
q0 -84 -97 -148q-52 -34 -170 -80q152 0 205 -14q115 -30 115 -139z" />
    <glyph glyph-name="acute" unicode="&#xb4;" horiz-adv-x="683" 
d="M516 1449q0 -25 -35 -64l-169 -188l-42 29l128 238q24 44 57 44q24 0 42.5 -17.5t18.5 -41.5z" />
    <glyph glyph-name="micro" unicode="&#xb5;" horiz-adv-x="1045" 
d="M1029 329q-6 -97 -50 -159q-52 -73 -143 -73q-141 0 -161 195q-175 -191 -322 -191q-125 0 -183 122v-44q1 -33 1 -46q1 -97 7 -147q4 -34 19 -88q22 -81 22 -115q0 -38 -20 -66q-22 -31 -59 -31t-60 30q-22 27 -22 65q0 32 21 110q29 106 32 187q1 94 8 375l1 36v556
h135v-610q0 -225 167 -225q102 0 253 143v692h132v-636q0 -95 7 -129q17 -85 77 -85q69 0 95 134h43z" />
    <glyph glyph-name="micro" unicode="&#x3bc;" horiz-adv-x="1045" 
d="M1029 329q-6 -97 -50 -159q-52 -73 -143 -73q-141 0 -161 195q-175 -191 -322 -191q-125 0 -183 122v-44q1 -33 1 -46q1 -97 7 -147q4 -34 19 -88q22 -81 22 -115q0 -38 -20 -66q-22 -31 -59 -31t-60 30q-22 27 -22 65q0 32 21 110q29 106 32 187q1 94 8 375l1 36v556
h135v-610q0 -225 167 -225q102 0 253 143v692h132v-636q0 -95 7 -129q17 -85 77 -85q69 0 95 134h43z" />
    <glyph glyph-name="paragraph" unicode="&#xb6;" horiz-adv-x="896" 
d="M899 1372q-95 -5 -118 -41q-17 -27 -17 -134v-1525h-58v1682h-187v-1682h-59v1011q-467 -10 -467 348q0 120 68 219q71 103 185 132q101 26 273 26h380v-36z" />
    <glyph glyph-name="periodcentered" unicode="&#xb7;" horiz-adv-x="405" 
d="M326 768q0 -50 -35.5 -85t-85.5 -35q-49 0 -84.5 35.5t-35.5 84.5t34.5 85t83.5 36q51 0 87 -35t36 -86z" />
    <glyph glyph-name="periodcentered" unicode="&#x2219;" horiz-adv-x="405" 
d="M326 768q0 -50 -35.5 -85t-85.5 -35q-49 0 -84.5 35.5t-35.5 84.5t34.5 85t83.5 36q51 0 87 -35t36 -86z" />
    <glyph glyph-name="cedilla" unicode="&#xb8;" horiz-adv-x="683" 
d="M543 -91q0 -66 -60 -106q-53 -36 -122 -36q-56 0 -144 25v55q81 -29 128 -29q86 0 86 72q0 78 -99 78h-54v184h54v-135q25 2 37 2q174 0 174 -110z" />
    <glyph glyph-name="onesuperior" unicode="&#xb9;" horiz-adv-x="725" 
d="M551 766h-348v36h31q77 0 77 69v467q0 77 -54 77q-32 0 -89 -20v35l309 110v-30q-33 -6 -33 -51v-588q0 -69 70 -69h37v-36z" />
    <glyph glyph-name="ordmasculine" unicode="&#xba;" horiz-adv-x="661" 
d="M638 1149q0 -139 -97 -246t-235 -107q-127 0 -200.5 79t-73.5 206q0 140 94 246q97 110 235 110q130 0 205 -79q72 -78 72 -209zM548 1079q0 110 -64 203q-71 104 -177 104q-91 0 -141 -68q-45 -61 -45 -155q0 -111 67 -206q74 -104 181 -104q87 0 136 72q43 63 43 154z
" />
    <glyph glyph-name="guillemotright" unicode="&#xbb;" horiz-adv-x="854" 
d="M784 529l-338 -400h-89l226 400l-226 393h87zM483 529l-340 -400h-93l232 400l-226 393h87z" />
    <glyph glyph-name="onequarter" unicode="&#xbc;" horiz-adv-x="1749" 
d="M1664 329h-113v-104q0 -76 66 -76h23v-35h-331v35h30q79 0 79 76v104h-340v36l228 265q34 40 193 256h52v-489h113v-68zM1377 1542l-926 -1445h-88l928 1445h86zM558 766h-348v36h31q77 0 77 69v467q0 77 -54 77q-32 0 -89 -20v35l309 112v-32q-33 -6 -33 -51v-588
q0 -69 70 -69h37v-36zM1418 397v276q-109 -96 -257 -276h257z" />
    <glyph glyph-name="onehalf" unicode="&#xbd;" horiz-adv-x="1749" 
d="M1663 333l-48 -239h-33q-1 28 -17 28h-477v36q181 201 239 276q162 209 162 316q0 95 -90 95q-130 0 -188 -223h-49v180q168 84 304 84q173 0 173 -152q0 -76 -81 -168q-29 -33 -140 -131q-79 -70 -207 -191h313q88 0 104 89h35zM1377 1542l-926 -1448h-88l928 1448h86z
M558 766h-348v36h31q77 0 77 70v466q0 77 -54 77q-31 0 -89 -20v35l309 112v-32q-33 -6 -33 -51v-587q0 -70 70 -70h37v-36z" />
    <glyph glyph-name="threequarters" unicode="&#xbe;" horiz-adv-x="1749" 
d="M1665 329h-114v-104q0 -76 66 -76h23v-35h-326v35h26q78 0 78 76v104h-340v36l219 253q114 132 202 268h52v-489h114v-68zM1400 1542l-924 -1445h-90l928 1445h86zM644 1038q0 -122 -113 -205q-104 -76 -229 -76q-90 0 -188 36v228h49q7 -86 55 -150q55 -72 136 -72
q71 0 111 46t40 118q0 192 -267 200v37q87 14 148 64q70 58 70 140q0 92 -87 92q-75 0 -125 -76q-44 -66 -47 -146h-49v176q177 90 290 90q153 0 153 -121q0 -129 -267 -228q153 0 205 -14q115 -31 115 -139zM1418 397v276q-111 -98 -257 -276h257z" />
    <glyph glyph-name="questiondown" unicode="&#xbf;" horiz-adv-x="917" 
d="M603 886q0 -50 -35 -85t-85 -35t-84.5 35t-34.5 85q0 49 34 84t83 35q51 0 86.5 -34t35.5 -85zM782 -180q-273 -151 -505 -151q-120 0 -197 51q-90 59 -90 174q0 96 68 190q38 53 141 151q124 118 168 192q63 105 64 243h100q-2 -155 -43 -261q-36 -93 -138 -227
q-142 -186 -142 -284q0 -79 49.5 -125.5t129.5 -46.5q144 0 239 130q84 115 90 266h66v-302z" />
    <glyph glyph-name="Agrave" unicode="&#xc0;" horiz-adv-x="1237" 
d="M1235 129h-359v48h23q17 0 17 33q0 10 -4 22l-120 348h-437q-69 -194 -69 -289q0 -114 118 -114h53v-48h-448v48q113 6 204 239l410 1045h59l354 -1022q38 -110 69 -162q58 -97 130 -100v-48zM770 641l-182 532l-210 -532h392zM725 1537l-36 -21l-139 156q-66 74 -66 97
q0 62 60 62q36 0 67 -63z" />
    <glyph glyph-name="multiply" unicode="&#xd7;" horiz-adv-x="946" 
d="M802 219l-58 -57l-277 275l-277 -275l-59 57l275 278l-275 278l62 56l274 -276l277 276l58 -56l-279 -278z" />
    <glyph glyph-name="agrave" unicode="&#xe0;" horiz-adv-x="960" 
d="M948 249q-152 -149 -248 -149q-86 0 -86 96v148q-238 -244 -375 -244q-79 0 -131 62q-50 59 -50 139q0 217 556 468v120q0 127 -124 127q-114 0 -191 -115q-64 -95 -77 -220h-67v240q230 152 433 152q97 0 137.5 -43t40.5 -141v-625q0 -45 41 -45q40 0 141 92v-62z
M625 688q-144 -30 -261 -103q-154 -96 -154 -217q0 -62 38.5 -99t100.5 -37q145 0 219 166q55 123 57 290zM595 1214l-36 -21l-139 156q-66 74 -66 97q0 62 60 62q36 0 67 -63z" />
    <glyph glyph-name="acircumflex" unicode="&#xe2;" horiz-adv-x="960" 
d="M948 249q-152 -149 -248 -149q-86 0 -86 96v148q-238 -244 -375 -244q-79 0 -131 62q-50 59 -50 139q0 217 556 468v120q0 127 -124 127q-114 0 -191 -115q-64 -95 -77 -220h-67v240q230 152 433 152q97 0 137.5 -43t40.5 -141v-625q0 -45 41 -45q40 0 141 92v-62z
M625 688q-144 -30 -261 -103q-154 -96 -154 -217q0 -62 38.5 -99t100.5 -37q145 0 219 166q55 123 57 290zM754 1234h-66l-214 126l-211 -126h-68l279 242z" />
    <glyph glyph-name="ccedilla" unicode="&#xe7;" horiz-adv-x="917" 
d="M846 370q-199 -247 -385 -268v-88q36 4 58 4q146 0 146 -111q0 -67 -63 -107q-55 -35 -126 -35q-60 0 -128 30v56q62 -31 118 -31q98 0 98 74q0 75 -111 75q-16 0 -41 -2v135q-160 0 -265 140q-95 127 -95 292q0 289 254 464q104 72 240 72q125 0 274 -66v-259h-72
q-3 114 -75 191t-185 77q-141 0 -222 -130q-70 -112 -70 -261q0 -151 74 -263q85 -128 228 -128q149 0 348 209v-70z" />
    <glyph glyph-name="egrave" unicode="&#xe8;" horiz-adv-x="896" 
d="M856 380q-223 -280 -435 -280q-161 0 -273 141q-104 131 -104 296q0 198 126 360q136 174 329 174q149 0 239 -108q83 -100 88 -253h-645q-2 -39 -2 -57q0 -160 81 -279q92 -135 245 -135q172 0 351 207v-66zM662 760q-11 105 -64 171q-61 77 -160 77q-98 0 -168 -77
q-65 -70 -80 -171h472zM566 1214l-36 -21l-139 156q-66 74 -66 97q0 62 60 62q36 0 67 -63z" />
    <glyph glyph-name="eacute" unicode="&#xe9;" horiz-adv-x="896" 
d="M856 380q-223 -280 -435 -280q-161 0 -273 141q-104 131 -104 296q0 198 126 360q136 174 329 174q149 0 239 -108q83 -100 88 -253h-645q-2 -39 -2 -57q0 -160 81 -279q92 -135 245 -135q172 0 351 207v-66zM662 760q-11 105 -64 171q-61 77 -160 77q-98 0 -168 -77
q-65 -70 -80 -171h472zM626 1449q0 -25 -35 -64l-169 -188l-42 29l128 238q24 44 57 44q24 0 42.5 -17.5t18.5 -41.5z" />
    <glyph glyph-name="ecircumflex" unicode="&#xea;" horiz-adv-x="896" 
d="M856 380q-223 -280 -435 -280q-161 0 -273 141q-104 131 -104 296q0 198 126 360q136 174 329 174q149 0 239 -108q83 -100 88 -253h-645q-2 -39 -2 -57q0 -160 81 -279q92 -135 245 -135q172 0 351 207v-66zM662 760q-11 105 -64 171q-61 77 -160 77q-98 0 -168 -77
q-65 -70 -80 -171h472zM746 1234h-66l-214 126l-211 -126h-68l279 242z" />
    <glyph glyph-name="edieresis" unicode="&#xeb;" horiz-adv-x="896" 
d="M856 380q-223 -280 -435 -280q-161 0 -273 141q-104 131 -104 296q0 198 126 360q136 174 329 174q149 0 239 -108q83 -100 88 -253h-645q-2 -39 -2 -57q0 -160 81 -279q92 -135 245 -135q172 0 351 207v-66zM662 760q-11 105 -64 171q-61 77 -160 77q-98 0 -168 -77
q-65 -70 -80 -171h472zM766 1350q0 -42 -29.5 -71.5t-71.5 -29.5t-71.5 29.5t-29.5 71.5q0 41 29 71t70 30q43 0 73 -29t30 -72zM402 1351q0 -42 -29.5 -71.5t-71.5 -29.5t-71 29.5t-29 71.5q0 41 29 70.5t70 29.5q43 0 72.5 -28.5t29.5 -71.5z" />
    <glyph glyph-name="icircumflex" unicode="&#xee;" horiz-adv-x="555" 
d="M517 129h-458v48q84 2 118.5 37t34.5 119v547q0 63 -72 63q-26 0 -57 -13q-16 -7 -24 -9v51l256 101h49v-740q0 -84 34.5 -119t118.5 -37v-48zM541 1234h-66l-214 126l-211 -126h-68l279 242z" />
    <glyph glyph-name="idieresis" unicode="&#xef;" horiz-adv-x="555" 
d="M517 129h-458v48q84 2 118.5 37t34.5 119v547q0 63 -72 63q-26 0 -57 -13q-16 -7 -24 -9v51l256 101h49v-740q0 -84 34.5 -119t118.5 -37v-48zM559 1350q0 -42 -29.5 -71.5t-71.5 -29.5t-71.5 29.5t-29.5 71.5q0 41 29 71t70 30q43 0 73 -29t30 -72zM195 1351
q0 -42 -29.5 -71.5t-71.5 -29.5t-71 29.5t-29 71.5q0 41 29 70.5t70 29.5q43 0 72.5 -28.5t29.5 -71.5z" />
    <glyph glyph-name="ocircumflex" unicode="&#xf4;" horiz-adv-x="1003" 
d="M958 637q0 -215 -144 -374q-149 -163 -362 -163q-192 0 -303 122q-107 118 -107 312q0 213 142 372q148 165 358 165q194 0 305 -119.5t111 -314.5zM822 526q0 121 -53 232q-56 118 -151 182q-79 53 -161 53q-140 0 -214 -104q-66 -91 -66 -236q0 -168 103 -309
q113 -154 275 -154q127 0 202 108q65 95 65 228zM785 1234h-66l-214 126l-211 -126h-68l279 242z" />
    <glyph glyph-name="divide" unicode="&#xf7;" horiz-adv-x="946" 
d="M549 772q0 -36 -23.5 -61.5t-59.5 -25.5q-35 0 -60.5 26t-25.5 61q0 36 25 59.5t61 23.5q35 0 59 -24t24 -59zM835 452h-730v83h730v-83zM549 215q0 -36 -23.5 -61t-59.5 -25q-35 0 -60.5 25.5t-25.5 60.5q0 36 25 60.5t61 24.5t59.5 -24.5t23.5 -60.5z" />
    <glyph glyph-name="ugrave" unicode="&#xf9;" horiz-adv-x="1131" 
d="M1088 207l-276 -110h-49v332q-108 -147 -177 -212q-123 -117 -241 -117q-165 0 -165 234v547q0 87 -93 87q-20 0 -56 -6v47l343 61v-39q-42 -12 -42 -69v-619q0 -131 99 -131q152 0 257 224q86 184 86 356q0 178 -107 178q-19 0 -57 -8v47l348 61v-39q-44 -7 -44 -69
v-643q0 -93 69 -93q41 0 105 30v-49zM627 1214l-36 -21l-139 156q-66 74 -66 97q0 62 60 62q36 0 67 -63z" />
    <glyph glyph-name="ucircumflex" unicode="&#xfb;" horiz-adv-x="1131" 
d="M1088 207l-276 -110h-49v332q-108 -147 -177 -212q-123 -117 -241 -117q-165 0 -165 234v547q0 87 -93 87q-20 0 -56 -6v47l343 61v-39q-42 -12 -42 -69v-619q0 -131 99 -131q152 0 257 224q86 184 86 356q0 178 -107 178q-19 0 -57 -8v47l348 61v-39q-44 -7 -44 -69
v-643q0 -93 69 -93q41 0 105 30v-49zM811 1234h-66l-214 126l-211 -126h-68l279 242z" />
    <glyph glyph-name="udieresis" unicode="&#xfc;" horiz-adv-x="1131" 
d="M1088 207l-276 -110h-49v332q-108 -147 -177 -212q-123 -117 -241 -117q-165 0 -165 234v547q0 87 -93 87q-20 0 -56 -6v47l343 61v-39q-42 -12 -42 -69v-619q0 -131 99 -131q152 0 257 224q86 184 86 356q0 178 -107 178q-19 0 -57 -8v47l348 61v-39q-44 -7 -44 -69
v-643q0 -93 69 -93q41 0 105 30v-49zM817 1350q0 -42 -29.5 -71.5t-71.5 -29.5t-71.5 29.5t-29.5 71.5q0 41 29 71t70 30q43 0 73 -29t30 -72zM453 1351q0 -42 -29.5 -71.5t-71.5 -29.5t-71 29.5t-29 71.5q0 41 29 70.5t70 29.5q43 0 72.5 -28.5t29.5 -71.5z" />
    <glyph glyph-name="ydieresis" unicode="&#xff;" horiz-adv-x="960" 
d="M976 997q-64 -4 -98 -41q-43 -47 -89 -165l-343 -890q-79 -205 -298 -224l-162 191l54 43q79 -98 176 -98q105 0 159 107q17 34 67 162l16 41l-273 679q-38 95 -65 130q-49 64 -122 65v48h324v-48q-38 -2 -38 -24q0 -10 6 -25l248 -617l98 261q66 176 66 292
q0 113 -143 113v48h417v-48zM770 1350q0 -42 -29.5 -71.5t-71.5 -29.5t-71.5 29.5t-29.5 71.5q0 41 29 71t70 30q43 0 73 -29t30 -72zM406 1351q0 -42 -29.5 -71.5t-71.5 -29.5t-71 29.5t-29 71.5q0 41 29 70.5t70 29.5q43 0 72.5 -28.5t29.5 -71.5z" />
    <glyph glyph-name="dotlessi" unicode="&#x131;" horiz-adv-x="555" 
d="M517 129h-458v48q84 2 118.5 37t34.5 119v547q0 63 -72 63q-26 0 -57 -13q-16 -7 -24 -9v51l256 101h49v-740q0 -84 34.5 -119t118.5 -37v-48z" />
    <glyph glyph-name="OE" unicode="&#x152;" horiz-adv-x="1771" 
d="M1735 463l-76 -381h-51l1 10q0 37 -44 37h-512q-33 0 -154 -14q-129 -15 -188 -15q-352 0 -536 275q-96 143 -96 328q0 315 246 540q201 184 501 184q41 0 104 -7q108 -12 168 -12h467q57 0 57 48h49v-383h-73q0 287 -313 287h-106q-12 -73 -12 -200q0 -165 61 -243
q70 -88 230 -88h89v-70l-368 -8v-574h112q311 0 368 286h76zM997 177v1077q-125 101 -294 101q-212 0 -338 -142q-120 -136 -120 -350q0 -187 85 -349q89 -172 245 -259.5t315 -87.5q66 0 107 10z" />
    <glyph glyph-name="oe" unicode="&#x153;" horiz-adv-x="1685" 
d="M1624 379q-239 -279 -439 -279q-198 0 -329 223q-165 -223 -401 -223q-187 0 -300 127q-108 121 -108 310q0 217 144 374q148 163 363 163q240 0 354 -208q154 208 349 208q154 0 243 -105q81 -97 88 -255h-644q-2 -34 -2 -49q0 -167 80 -287q92 -139 251 -139
q167 0 351 210v-70zM1423 763q-6 102 -63 171q-63 77 -161 77q-94 0 -166 -79q-63 -71 -82 -169h472zM819 527q0 165 -96 307q-108 159 -267 159q-134 0 -209 -104q-68 -93 -68 -231q0 -165 101 -308q111 -158 270 -158q133 0 205 105q64 92 64 230z" />
    <glyph glyph-name="Scaron" unicode="&#x160;" horiz-adv-x="917" 
d="M862 502q0 -168 -155 -289q-144 -113 -317 -113q-131 0 -294 63v360h71q0 -139 77 -242q86 -114 220 -114q106 0 173 62t67 168q0 109 -101 204q-40 37 -193 139q-128 85 -190 138q-93 80 -93 199q0 157 146 264q131 96 295 96q89 0 237 -51v-314h-73q-7 119 -70 203
q-72 94 -186 94q-84 0 -140 -51t-56 -134q0 -102 116 -206q45 -41 200 -144q137 -92 180 -135q86 -87 86 -197zM808 1800l-280 -242l-281 242h68l213 -132l214 132h66z" />
    <glyph glyph-name="scaron" unicode="&#x161;" horiz-adv-x="747" 
d="M694 409q0 -132 -119 -224q-110 -85 -246 -85q-107 0 -247 60v277h68q7 -113 63 -188q64 -86 171 -86q75 0 125 45.5t50 120.5q0 74 -61 133q-28 27 -125 88l-128 81q-132 93 -132 193q0 117 109 188q94 61 218 61q91 0 196 -40v-262h-72q-1 96 -52 167q-57 78 -150 78
q-52 0 -85.5 -33.5t-33.5 -85.5q0 -63 62 -119q28 -26 115 -80q156 -98 177 -115q97 -80 97 -174zM671 1473l-280 -242l-281 242h68l213 -132l214 132h66z" />
    <glyph glyph-name="Ydieresis" unicode="&#x178;" horiz-adv-x="1195" 
d="M1236 1360q-109 -2 -239 -224l-303 -516v-284q0 -154 152 -159v-48h-489v48q88 1 120 35.5t32 123.5v284l-250 502q-49 99 -87 149q-66 88 -137 89v48h363v-48q-38 -1 -38 -27q0 -10 4 -18l314 -624q243 380 243 554q0 70 -49 96q-34 18 -114 19v48h478v-48zM919 1675
q0 -42 -29.5 -71.5t-71.5 -29.5t-71.5 29.5t-29.5 71.5q0 41 29 71t70 30q43 0 73 -29t30 -72zM555 1676q0 -42 -29.5 -71.5t-71.5 -29.5t-71 29.5t-29 71.5q0 41 29 70.5t70 29.5q43 0 72.5 -28.5t29.5 -71.5z" />
    <glyph glyph-name="florin" unicode="&#x192;" horiz-adv-x="1088" 
d="M1088 1431l-162 -174l-34 30q11 23 11 42q0 35 -25.5 60t-60.5 25q-91 0 -160 -116q-61 -102 -61 -200q0 -127 187 -127h95l-11 -47h-312l-181 -720q-43 -172 -109 -278q-61 -99 -196 -224h-69q131 114 194 232q60 114 87 290l107 700h-140l13 47q80 1 133 53
q29 28 84 123q89 152 161 223q139 136 287 136q105 0 162 -75z" />
    <glyph glyph-name="circumflex" unicode="&#x2c6;" horiz-adv-x="683" 
d="M620 1234h-66l-214 126l-211 -126h-68l279 242z" />
    <glyph glyph-name="caron" unicode="&#x2c7;" horiz-adv-x="683" 
d="M617 1473l-280 -242l-281 242h68l213 -132l214 132h66z" />
    <glyph glyph-name="arabiccomma" unicode="&#x60c;" horiz-adv-x="463" 
d="M463 163q0 -75 -47 -119t-119 -44q-65 0 -106 55t-41 146q0 90 48 170q52 88 146 138q8 -8 56 -89q-71 -43 -98 -105q76 0 121 -48q40 -43 40 -104z" />
    <glyph glyph-name="arabicsemicolon" unicode="&#x61b;" horiz-adv-x="463" 
d="M463 573q0 -75 -47 -119t-119 -44q-65 0 -106 55t-41 146q0 90 48 170q52 88 146 138q8 -8 56 -89q-71 -43 -98 -105q76 0 121 -48q40 -43 40 -104zM464 158q0 -65 -46 -111.5t-111 -46.5t-111 46.5t-46 111.5t46 111t111 46t111 -46t46 -111z" />
    <glyph glyph-name="arabicquestionmark" unicode="&#x61f;" horiz-adv-x="842" 
d="M860 1144l-84 -150q-108 77 -233 77q-69 0 -140 -55q-79 -61 -79 -142q0 -109 119 -192q116 -76 233 -153q133 -113 157 -291h-183q-52 121 -187 218q-200 144 -210 154q-100 99 -100 254q0 167 132 283q116 104 243 104q166 0 332 -107zM842 190q0 -57 -9 -193h-194
l11 193h192z" />
    <glyph glyph-name="hamza" unicode="&#x621;" horiz-adv-x="670" 
d="M670 112q-242 -66 -413 -171l-84 111l98 51q-115 78 -115 184q0 244 390 251l7 -127q-116 -7 -160 -18q-107 -27 -107 -101q0 -50 46 -81q42 -29 98 -29q51 0 202 60z" />
    <glyph glyph-name="alefwithmaddaabove" unicode="&#x622;" horiz-adv-x="448" 
d="M135 891q-8 51 -32.5 79.5t-49.5 59.5q-10 90 56.5 165t138.5 75q53 0 74.5 -47t15.5 -78q-14 -49 -29.5 -104.5t-15.5 -120.5q0 -134 28.5 -340.5t28.5 -315.5q0 -86 -100 -246.5t-266 -207.5q90 111 125.5 176t50 127.5t18.5 106.5t4 85q0 37 -4 94.5t-8 104.5z
M70 1307q-39 -7 -56.5 -27t-25.5 -23q-57 -6 -101 34t-44 83q0 33 28.5 45.5t47.5 10.5q34 -11 67.5 -20t66.5 -9q86 0 213 17.5t180 17.5q56 0 150 -59.5t123 -159.5q-57 45 -93 69.5t-80 34.5t-67.5 12t-52.5 2q-27 0 -63.5 -3t-59.5 -5z" />
    <glyph glyph-name="alefwithhamzaabove" unicode="&#x623;" horiz-adv-x="560" 
d="M484 1485q-180 -50 -311 -127l-59 75l80 41q-94 59 -94 142q0 182 290 188l5 -88q-204 -15 -204 -95q0 -41 35 -65.5t80 -24.5q25 0 154 42zM553 0h-176q4 46 4 110q0 239 -50 605q-49 359 -105 547l189 36q49 -203 91 -508q53 -375 53 -637q0 -84 -6 -153z" />
    <glyph glyph-name="wawwithhamzaabove" unicode="&#x624;" horiz-adv-x="819" 
d="M217 1067q-37 -23 -29 -53q7 -23 26 -34t42 -11q12 0 55 17.5t51 14.5q29 -4 33 -30.5t4 -59.5q-39 -22 -167 -77.5t-132 -49.5q-10 17 -20 38.5t-10 33.5q0 6 6 20.5t26.5 21.5t38.5 13q-41 31 -49 78q-6 19 -6 37q0 45 30.5 85t63.5 50t53 10q43 0 76 -15t33 -38
q0 -28 -19.5 -43.5t-46.5 -7.5q-30 6 -32 6q-11 0 -27 -6zM-69 -555q237 35 410 193t173 374q-25 0 -86 -15t-82 -15q-14 0 -82.5 12t-101.5 76.5t-33 193.5q0 199 92 291t191 92q139 0 225 -153.5t86 -370.5q0 -352 -248 -593.5t-554 -241.5q-111 0 -258.5 34.5t-266 148.5
t-186.5 193.5t-90.5 146.5t-28.5 89.5t-6 28.5q0 22 16 16q17 -2 20 -22.5t5 -36.5q90 -135 154.5 -194.5t178 -132.5t205 -96.5t177.5 -23.5q43 0 90 6zM379 432q-45 0 -62 -63q-10 -74 -12 -88q-4 -31 30 -69t64 -34q62 8 81.5 28.5t19.5 51.5q-2 23 -2 31q0 35 -33 92
t-86 51z" />
    <glyph glyph-name="alefwithhamzabelow" unicode="&#x625;" horiz-adv-x="604" 
d="M483 0h-176q4 46 4 110q0 239 -50 605q-49 359 -105 547l189 36q49 -203 91 -508q53 -375 53 -637q0 -84 -6 -153zM618 -462q-180 -50 -311 -127l-59 75l80 41q-94 59 -94 142q0 182 290 188l5 -88q-204 -15 -204 -95q0 -41 35 -65.5t80 -24.5q25 0 154 42z" />
    <glyph glyph-name="yehwithhamzaabove" unicode="&#x626;" horiz-adv-x="1242" 
d="M1242 719h-211q-51 0 -84 -39q-28 -33 -28 -71q0 -63 79 -141q142 -139 147 -145q79 -98 79 -210q0 -203 -211 -315q-178 -95 -431 -95q-432 0 -432 334q0 139 87 340q66 155 147 275l158 -95q-205 -314 -205 -491q0 -117 83 -159q56 -28 180 -28q428 0 428 237
q0 68 -77 147l-142 144q-77 95 -77 199q0 124 96 214q94 87 216 87h198v-188zM600 935q-180 -50 -311 -127l-59 75l80 41q-94 59 -94 142q0 182 290 188l5 -88q-204 -15 -204 -95q0 -41 35 -65.5t80 -24.5q25 0 154 42z" />
    <glyph glyph-name="arabicalef" unicode="&#x627;" horiz-adv-x="444" 
d="M177 1518q-39 -19 -28 -54q6 -20 26.5 -32.5t40.5 -12.5q8 0 52 18.5t53 16.5q24 -4 31 -27.5t7 -62.5q-38 -23 -166 -78t-133 -49q-18 27 -26 49.5t0 38.5t28.5 23.5t38.5 13.5q-41 33 -49 64.5t-8 50.5q0 49 30.5 88t63.5 49t54 10q43 0 75.5 -15.5t32.5 -37.5
q0 -29 -18.5 -44.5t-46.5 -6.5q-25 6 -33 6q-15 0 -25 -8zM206 897q-8 51 -32.5 80t-49.5 59q-10 90 56.5 165t137.5 75q54 0 75.5 -47t15.5 -78q-15 -49 -30 -104.5t-15 -120.5q0 -133 28.5 -340t28.5 -316q0 -86 -100.5 -246.5t-266.5 -207.5q90 111 126 176t50.5 127.5
t18.5 106.5t4 85q0 37 -4 94.5t-8 104.5z" />
    <glyph glyph-name="beh" unicode="&#x628;" horiz-adv-x="1700" 
d="M1683 419q16 -47 16 -100q0 -123 -75 -218q-79 -101 -193 -101h-940q-138 0 -237 112q-104 118 -104 299q0 112 68 260q59 128 130 208l142 -117q-63 -69 -107.5 -176t-44.5 -188q0 -107 56 -165q50 -51 127 -51h849q57 0 95 46t38 104q0 24 -7 46l-151 442l170 78
q65 -163 168 -479zM1023 -354q-122 16 -220 -1v197q22 10 107 11q78 0 113 -6v-201z" />
    <glyph glyph-name="tehmarbuta" unicode="&#x629;" horiz-adv-x="831" 
d="M831 283q0 -114 -61 -196q-66 -87 -168 -87h-228q-225 0 -225 241q0 81 38 211q36 123 78 200l158 -68q-86 -197 -86 -298q0 -104 67 -104h155q41 0 67 36q24 33 24 75q0 69 -97 195q-119 157 -300 249l97 143q159 -57 318 -252q163 -198 163 -345zM702 1131
q-7 0 -17 -208q-74 17 -257 20t-265 -12l-8 205q80 17 272 17q209 0 275 -22z" />
    <glyph glyph-name="teh" unicode="&#x62a;" horiz-adv-x="1695" 
d="M1202 1001q-7 0 -17 -208q-74 17 -257 20t-265 -12l-8 205q80 17 272 17q209 0 275 -22zM1683 419q16 -47 16 -100q0 -123 -75 -218q-79 -101 -193 -101h-940q-138 0 -237 112q-104 118 -104 299q0 112 68 260q59 128 130 208l142 -117q-63 -69 -107.5 -176t-44.5 -188
q0 -107 56 -165q50 -51 127 -51h849q57 0 95 46t38 104q0 24 -7 46l-151 442l170 78q65 -163 168 -479z" />
    <glyph glyph-name="theh" unicode="&#x62b;" horiz-adv-x="1705" 
d="M1019 1074q-122 16 -220 -1v197q22 10 107 11q78 0 113 -6v-201zM1192 996q-7 0 -17 -208q-74 17 -257 20t-265 -12l-8 205q80 17 272 17q209 0 275 -22zM1683 419q16 -47 16 -100q0 -123 -75 -218q-79 -101 -193 -101h-940q-138 0 -237 112q-104 118 -104 299
q0 112 68 260q59 128 130 208l142 -117q-63 -69 -107.5 -176t-44.5 -188q0 -107 56 -165q50 -51 127 -51h849q57 0 95 46t38 104q0 24 -7 46l-151 442l170 78q65 -163 168 -479z" />
    <glyph glyph-name="jeem" unicode="&#x62c;" horiz-adv-x="1053" 
d="M1032 294q21 -38 21 -86q0 -80 -50 -142q-54 -66 -134 -66h-349q-168 0 -168 -152q0 -49 30 -87q32 -42 84 -50l557 -89l-27 -191l-603 95q-106 17 -176 113q-67 93 -67 209q0 142 97 236q103 98 274 98h318q21 0 26 22q4 20 -8 41l-219 400q-16 29 -35 29q-20 0 -31 -29
l-160 -420l-182 61l202 491q39 95 164 95t176 -95zM843 -274q-122 16 -220 -1v197q22 10 107 11q78 0 113 -6v-201z" />
    <glyph glyph-name="hah" unicode="&#x62d;" horiz-adv-x="1053" 
d="M1032 294q21 -38 21 -86q0 -80 -50 -142q-54 -66 -134 -66h-349q-168 0 -168 -152q0 -49 30 -87q32 -42 84 -50l557 -89l-27 -191l-603 95q-106 17 -176 113q-67 93 -67 209q0 142 97 236q103 98 274 98h318q21 0 26 22q4 20 -8 41l-219 400q-16 29 -35 29q-20 0 -31 -29
l-160 -420l-182 61l202 491q39 95 164 95t176 -95z" />
    <glyph glyph-name="khah" unicode="&#x62e;" horiz-adv-x="1053" 
d="M688 1000q-122 16 -220 -1v197q22 10 107 11q78 0 113 -6v-201zM1032 294q21 -38 21 -86q0 -80 -50 -142q-54 -66 -134 -66h-349q-168 0 -168 -152q0 -49 30 -87q32 -42 84 -50l557 -89l-27 -191l-603 95q-106 17 -176 113q-67 93 -67 209q0 142 97 236q103 98 274 98
h318q21 0 26 22q4 20 -8 41l-219 400q-16 29 -35 29q-20 0 -31 -29l-160 -420l-182 61l202 491q39 95 164 95t176 -95z" />
    <glyph glyph-name="dal" unicode="&#x62f;" horiz-adv-x="744" 
d="M690 418q54 -74 54 -172q0 -101 -55 -170q-62 -76 -165 -76h-374v182h326q66 0 66 80q0 32 -13 51l-320 452l138 118z" />
    <glyph glyph-name="thal" unicode="&#x630;" horiz-adv-x="744" 
d="M358 1006q-122 16 -220 -1v197q22 10 107 11q78 0 113 -6v-201zM690 418q54 -74 54 -172q0 -101 -55 -170q-62 -76 -165 -76h-374v182h326q66 0 66 80q0 32 -13 51l-320 452l138 118z" />
    <glyph glyph-name="reh" unicode="&#x631;" horiz-adv-x="524" 
d="M524 196q0 -328 -230 -575l-141 114q187 243 187 496q0 116 -74 317l-101 275l163 82l112 -315q84 -236 84 -394z" />
    <glyph glyph-name="zain" unicode="&#x632;" horiz-adv-x="524" 
d="M328 1005q-122 16 -220 -1v197q22 10 107 11q78 0 113 -6v-201zM524 196q0 -328 -230 -575l-141 114q187 243 187 496q0 116 -74 317l-101 275l163 82l112 -315q84 -236 84 -394z" />
    <glyph glyph-name="seen" unicode="&#x633;" horiz-adv-x="2076" 
d="M2059 441q21 -54 21 -117q0 -127 -78 -222q-86 -102 -221 -102q-79 0 -152 39q-62 33 -86 72q-53 -111 -189 -111q-99 0 -153 27q-18 -159 -232 -246q-182 -74 -431 -74q-385 0 -385 310q0 122 71.5 306t162.5 300l141 -90q-72 -115 -128 -266q-58 -158 -58 -250
q0 -135 213 -135q474 0 474 241q0 27 -6 58l-129 621q73 24 174 56l88 -425q25 -122 38 -154q42 -98 125 -98q51 0 81 44q27 41 27 99q0 24 -5 46l-95 432l175 63l95 -432q24 -110 46 -156q45 -96 121 -96q53 0 85 50q28 45 28 103q0 29 -8 51l-147 412l169 68z" />
    <glyph glyph-name="sheen" unicode="&#x634;" horiz-adv-x="2076" 
d="M1478 1279q-122 16 -220 -1v197q22 10 107 11q78 0 113 -6v-201zM1651 1201q-7 0 -17 -208q-74 17 -257 20t-265 -12l-8 205q80 17 272 17q209 0 275 -22zM2059 441q21 -54 21 -117q0 -127 -78 -222q-86 -102 -221 -102q-79 0 -152 39q-62 33 -86 72q-53 -111 -189 -111
q-99 0 -153 27q-18 -159 -232 -246q-182 -74 -431 -74q-385 0 -385 310q0 122 71.5 306t162.5 300l141 -90q-72 -115 -128 -266q-58 -158 -58 -250q0 -135 213 -135q474 0 474 241q0 27 -6 58l-129 621q73 24 174 56l88 -425q25 -122 38 -154q42 -98 125 -98q51 0 81 44
q27 41 27 99q0 24 -5 46l-95 432l175 63l95 -432q24 -110 46 -156q45 -96 121 -96q53 0 85 50q28 45 28 103q0 29 -8 51l-147 412l169 68z" />
    <glyph glyph-name="sad" unicode="&#x635;" horiz-adv-x="2015" 
d="M1989 533q26 -105 26 -187q0 -114 -50 -188q-111 -163 -479 -163q-161 0 -285 32q-18 -159 -232 -246q-182 -74 -431 -74q-385 0 -385 310q0 122 71.5 306t162.5 300l141 -90q-72 -115 -128 -266q-58 -158 -58 -250q0 -135 213 -135q254 0 361 68.5t107 230.5
q0 301 -129 621q73 24 162 76q62 -116 103.5 -288.5t42.5 -311.5q45 225 199 414q151 186 279 186q107 0 195 -108q78 -95 114 -237zM1832 330q0 108 -46 227q-53 139 -127 139q-87 0 -179 -185q-82 -165 -102 -319q99 -11 155 -11q299 0 299 149z" />
    <glyph glyph-name="dad" unicode="&#x636;" horiz-adv-x="2015" 
d="M1753 1005q-122 16 -220 -1v197q22 10 107 11q78 0 113 -6v-201zM1989 533q26 -105 26 -187q0 -114 -50 -188q-111 -163 -479 -163q-161 0 -285 32q-18 -159 -232 -246q-182 -74 -431 -74q-385 0 -385 310q0 122 71.5 306t162.5 300l141 -90q-72 -115 -128 -266
q-58 -158 -58 -250q0 -135 213 -135q254 0 361 68.5t107 230.5q0 301 -129 621q73 24 162 76q62 -116 103.5 -288.5t42.5 -311.5q45 225 199 414q151 186 279 186q107 0 195 -108q78 -95 114 -237zM1832 330q0 108 -46 227q-53 139 -127 139q-87 0 -179 -185
q-82 -165 -102 -319q99 -11 155 -11q299 0 299 149z" />
    <glyph glyph-name="tah" unicode="&#x637;" horiz-adv-x="1049" 
d="M1049 373q11 -167 -121 -274q-123 -99 -306 -99h-651v181h148q58 0 70 47q4 14 5 111q2 149 -57 459q-49 252 -102 442l172 53q26 -77 80 -364t60 -378q47 109 144 214q109 118 188 118q131 0 246 -161q112 -158 124 -349zM868 356q0 82 -50 199q-59 137 -128 137
q-70 0 -161 -179q-88 -173 -108 -331h218q229 0 229 174z" />
    <glyph glyph-name="zah" unicode="&#x638;" horiz-adv-x="1052" 
d="M733 1002q-122 16 -220 -1v197q22 10 107 11q78 0 113 -6v-201zM1049 373q11 -167 -121 -274q-123 -99 -306 -99h-651v181h148q58 0 70 47q4 14 5 111q2 149 -57 459q-49 252 -102 442l172 53q26 -77 80 -364t60 -378q47 109 144 214q109 118 188 118q131 0 246 -161
q112 -158 124 -349zM868 356q0 82 -50 199q-59 137 -128 137q-70 0 -161 -179q-88 -173 -108 -331h218q229 0 229 174z" />
    <glyph glyph-name="ain" unicode="&#x639;" horiz-adv-x="1037" 
d="M1037 -377l-33 -189l-531 90q-127 22 -223 120.5t-96 200.5q0 184 202 297q-51 39 -104 125q-71 116 -71 227q0 154 139 278q132 117 273 117q24 0 45 -4l339 -65l-37 -173l-241 48q-33 6 -67 6q-110 0 -191 -58q-85 -61 -85 -152q0 -122 116 -218q112 -91 241 -91h244
v-182h-265q-336 0 -336 -154q0 -53 53.5 -96.5t137.5 -55.5z" />
    <glyph glyph-name="ghain" unicode="&#x63a;" horiz-adv-x="1050" 
d="M637 1004q-122 16 -220 -1v197q22 10 107 11q78 0 113 -6v-201zM1037 -377l-33 -189l-531 90q-127 22 -223 120.5t-96 200.5q0 184 202 297q-51 39 -104 125q-71 116 -71 227q0 154 139 278q132 117 273 117q24 0 45 -4l339 -65l-37 -173l-241 48q-33 6 -67 6
q-110 0 -191 -58q-85 -61 -85 -152q0 -122 116 -218q112 -91 241 -91h244v-182h-265q-336 0 -336 -154q0 -53 53.5 -96.5t137.5 -55.5z" />
    <glyph glyph-name="tatweel" unicode="&#x640;" horiz-adv-x="196" 
d="M-30 197h274v-197h-274v197z" />
    <glyph glyph-name="feh" unicode="&#x641;" horiz-adv-x="1702" 
d="M1289 1004q-122 16 -220 -1v197q22 10 107 11q78 0 113 -6v-201zM1702 291q0 -131 -101 -213q-94 -78 -230 -78h-880q-138 0 -237 112q-104 118 -104 299q0 113 63 254q55 123 125 202l141 -105q-52 -58 -96.5 -171t-44.5 -193q0 -107 56 -165q50 -51 127 -51h849
q147 0 147 68q-70 -22 -167 -22q-412 0 -412 297q0 119 64 234q75 135 187 135q164 0 343 -225q170 -214 170 -378zM1456 448q-29 82 -104 166q-79 90 -134 90q-46 0 -75 -65q-23 -51 -23 -100q0 -72 41 -101q37 -25 123 -25q112 0 172 35z" />
    <glyph glyph-name="qaf" unicode="&#x642;" horiz-adv-x="1341" 
d="M1214 1209q-7 0 -17 -208q-74 17 -257 20t-265 -12l-8 205q80 17 272 17q209 0 275 -22zM1320 -92q-44 -148 -243 -274q-204 -128 -410 -128q-252 0 -389 141q-128 132 -128 356q0 223 140 455l158 -74q-48 -72 -86.5 -188t-38.5 -190q0 -121 67 -210q83 -111 241 -111
q184 0 349 101.5t170 213.5h-275q-146 0 -214 60q-79 71 -79 242q0 197 117 391q119 198 248 198q112 0 208 -135q89 -126 143 -336q38 -149 38 -348q0 -110 -16 -164zM1153 182q-3 158 -58 324q-65 193 -151 193q-65 0 -135 -145q-65 -133 -65 -220q0 -152 136 -152h273z
" />
    <glyph glyph-name="arabickaf" unicode="&#x643;" horiz-adv-x="1637" 
d="M1629 300q2 -18 2 -36q0 -105 -57 -181q-61 -83 -155 -83h-820q-183 0 -312 113q-137 120 -137 308q0 228 210 476l130 -124q-156 -179 -156 -320q0 -110 70.5 -190.5t166.5 -80.5h782q104 0 104 109q0 13 -2 25l-34 260q-14 106 -163 152q-33 10 -138 13q-97 2 -123 -3
q-19 -4 -36 -4q-98 0 -98 115q0 27 6 58l16 86q12 66 70 122q55 52 128.5 74.5t240.5 22.5q169 0 259 -21v-177q-143 28 -230 28q-301 0 -301 -135q209 0 282 -18q233 -58 256 -256z" />
    <glyph glyph-name="lam" unicode="&#x644;" horiz-adv-x="1208" 
d="M1201 66q-28 -191 -239 -284q-171 -75 -427 -75q-385 0 -385 310q0 122 71.5 306t162.5 300l141 -90q-72 -115 -128 -266q-58 -158 -58 -250q0 -135 213 -135q255 0 363 68.5t108 230.5q0 203 -41 556q-43 360 -89 532l174 56q51 -214 95 -557q46 -359 46 -575
q0 -79 -7 -127z" />
    <glyph glyph-name="meem" unicode="&#x645;" horiz-adv-x="1122" 
d="M1071 468q50 -81 49 -165q0 -127 -103 -212q-110 -91 -290 -91q-276 0 -276 224q0 40 50 171t50 151q0 10 -6 10q-43 0 -128 -124q-93 -136 -93 -247q0 -114 111 -232q104 -110 229 -151l-84 -151q-164 54 -295 217q-134 166 -134 327q0 216 159 400q145 167 270 167
q65 0 111 -47q43 -44 43 -95q0 -130 -48.5 -231t-48.5 -146q0 -61 108 -61q81 0 131.5 40.5t50.5 97.5q0 34 -20 66l-249 408l157 90z" />
    <glyph glyph-name="noon" unicode="&#x646;" horiz-adv-x="1208" 
d="M763 675q-122 16 -220 -1v197q22 10 107 11q78 0 113 -6v-201zM1201 66q-28 -191 -239 -284q-171 -75 -427 -75q-385 0 -385 310q0 122 71.5 306t162.5 300l141 -90q-72 -115 -128 -266q-58 -158 -58 -250q0 -135 213 -135q255 0 363 68.5t108 230.5q0 118 -50 318
q-45 180 -96 298l158 71q68 -121 120 -327q52 -212 52 -378q0 -54 -6 -97z" />
    <glyph glyph-name="heh" unicode="&#x647;" horiz-adv-x="831" 
d="M831 283q0 -114 -61 -196q-66 -87 -168 -87h-228q-225 0 -225 241q0 81 38 211q36 123 78 200l158 -68q-86 -197 -86 -298q0 -104 67 -104h155q41 0 67 36q24 33 24 75q0 69 -97 195q-119 157 -300 249l97 143q159 -57 318 -252q163 -198 163 -345z" />
    <glyph glyph-name="waw" unicode="&#x648;" horiz-adv-x="801" 
d="M801 193q0 -322 -241 -568l-139 128q117 99 154 247h-186q-87 0 -152 92q-87 121 -87 363q0 179 64 304q66 131 166 131q143 0 284 -241q137 -234 137 -456zM613 182q3 24 3 50q0 145 -88 308q-80 147 -123 147q-73 0 -73 -249q0 -90 29 -165q35 -91 94 -91h158z" />
    <glyph glyph-name="alefmaksura" unicode="&#x649;" horiz-adv-x="1242" 
d="M1242 719h-211q-51 0 -84 -39q-28 -33 -28 -71q0 -63 79 -141q142 -139 147 -145q79 -98 79 -210q0 -203 -211 -315q-178 -95 -431 -95q-432 0 -432 334q0 139 87 340q66 155 147 275l158 -95q-205 -314 -205 -491q0 -117 83 -159q56 -28 180 -28q428 0 428 237
q0 68 -77 147l-142 144q-77 95 -77 199q0 124 96 214q94 87 216 87h198v-188zM910 -484q-7 0 -17 -208q-74 17 -257 20t-265 -12l-8 205q80 17 272 17q209 0 275 -22z" />
    <glyph glyph-name="yeh" unicode="&#x64a;" horiz-adv-x="1242" 
d="M1242 719h-211q-51 0 -84 -39q-28 -33 -28 -71q0 -63 79 -141q142 -139 147 -145q79 -98 79 -210q0 -203 -211 -315q-178 -95 -431 -95q-432 0 -432 334q0 139 87 340q66 155 147 275l158 -95q-205 -314 -205 -491q0 -117 83 -159q56 -28 180 -28q428 0 428 237
q0 68 -77 147l-142 144q-77 95 -77 199q0 124 96 214q94 87 216 87h198v-188z" />
    <glyph glyph-name="fathatan" unicode="&#x64b;" 
d="M450 2030q-222 -82 -483 -299l-52 74q248 208 498 310zM490 1850q-222 -82 -483 -299l-52 74q248 208 498 310z" />
    <glyph glyph-name="dammatan" unicode="&#x64c;" 
d="M366 1927q0 -143 -111 -249q-107 -101 -240 -101q0 6 -6 82l29 4q7 36 7 57q0 37 -24 37q-22 0 -72 -33l-23 64q50 47 106 47q37 0 55 -23q32 -41 11 -140q69 18 116 71q-116 32 -116 105q0 97 69 193q61 85 98 85q101 0 101 -199zM298 1938q0 105 -38 105q-17 0 -51 -61
q-35 -64 -35 -107q0 -48 91 -63q33 42 33 126z" />
    <glyph glyph-name="kasratan" unicode="&#x64d;" 
d="M694 -700q-222 -82 -483 -299l-52 74q248 208 498 310zM734 -880q-222 -82 -483 -299l-52 74q248 208 498 310z" />
    <glyph glyph-name="fatha" unicode="&#x64e;" 
d="M490 1850q-222 -82 -483 -299l-52 74q248 208 498 310z" />
    <glyph glyph-name="damma" unicode="&#x64f;" 
d="M366 1926q0 -143 -111 -249q-107 -101 -240 -101q0 6 -6 81q135 8 205 85q-116 32 -116 105q0 97 69 193q61 85 98 85q101 0 101 -199zM298 1937q0 105 -38 105q-17 0 -51 -61q-35 -64 -35 -107q0 -48 91 -63q33 42 33 126z" />
    <glyph glyph-name="kasra" unicode="&#x650;" 
d="M694 -730q-222 -82 -483 -299l-52 74q248 208 498 310z" />
    <glyph glyph-name="shadda" unicode="&#x651;" 
d="M477 1755q0 -70 -34 -119q-38 -57 -104 -57q-52 0 -106 51q-38 -55 -120 -54q-63 0 -109.5 61t-46.5 132q0 66 14 145l83 -19q-12 -40 -12 -90q0 -136 71 -136q58 0 58 68q0 20 -24 154q36 2 92 10q24 -161 25 -163q18 -63 72 -63q43 0 43 53q0 62 -52 173l77 40
q73 -121 73 -186z" />
    <glyph glyph-name="sukun" unicode="&#x652;" 
d="M391 1756q0 -77 -54 -130t-131 -53t-131 53t-54 130t54 131t131 54t131 -54t54 -131zM301 1757q0 39 -28 67t-67 28t-67 -28t-28 -67t28 -66.5t67 -27.5t67 27.5t28 66.5z" />
    <glyph glyph-name="arabicindicdigitzero" unicode="&#x660;" horiz-adv-x="880" 
d="M757 374q0 -114 -80.5 -193.5t-194.5 -79.5t-194.5 79.5t-80.5 193.5t80.5 194.5t194.5 80.5t194.5 -80.5t80.5 -194.5zM596 375q0 47 -33.5 80.5t-80.5 33.5t-80.5 -33.5t-33.5 -80.5t33.5 -79.5t80.5 -32.5t80.5 32.5t33.5 79.5z" />
    <glyph glyph-name="arabicindicdigitone" unicode="&#x661;" horiz-adv-x="622" 
d="M469 -100h-176q4 46 4 110q0 239 -50 605q-49 359 -105 547l189 36q49 -203 91 -508q53 -375 53 -637q0 -84 -6 -153z" />
    <glyph glyph-name="arabicindicdigittwo" unicode="&#x662;" horiz-adv-x="900" 
d="M900 647q0 -135 -72 -233q-77 -104 -197 -104q-106 0 -159 58q8 -74 12 -241q5 -176 -2 -227h-175q4 46 4 110q0 239 -50 605q-49 359 -105 547l170 36q68 -186 114 -516q11 -81 52.5 -128.5t97.5 -47.5t93.5 46.5t37.5 112.5q0 75 -54 224q-49 135 -107 239l159 70
q60 -83 116 -239q65 -180 65 -312z" />
    <glyph glyph-name="arabicindicdigitthree" unicode="&#x663;" horiz-adv-x="1357" 
d="M1357 634q0 -134 -82 -227q-86 -97 -217 -97q-78 0 -157 49q-66 40 -91 82q-21 -43 -68 -83q-57 -48 -111 -48q-115 0 -159 48q8 -74 12 -236q5 -171 -2 -222h-175q4 49 4 115q0 242 -48 593.5t-107 532.5l158 71q84 -230 126 -530q11 -83 53.5 -132t102.5 -49
q44 0 73.5 42.5t29.5 99.5q0 19 -4 37l-91 465l176 58l94 -460q47 -232 167 -232q115 0 115 154q0 73 -51 222.5t-106 231.5l163 79q70 -98 131 -270q64 -180 64 -294z" />
    <glyph glyph-name="arabicindicdigitfour" unicode="&#x664;" horiz-adv-x="1340" 
d="M1340 1139q0 -16 -40 -173q-132 75 -321 75q-105 0 -180 -61t-75 -155q0 -155 155 -241q125 -70 285 -70h170v-184l-801 1q-27 0 -61 27q8 -74 12 -236q5 -171 -2 -222h-175q4 49 4 115q0 242 -48 593.5t-107 532.5l158 71q94 -257 122 -530q17 -167 126 -167h104
q-124 120 -124 304q0 152 117 269q132 132 344 132q165 0 337 -81z" />
    <glyph glyph-name="arabicindicdigitfive" unicode="&#x665;" horiz-adv-x="1219" 
d="M1219 349q0 -176 -116 -307.5t-266 -131.5q-45 0 -91 39t-71 39q-21 0 -68 -44t-145 -44q-143 0 -230 117q-79 108 -79 263q0 133 107 355q98 201 213 340l145 -135q-96 -119 -172 -277q-89 -185 -89 -307q0 -134 123 -134q64 0 111 54t73 54q33 0 81.5 -44.5t91.5 -44.5
q79 0 128 49q55 55 55 155q0 164 -167 385q-138 184 -327 333l113 141q201 -127 382 -380q198 -274 198 -475z" />
    <glyph glyph-name="arabicindicdigitsix" unicode="&#x666;" horiz-adv-x="1149" 
d="M1149 753l-530 -876l-164 103l184 297q-60 -20 -121 -20q-153 0 -259 110q-110 115 -110 294q0 153 107 316q90 137 206 217l117 -144q-235 -156 -235 -364q0 -218 210 -218q200 0 334 218l102 166z" />
    <glyph glyph-name="arabicindicdigitseven" unicode="&#x667;" horiz-adv-x="1375" 
d="M1375 1102q-358 -482 -467 -1202h-204q-197 817 -550 1170l137 126q136 -98 296 -380q150 -263 202 -465q55 214 167 457q128 279 249 400z" />
    <glyph glyph-name="arabicindicdigiteight" unicode="&#x668;" horiz-adv-x="1370" 
d="M1370 35l-137 -126q-136 98 -296 380q-150 263 -202 465q-55 -214 -167 -457q-128 -279 -249 -400l-170 106q358 482 467 1202h204q197 -817 550 -1170z" />
    <glyph glyph-name="arabicindicdigitnine" unicode="&#x669;" horiz-adv-x="1002" 
d="M1002 992q0 -42 -31 -232t-31 -378q0 -276 25 -483h-185q-16 66 -37 449q-246 0 -411 118q-182 131 -182 355q0 185 158 312q146 117 329 117q133 0 242 -67q123 -76 123 -191zM801 902q0 68 -61.5 110t-153.5 42q-119 0 -196 -78q-67 -69 -67 -155q0 -129 122 -213
t311 -84q0 81 22.5 211t22.5 167z" />
    <glyph glyph-name="arabicpercentsign" unicode="&#x66a;" horiz-adv-x="1009" 
d="M468 928q0 -65 -46 -111.5t-111 -46.5t-111 46.5t-46 111.5t46 111t111 46t111 -46t46 -111zM1009 1084q-111 -285 -338 -658q-218 -357 -393 -552l-170 105q531 670 740 1200zM1014 53q0 -65 -46 -111.5t-111 -46.5t-111 46.5t-46 111.5t46 111t111 46t111 -46t46 -111z
" />
    <glyph glyph-name="arabicfivepointedstar" unicode="&#x66d;" horiz-adv-x="1154" 
d="M1120 700q-150 -161 -347 -277l-78 115q195 115 322 267zM721 533l-138 -9q0 220 -67 410l140 38q65 -214 65 -439zM1154 304l-39 -141q-217 48 -411 162l60 123q194 -110 390 -144zM600 544l-60 -123q-196 109 -390 143l39 142q217 -50 411 -162zM789 -66l-141 -38
q-65 213 -65 441l137 6q0 -216 69 -409zM610 331q-196 -117 -323 -266l-103 104q153 163 348 276z" />
    <glyph glyph-name="superscriptalef" unicode="&#x670;" horiz-adv-x="239" 
d="M226 1085h-104q2 16 2 38q0 82 -29 208q-29 123 -63 188l113 12q85 -206 85 -394q0 -28 -4 -52z" />
    <glyph glyph-name="alefwasla" unicode="&#x671;" horiz-adv-x="560" 
d="M553 0h-176q4 46 4 110q0 239 -50 605q-49 359 -105 547l189 36q49 -203 91 -508q53 -375 53 -637q0 -84 -6 -153zM436 1706q58 0 101 -71q41 -66 41 -144q0 -16 -2 -30q-91 -85 -216 -85q-9 0 -25 1h-25q-118 0 -202 -69q-38 43 -77 87q60 56 123 73q34 10 114 13
q8 110 68 174q48 51 100 51zM487 1516q-11 94 -58 94q-32 0 -57.5 -41t-23.5 -90q19 -2 36 -2q79 0 103 39z" />
    <glyph glyph-name="highhamza" unicode="&#x674;" horiz-adv-x="0" 
d="M370 1537q-180 -50 -311 -127l-59 75l80 41q-94 59 -94 142q0 182 290 188l5 -88q-204 -15 -204 -95q0 -41 35 -65.5t80 -24.5q25 0 154 42z" />
    <glyph glyph-name="peh" unicode="&#x67e;" horiz-adv-x="1695" 
d="M1683 419q16 -47 16 -100q0 -123 -75 -218q-79 -101 -193 -101h-940q-138 0 -237 112q-104 118 -104 299q0 112 68 260q59 128 130 208l142 -117q-63 -69 -107.5 -176t-44.5 -188q0 -107 56 -165q50 -51 127 -51h849q57 0 95 46t38 104q0 24 -7 46l-151 442l170 78
q65 -163 168 -479zM1202 -169q-7 0 -17 -208q-74 17 -257 20t-265 -12l-8 205q80 17 272 17q209 0 275 -22zM1009 -641q-122 16 -220 -1v197q22 10 107 11q78 0 113 -6v-201z" />
    <glyph glyph-name="tcheh" unicode="&#x686;" horiz-adv-x="1053" 
d="M1032 294q21 -38 21 -86q0 -80 -50 -142q-54 -66 -134 -66h-349q-168 0 -168 -152q0 -49 30 -87q32 -42 84 -50l557 -89l-27 -191l-603 95q-106 17 -176 113q-67 93 -67 209q0 142 97 236q103 98 274 98h318q21 0 26 22q4 20 -8 41l-219 400q-16 29 -35 29q-20 0 -31 -29
l-160 -420l-182 61l202 491q39 95 164 95t176 -95zM808 -49q-4 0 -9 -115q-41 10 -141 12q-101 1 -146 -7l-5 112q45 10 153 10q112 0 148 -12zM714 -285q-80 8 -121 -1v111q12 6 59 5q43 -1 62 -5v-110z" />
    <glyph glyph-name="jeh" unicode="&#x698;" horiz-adv-x="620" 
d="M441 1286q-122 16 -220 -1v197q22 10 107 11q78 0 113 -6v-201zM614 1208q-7 0 -17 -208q-74 17 -257 20t-265 -12l-8 205q80 17 272 17q209 0 275 -22zM594 196q0 -328 -230 -575l-141 114q187 243 187 496q0 116 -74 317l-101 275l163 82l112 -315q84 -236 84 -394z
" />
    <glyph glyph-name="veh" unicode="&#x6a4;" horiz-adv-x="1702" 
d="M1702 291q0 -131 -101 -213q-94 -78 -230 -78h-880q-138 0 -237 112q-104 118 -104 299q0 113 63 254q55 123 125 202l141 -105q-52 -58 -96.5 -171t-44.5 -193q0 -107 56 -165q50 -51 127 -51h849q147 0 147 68q-70 -22 -167 -22q-412 0 -412 297q0 119 64 234
q75 135 187 135q164 0 343 -225q170 -214 170 -378zM1456 448q-29 82 -104 166q-79 90 -134 90q-46 0 -75 -65q-23 -51 -23 -100q0 -72 41 -101q37 -25 123 -25q112 0 172 35zM1255 1269q-122 16 -220 -1v197q22 10 107 11q78 0 113 -6v-201zM1428 1191q-7 0 -17 -208
q-74 17 -257 20t-265 -12l-8 205q80 17 272 17q209 0 275 -22z" />
    <glyph glyph-name="keheh" unicode="&#x6a9;" horiz-adv-x="1637" 
d="M1629 300q2 -18 2 -36q0 -105 -57 -181q-61 -83 -155 -83h-820q-183 0 -312 113q-137 120 -137 308q0 228 210 476l130 -124q-156 -179 -156 -320q0 -110 70.5 -190.5t166.5 -80.5h782q104 0 104 109q0 13 -2 25l-34 260q-14 106 -163 152q-33 10 -138 13q-97 2 -123 -3
q-19 -4 -36 -4q-98 0 -98 115q0 27 6 58l16 86q12 66 70 122q55 52 128.5 74.5t240.5 22.5q169 0 259 -21v-177q-143 28 -230 28q-301 0 -301 -135q209 0 282 -18q233 -58 256 -256z" />
    <glyph glyph-name="gaf" unicode="&#x6af;" horiz-adv-x="1637" 
d="M1586 1316q-4 -17 -1 -59q-145 24 -297 24q-186 0 -299 -39l-15 58q143 33 351 33q138 0 261 -17zM1629 300q2 -18 2 -36q0 -105 -57 -181q-61 -83 -155 -83h-820q-183 0 -312 113q-137 120 -137 308q0 228 210 476l130 -124q-156 -179 -156 -320q0 -110 70.5 -190.5
t166.5 -80.5h782q104 0 104 109q0 13 -2 25l-34 260q-14 106 -163 152q-33 10 -138 13q-97 2 -123 -3q-19 -4 -36 -4q-98 0 -98 115q0 27 6 58l16 86q12 66 70 122q55 52 128.5 74.5t240.5 22.5q169 0 259 -21v-177q-143 28 -230 28q-301 0 -301 -135q209 0 282 -18
q233 -58 256 -256z" />
    <glyph glyph-name="farsiyeh" unicode="&#x6cc;" horiz-adv-x="1242" 
d="M1242 719h-211q-51 0 -84 -39q-28 -33 -28 -71q0 -63 79 -141q142 -139 147 -145q79 -98 79 -210q0 -203 -211 -315q-178 -95 -431 -95q-432 0 -432 334q0 139 87 340q66 155 147 275l158 -95q-205 -314 -205 -491q0 -117 83 -159q56 -28 180 -28q428 0 428 237
q0 68 -77 147l-142 144q-77 95 -77 199q0 124 96 214q94 87 216 87h198v-188z" />
    <glyph glyph-name="arabicae" unicode="&#x6d5;" horiz-adv-x="831" 
d="M831 283q0 -114 -61 -196q-66 -87 -168 -87h-228q-225 0 -225 241q0 81 38 211q36 123 78 200l158 -68q-86 -197 -86 -298q0 -104 67 -104h155q41 0 67 36q24 33 24 75q0 69 -97 195q-119 157 -300 249l97 143q159 -57 318 -252q163 -198 163 -345z" />
    <glyph glyph-name="smallhighmadda" unicode="&#x6e4;" 
d="M634 1653q-131 -123 -277 -150q-121 -7 -241 -15q-141 -13 -250 -102l-115 130q123 114 275 139q126 8 253 16q144 15 243 103z" />
    <glyph glyph-name="extendedarabicindicdigitzero" unicode="&#x6f0;" horiz-adv-x="880" 
d="M757 374q0 -114 -80.5 -193.5t-194.5 -79.5t-194.5 79.5t-80.5 193.5t80.5 194.5t194.5 80.5t194.5 -80.5t80.5 -194.5zM596 375q0 47 -33.5 80.5t-80.5 33.5t-80.5 -33.5t-33.5 -80.5t33.5 -79.5t80.5 -32.5t80.5 32.5t33.5 79.5z" />
    <glyph glyph-name="extendedarabicindicdigitone" unicode="&#x6f1;" horiz-adv-x="622" 
d="M469 -100h-176q4 46 4 110q0 239 -50 605q-49 359 -105 547l189 36q49 -203 91 -508q53 -375 53 -637q0 -84 -6 -153z" />
    <glyph glyph-name="extendedarabicindicdigittwo" unicode="&#x6f2;" horiz-adv-x="900" 
d="M900 647q0 -135 -72 -233q-77 -104 -197 -104q-106 0 -159 58q8 -74 12 -241q5 -176 -2 -227h-175q4 46 4 110q0 239 -50 605q-49 359 -105 547l170 36q68 -186 114 -516q11 -81 52.5 -128.5t97.5 -47.5t93.5 46.5t37.5 112.5q0 75 -54 224q-49 135 -107 239l159 70
q60 -83 116 -239q65 -180 65 -312z" />
    <glyph glyph-name="extendedarabicindicdigitthree" unicode="&#x6f3;" horiz-adv-x="1357" 
d="M1357 634q0 -134 -82 -227q-86 -97 -217 -97q-78 0 -157 49q-66 40 -91 82q-21 -43 -68 -83q-57 -48 -111 -48q-115 0 -159 48q8 -74 12 -236q5 -171 -2 -222h-175q4 49 4 115q0 242 -48 593.5t-107 532.5l158 71q84 -230 126 -530q11 -83 53.5 -132t102.5 -49
q44 0 73.5 42.5t29.5 99.5q0 19 -4 37l-91 465l176 58l94 -460q47 -232 167 -232q115 0 115 154q0 73 -51 222.5t-106 231.5l163 79q70 -98 131 -270q64 -180 64 -294z" />
    <glyph glyph-name="extendedarabicindicdigitfour" unicode="&#x6f4;" horiz-adv-x="1340" 
d="M1340 1139q0 -16 -40 -173q-132 75 -321 75q-105 0 -180 -61t-75 -155q0 -155 155 -241q125 -70 285 -70h170v-184l-801 1q-27 0 -61 27q8 -74 12 -236q5 -171 -2 -222h-175q4 49 4 115q0 242 -48 593.5t-107 532.5l158 71q94 -257 122 -530q17 -167 126 -167h104
q-124 120 -124 304q0 152 117 269q132 132 344 132q165 0 337 -81z" />
    <glyph glyph-name="extendedarabicindicdigitfive" unicode="&#x6f5;" horiz-adv-x="1219" 
d="M1219 349q0 -176 -116 -307.5t-266 -131.5q-45 0 -91 39t-71 39q-21 0 -68 -44t-145 -44q-143 0 -230 117q-79 108 -79 263q0 133 107 355q98 201 213 340l145 -135q-96 -119 -172 -277q-89 -185 -89 -307q0 -134 123 -134q64 0 111 54t73 54q33 0 81.5 -44.5t91.5 -44.5
q79 0 128 49q55 55 55 155q0 164 -167 385q-138 184 -327 333l113 141q201 -127 382 -380q198 -274 198 -475z" />
    <glyph glyph-name="extendedarabicindicdigitsix" unicode="&#x6f6;" horiz-adv-x="1149" 
d="M1149 753l-530 -876l-164 103l184 297q-60 -20 -121 -20q-153 0 -259 110q-110 115 -110 294q0 153 107 316q90 137 206 217l117 -144q-235 -156 -235 -364q0 -218 210 -218q200 0 334 218l102 166z" />
    <glyph glyph-name="extendedarabicindicdigitseven" unicode="&#x6f7;" horiz-adv-x="1375" 
d="M1375 1102q-358 -482 -467 -1202h-204q-197 817 -550 1170l137 126q136 -98 296 -380q150 -263 202 -465q55 214 167 457q128 279 249 400z" />
    <glyph glyph-name="extendedarabicindicdigiteight" unicode="&#x6f8;" horiz-adv-x="1370" 
d="M1370 35l-137 -126q-136 98 -296 380q-150 263 -202 465q-55 -214 -167 -457q-128 -279 -249 -400l-170 106q358 482 467 1202h204q197 -817 550 -1170z" />
    <glyph glyph-name="extendedarabicindicdigitnine" unicode="&#x6f9;" horiz-adv-x="1002" 
d="M1002 992q0 -42 -31 -232t-31 -378q0 -276 25 -483h-185q-16 66 -37 449q-246 0 -411 118q-182 131 -182 355q0 185 158 312q146 117 329 117q133 0 242 -67q123 -76 123 -191zM801 902q0 68 -61.5 110t-153.5 42q-119 0 -196 -78q-67 -69 -67 -155q0 -129 122 -213
t311 -84q0 81 22.5 211t22.5 167z" />
    <glyph glyph-name="zeronojoin" unicode="&#x200c;" horiz-adv-x="45" 
d="M45 0h-45v1628h45v-1628z" />
    <glyph glyph-name="zerojoin" unicode="&#x200d;" horiz-adv-x="45" 
d="M160 1496l-30 -30l-85 85v-1551h-45v1550l-84 -84l-30 30l107 107l-107 107l30 30l107 -107l107 107l30 -30l-107 -107z" />
    <glyph glyph-name="lefttoright" unicode="&#x200e;" horiz-adv-x="45" 
d="M303 1604l-137 -138l-31 31l86 86h-176v-1583h-45v1628h217l-82 82l31 31z" />
    <glyph glyph-name="righttoleft" unicode="&#x200f;" horiz-adv-x="45" 
d="M45 0h-45v1583h-176l86 -86l-31 -31l-137 138l137 137l31 -31l-82 -82h217v-1628z" />
    <glyph glyph-name="endash" unicode="&#x2013;" horiz-adv-x="1024" 
d="M1036 618h-1048v61h1048v-61z" />
    <glyph glyph-name="quotedash" unicode="&#x2014;" horiz-adv-x="2048" 
d="M2060 618h-2072v61h2072v-61z" />
    <glyph glyph-name="quoteleft" unicode="&#x2018;" horiz-adv-x="491" 
d="M467 1486q-89 -59 -154 -145q-76 -101 -76 -193q0 -55 32 -98q39 47 90 47q102 0 102 -100q0 -59 -48 -92q-43 -30 -104 -30q-82 0 -133 50.5t-51 132.5q0 141 108 283q97 127 234 200v-55z" />
    <glyph glyph-name="quoteright" unicode="&#x2019;" horiz-adv-x="491" 
d="M444 1353q0 -143 -107 -281q-92 -118 -232 -200v56q228 162 228 338q0 62 -33 101q-33 -49 -95 -49q-41 0 -69.5 28t-28.5 69q0 58 49 93q43 31 104 31q86 0 135 -50t49 -136z" />
    <glyph glyph-name="quotesinglbase" unicode="&#x201a;" horiz-adv-x="491" 
d="M458 164q0 -141 -108 -280q-92 -119 -231 -200v56q228 162 228 337q0 61 -33 100q-32 -48 -95 -48q-41 0 -69.5 28t-28.5 69q0 58 49 93q44 32 104 32q86 0 135 -50.5t49 -136.5z" />
    <glyph glyph-name="quotedblleft" unicode="&#x201c;" horiz-adv-x="650" 
d="M572 1146q-13 -6 -41 -26q-52 -51 -52 -95q82 -22 82 -112q0 -45 -31.5 -78t-76.5 -33q-52 0 -84 42q-29 38 -29 92q0 201 203 359q0 -84 1 -93q4 -40 28 -56zM302 1146q-13 -6 -41 -26q-52 -51 -52 -95q82 -22 82 -112q0 -45 -31.5 -78t-76.5 -33q-52 0 -84 42
q-29 38 -29 92q0 201 203 359q0 -84 1 -93q4 -40 28 -56z" />
    <glyph glyph-name="quotedblright" unicode="&#x201d;" horiz-adv-x="650" 
d="M580 1151q0 -201 -203 -359q0 84 -1 93q-4 40 -28 56q13 6 41 26q52 51 52 95q-82 22 -82 112q0 46 31 78.5t77 32.5q53 0 83 -39.5t30 -94.5zM310 1151q0 -201 -203 -359q0 84 -1 93q-4 40 -28 56q13 6 41 26q52 51 52 95q-82 22 -82 112q0 46 31 78.5t77 32.5
q53 0 85 -41q28 -38 28 -93z" />
    <glyph glyph-name="quotedblbase" unicode="&#x201e;" horiz-adv-x="939" 
d="M864 163q0 -144 -105 -281q-89 -115 -231 -200v56q226 160 226 343q0 50 -31 96q-34 -48 -91 -48q-42 0 -71.5 28.5t-29.5 70.5q0 60 48 93q42 29 104 29q181 0 181 -187zM414 167q0 -280 -336 -485v58q91 55 154 142q71 97 71 193q0 54 -29 102q-34 -48 -92 -48
q-44 0 -72.5 28t-28.5 72q0 59 49 92q42 29 104 29q82 0 131 -50.5t49 -132.5z" />
    <glyph glyph-name="dagger" unicode="&#x2020;" horiz-adv-x="896" 
d="M808 844h-45q-5 63 -118 94l-171 47q20 -162 95 -334q-79 -313 -95 -978h-53q-18 626 -95 978q72 164 95 334l-134 -36q-73 -20 -98 -32q-55 -27 -60 -73h-42v338h42q8 -70 149 -105l143 -36l-34 192q-20 111 -28 134q-28 78 -93 82v45h360v-45q-62 0 -91 -77
q-10 -27 -27 -128l-34 -203l121 30q161 40 168 111h45v-338z" />
    <glyph glyph-name="daggerdbl" unicode="&#x2021;" horiz-adv-x="896" 
d="M817 -21h-49q-6 51 -100 90l-190 54l49 -251q16 -82 26 -102q24 -49 82 -50v-46h-369v46q55 1 81 51q14 27 27 101l46 257l-196 -62q-85 -27 -90 -88h-51v346h51q7 -46 54 -72q18 -10 89 -32l143 -44q-20 150 -98 410q47 137 98 399l-170 -48q-119 -34 -123 -94h-44v341
h44q10 -43 41 -64q9 -5 74 -31l178 -49l-55 281q-12 62 -26 85q-23 38 -73 41v45h363v-45q-64 -2 -91 -71q-8 -21 -28 -125l-40 -211l105 27q91 23 115 34q68 30 71 83h56v-341h-56q-5 33 -27 53q-17 16 -99 41l-157 48q46 -250 97 -399q-64 -209 -97 -410l157 50l13 6
l36 12q77 26 84 80h49v-346z" />
    <glyph glyph-name="bullet" unicode="&#x2022;" horiz-adv-x="576" 
d="M517 768q0 -96 -66.5 -162.5t-162.5 -66.5t-162.5 66.5t-66.5 162.5q0 97 66 163.5t163 66.5q98 0 163.5 -66t65.5 -164z" />
    <glyph glyph-name="ellipsis" unicode="&#x2026;" horiz-adv-x="2048" 
d="M1827 219q0 -49 -35.5 -84t-84.5 -35q-50 0 -85.5 34.5t-35.5 84.5q0 48 35 83t83 35q51 0 87 -33.5t36 -84.5zM1144 219q0 -49 -35.5 -84t-84.5 -35q-50 0 -85 34.5t-35 84.5q0 49 34.5 83.5t83.5 34.5q50 0 86 -34t36 -84zM462 219q0 -50 -35.5 -84.5t-85.5 -34.5
q-49 0 -84.5 35t-35.5 84q0 48 35 83t83 35q51 0 87 -33.5t36 -84.5z" />
    <glyph glyph-name="perthousand" unicode="&#x2030;" horiz-adv-x="2069" 
d="M1990 494q0 -150 -90 -263q-97 -122 -243 -122q-124 0 -200 88q-73 85 -73 210q0 153 89 268q97 124 246 124q125 0 200 -92q71 -86 71 -213zM1314 494q0 -152 -89 -264q-96 -121 -244 -121q-123 0 -199 89q-73 84 -73 209q0 152 89 267q97 125 245 125q125 0 200 -92
q71 -86 71 -213zM686 1118q0 -150 -93 -263q-98 -119 -245 -119q-123 0 -198 90q-69 84 -69 210q0 147 91 263q98 125 242 125q127 0 202 -91q70 -86 70 -215zM1183 1464l-887 -1396h-86l888 1396h85zM1873 394q0 116 -50 216q-61 123 -166 123q-80 0 -120 -68
q-33 -56 -33 -141q0 -115 48 -217q61 -129 162 -129q159 0 159 216zM1198 394q0 116 -50 216q-61 123 -166 123q-79 0 -120 -68q-34 -56 -34 -141q0 -116 48 -218q60 -128 163 -128q159 0 159 216zM567 1026q0 112 -50 211q-61 121 -163 121q-155 0 -155 -215
q0 -119 49 -218q62 -125 168 -125q151 0 151 226z" />
    <glyph glyph-name="guilsinglleft" unicode="&#x2039;" horiz-adv-x="512" 
d="M457 966l-228 -382l222 -380v-75l-383 455l389 457v-75z" />
    <glyph glyph-name="guilsinglright" unicode="&#x203a;" horiz-adv-x="512" 
d="M457 586l-393 -457v75l231 382l-222 381v77z" />
    <glyph glyph-name="trademark" unicode="&#x2122;" horiz-adv-x="1856" 
d="M1833 598h-345v33q80 0 101 31q17 25 17 110v515l-310 -689h-18l-322 676v-508q0 -90 15 -110q19 -25 103 -25v-33h-287v33q82 0 101 30q13 20 13 111v460q0 84 -16 107q-21 30 -98 36v33h237l295 -636l287 636h227v-33q-75 -4 -94.5 -27.5t-19.5 -101.5v-474
q0 -84 16 -108q21 -31 98 -33v-33zM716 1218h-26q-8 83 -41 111.5t-117 28.5h-92v-566q0 -97 13 -121q22 -41 104 -40v-33h-357v33q82 -1 104 40q13 24 13 121v566h-92q-80 0 -114 -30.5t-44 -109.5h-26v190h675v-190z" />
    <glyph glyph-name="delete" unicode="&#x2421;" horiz-adv-x="1600" 
d="M1520 129h-366v586h78v-517h288v-69zM1080 129h-438v586h424v-69h-346v-179h324v-69h-324v-200h360v-69zM572 425q0 -242 -179 -286q-41 -10 -95 -10h-211v586h202q69 0 104 -8q112 -26 156 -142q23 -61 23 -140zM492 427q0 167 -104 207q-31 12 -100 12h-124v-448h126
q102 0 143 41q59 59 59 188z" />
    <glyph glyph-name="fathalow" unicode="&#xe820;" 
d="M440 1300q-222 -82 -483 -299l-52 74q248 208 498 310z" />
    <glyph glyph-name="dammalow" unicode="&#xe821;" 
d="M316 1376q0 -143 -111 -249q-107 -101 -240 -101q0 6 -6 81q135 8 205 85q-116 32 -116 105q0 97 69 193q61 85 98 85q101 0 101 -199zM248 1387q0 105 -38 105q-17 0 -51 -61q-35 -64 -35 -107q0 -48 91 -63q33 42 33 126z" />
    <glyph glyph-name="sukunlow" unicode="&#xe822;" 
d="M341 1206q0 -77 -54 -130t-131 -53t-131 53t-54 130t54 131t131 54t131 -54t54 -131zM251 1207q0 39 -28 67t-67 28t-67 -28t-28 -67t28 -66.5t67 -27.5t67 27.5t28 66.5z" />
    <glyph glyph-name="fathatanlow" unicode="&#xe823;" 
d="M400 1480q-222 -82 -483 -299l-52 74q248 208 498 310zM440 1300q-222 -82 -483 -299l-52 74q248 208 498 310z" />
    <glyph glyph-name="dammatanlow" unicode="&#xe824;" 
d="M316 1377q0 -143 -111 -249q-107 -101 -240 -101q0 6 -6 82l29 4q7 36 7 57q0 37 -24 37q-22 0 -72 -33l-23 64q50 47 106 47q37 0 55 -23q32 -41 11 -140q69 18 116 71q-116 32 -116 105q0 97 69 193q61 85 98 85q101 0 101 -199zM248 1388q0 105 -38 105q-17 0 -51 -61
q-35 -64 -35 -107q0 -48 91 -63q33 42 33 126z" />
    <glyph glyph-name="shaddalow" unicode="&#xe825;" 
d="M427 1205q0 -70 -34 -119q-38 -57 -104 -57q-52 0 -106 51q-38 -55 -120 -54q-63 0 -111 63q-45 59 -45 130q0 66 14 145l83 -19q-12 -40 -12 -90q0 -136 71 -136q58 0 58 68q0 20 -24 154q36 2 92 10q24 -161 25 -163q18 -63 72 -63q43 0 43 53q0 62 -52 173l77 40
q73 -121 73 -186z" />
    <glyph glyph-name="kasralow" unicode="&#xe826;" 
d="M594 -230q-222 -82 -483 -299l-52 74q248 208 498 310z" />
    <glyph glyph-name="kasratanlow" unicode="&#xe827;" 
d="M594 -200q-222 -82 -483 -299l-52 74q248 208 498 310zM634 -380q-222 -82 -483 -299l-52 74q248 208 498 310z" />
    <glyph glyph-name="shaddawithfathaisolatedlow" unicode="&#xe828;" horiz-adv-x="0" 
d="M481 1925l-57 -149l-483 -111l49 139zM307 1516q31 0 33 72.5t12 97.5l6 12l13 -4q26 -8 40.5 -43t14.5 -80q0 -55 -21.5 -107.5t-62.5 -77.5q-16 -4 -25 -4q-20 0 -38 15q-27 -37 -68 -60.5t-84 -23.5q-21 0 -39 6q-31 18 -48 57t-17 84q0 76 40 107l15 12l10 -14
q21 -27 28 -72t19 -45q6 0 17 6q45 8 59 78t55 78q19 -15 32 -46.5t9 -47.5z" />
    <glyph glyph-name="shaddawithdammaisolatedlow" unicode="&#xe829;" 
d="M316 1776q0 -143 -111 -249q-107 -101 -240 -101q0 6 -6 81q135 8 205 85q-116 32 -116 105q0 97 69 193q61 85 98 85q101 0 101 -199zM391 1263q-1 -184 -124 -184q-69 0 -106 51q-38 -104 -120 -104q-68 0 -107 46t-39 117q0 66 14 125l83 -19q-10 -47 -10 -85
q0 -91 59 -91q63 0 63 87q0 47 -23 147q33 6 86 18q17 -112 32 -148q21 -48 65 -48q46 0 46 56q0 64 -55 180l77 40q59 -123 59 -188zM248 1787q0 105 -38 105q-17 0 -51 -61q-35 -64 -35 -107q0 -48 91 -63q33 42 33 126z" />
    <glyph glyph-name="shaddawithfathatanisolatedlow" unicode="&#xe82a;" horiz-adv-x="0" 
d="M453 1989l-58 -148l-481 -110l48 139zM477 2173l-59 -150l-481 -110l47 139zM272 1548q31 0 33 73t12 97l5 13l12 -5q26 -8 41.5 -42.5t15.5 -81.5q0 -56 -21.5 -107t-62.5 -76q-16 -4 -24 -4q-21 0 -39 15q-27 -37 -68 -60.5t-84 -23.5q-20 0 -39 6q-33 20 -50 58
t-17 83q0 76 43 106l14 13l8 -15q23 -28 30 -72t19 -44q6 0 17 6q45 8 59 77.5t55 77.5q19 -16 33.5 -46.5t7.5 -47.5z" />
    <glyph glyph-name="shaddawithdammatanisolatedlow" unicode="&#xe82b;" 
d="M306 1787q0 -143 -111 -249q-107 -101 -240 -101q0 6 -6 82l29 4q7 36 7 57q0 37 -24 37q-22 0 -72 -33l-23 64q50 47 106 47q37 0 55 -23q32 -41 11 -140q69 18 116 71q-116 32 -116 105q0 97 69 193q61 85 98 85q101 0 101 -199zM391 1263q-1 -184 -124 -184
q-69 0 -106 51q-38 -104 -120 -104q-68 0 -107 46t-39 117q0 66 14 125l83 -19q-10 -47 -10 -85q0 -91 59 -91q63 0 63 87q0 47 -23 147q33 6 86 18q17 -112 32 -148q21 -48 65 -48q46 0 46 56q0 64 -55 180l77 40q59 -123 59 -188zM238 1798q0 105 -38 105q-17 0 -51 -61
q-35 -64 -35 -107q0 -48 91 -63q33 42 33 126z" />
    <glyph glyph-name="shaddawithkasraisolatedlow" unicode="&#xe82c;" 
d="M381 1573q-1 -184 -124 -184q-69 0 -106 51q-38 -104 -120 -104q-68 0 -107 46t-39 117q0 66 14 125l83 -19q-10 -47 -10 -85q0 -91 59 -91q63 0 63 87q0 47 -23 147q33 6 86 18q17 -112 32 -148q21 -48 65 -48q46 0 46 56q0 64 -55 180l77 40q59 -123 59 -188zM440 1280
q-222 -82 -483 -299l-52 74q248 208 498 310z" />
    <glyph glyph-name="shaddawithkasratanisolatedlow" unicode="&#xe82d;" 
d="M323 1736q-1 -184 -124 -184q-69 0 -106 51q-38 -104 -120 -104q-68 0 -107 46t-39 117q0 66 14 125l83 -19q-10 -47 -10 -85q0 -91 59 -91q63 0 63 87q0 47 -23 147q33 6 86 18q17 -112 32 -148q21 -48 65 -48q46 0 46 56q0 64 -55 180l77 40q59 -123 59 -188zM382 1443
q-222 -82 -483 -299l-52 74q248 208 498 310zM440 1280q-222 -82 -483 -299l-52 74q248 208 498 310z" />
    <glyph glyph-name="ornateleftparenthesis" unicode="&#xfd3e;" horiz-adv-x="737" 
d="M51 514q0 -313 133 -490t281.5 -244.5t189.5 -67.5q-24 0 -124.5 77.5t-189.5 255.5t-89 473q0 291 89 468t190.5 256t123.5 79q-43 0 -189.5 -66.5t-280.5 -246t-134 -494.5z" />
    <glyph glyph-name="ornaterightparenthesis" unicode="&#xfd3f;" horiz-adv-x="737" 
d="M651 514q0 -313 -133 -490t-281.5 -244.5t-189.5 -67.5q25 0 125 77.5t189.5 255.5t89.5 473q0 291 -89.5 468t-190.5 256t-124 79q43 0 189.5 -66.5t280.5 -246t134 -494.5z" />
    <glyph glyph-name="zerowidthnobreakspace" unicode="&#xfeff;" horiz-adv-x="0" 
 />
  </font>
</defs>
</svg>
