<?xml version="1.0" ?><!DOCTYPE svg  PUBLIC '-//W3C//DTD SVG 1.1//EN'
        'http://www.w3.org/Graphics/SVG/1.1/DTD/svg11.dtd'>
<svg enable-background="new 0 0 128 128" height="128px" version="1.1" viewBox="0 0 128 128" width="128px"
     xml:space="preserve" xmlns="http://www.w3.org/2000/svg" xmlns:xlink="http://www.w3.org/1999/xlink"><g id="OBJECT"><g><path fill="#f4f6ff" d="M62.584,81.868c0.093,0.093,0.197,0.177,0.307,0.25c0.048,0.032,0.099,0.054,0.148,0.081    c0.065,0.035,0.127,0.074,0.196,0.104c0.065,0.026,0.133,0.042,0.2,0.062c0.058,0.017,0.113,0.039,0.173,0.052    c0.129,0.025,0.26,0.039,0.392,0.039s0.262-0.014,0.392-0.039c0.06-0.013,0.115-0.035,0.173-0.052    c0.067-0.02,0.135-0.035,0.2-0.062c0.068-0.029,0.131-0.068,0.196-0.104c0.049-0.027,0.101-0.049,0.148-0.081    c0.11-0.073,0.213-0.157,0.307-0.25l32.361-32.356c0.781-0.78,0.781-2.047,0-2.828c-0.781-0.781-2.047-0.781-2.829,0L66,75.627    V2.003c0-1.104-0.896-2-2-2s-2,0.896-2,2v73.624L33.051,46.684c-0.781-0.781-2.047-0.781-2.829,0    c-0.781,0.781-0.781,2.048,0,2.828L62.584,81.868z"/><path
        fill="#f4f6ff" d="M119.393,91.521c-1.104,0-2,0.896-2,2V124H10.606V93.521c0-1.104-0.896-2-2-2s-2,0.896-2,2V126c0,1.104,0.896,2,2,2    h110.787c1.104,0,2-0.896,2-2V93.521C121.393,92.416,120.498,91.521,119.393,91.521z"/><path
        fill="#f4f6ff" d="M40,105c-1.104,0-2,0.896-2,2s0.896,2,2,2h48c1.104,0,2-0.896,2-2s-0.896-2-2-2H40z"/></g></g></svg>