<?xml version="1.0" ?>
<svg id="Solid" viewBox="0 0 32 32" xmlns="http://www.w3.org/2000/svg">
    <defs>
        <style>.cls-1{fill:#f4f6ff;}</style>
    </defs>
    <title/>
    <path class="cls-1"
          d="M26.74,8.5a.65.65,0,0,0,0-.19.64.64,0,0,0,0-.07A.86.86,0,0,0,26.53,8L20.86,2.46a.83.83,0,0,0-.22-.14l-.07,0a.58.58,0,0,0-.18,0H6A.76.76,0,0,0,5.25,3V29a.76.76,0,0,0,.75.75H26a.76.76,0,0,0,.75-.75V8.55S26.74,8.52,26.74,8.5ZM20.49,19.14l-4,3.43-.09.07-.16.07a.67.67,0,0,1-.24,0,.59.59,0,0,1-.23,0,.53.53,0,0,1-.17-.08l-.09-.06-4-3.43a.75.75,0,1,1,1-1.13l2.76,2.36V10a.75.75,0,0,1,1.5,0V20.37L19.51,18a.75.75,0,1,1,1,1.13ZM25.25,9.3H20.34a.75.75,0,0,1-.75-.75V3.75H20l1.06,1,3.07,3,1.09,1.06Z"/>
</svg>