<?xml version="1.0" standalone="no"?>
<!DOCTYPE svg PUBLIC "-//W3C//DTD SVG 20010904//EN"
 "http://www.w3.org/TR/2001/REC-SVG-20010904/DTD/svg10.dtd">
<svg version="1.0" xmlns="http://www.w3.org/2000/svg"
 width="300.000000pt" height="300.000000pt" viewBox="0 0 300.000000 300.000000"
 preserveAspectRatio="xMidYMid meet">
<metadata>
Created by potrace 1.14, written by Peter Selinger 2001-2017
</metadata>
<g transform="translate(0.000000,300.000000) scale(0.100000,-0.100000)"
fill="#000000" stroke="none">
<path d="M1284 2776 l-211 -213 -208 1 c-114 1 -209 -3 -212 -7 -3 -4 -10 -4
-16 0 -10 7 -86 9 -169 4 -15 -1 -16 -26 -17 -273 0 -150 0 -289 0 -309 -1
-32 -18 -53 -216 -251 -118 -119 -215 -220 -215 -225 0 -5 11 -16 25 -23 13
-7 23 -16 22 -19 -1 -3 19 -27 45 -52 27 -26 48 -44 48 -40 0 3 5 -1 10 -9 5
-8 71 -76 146 -151 l136 -137 0 -301 c0 -236 3 -303 13 -311 9 -7 15 -8 19 -1
4 6 13 8 21 5 23 -9 78 -10 102 -2 13 4 23 3 25 -4 3 -8 11 -7 27 2 19 10 22
10 15 -2 -6 -11 -5 -11 8 0 12 9 18 10 23 2 5 -8 11 -8 19 -1 7 6 15 8 18 6 9
-9 82 -11 105 -3 13 4 23 3 25 -4 3 -8 11 -7 27 2 19 10 22 10 15 -2 -6 -10
-5 -11 7 -1 11 9 19 9 26 2 7 -7 13 -7 17 -1 4 7 17 7 35 2 19 -5 33 -4 40 3
8 8 11 8 11 -2 0 -7 4 -10 8 -7 10 6 412 -391 404 -399 -3 -3 1 -5 8 -5 7 0
18 -7 24 -16 10 -13 46 19 233 205 217 216 222 220 260 218 21 -2 48 1 61 5
13 4 22 3 22 -2 0 -12 22 -9 32 5 5 6 8 5 8 -3 0 -9 5 -10 19 -2 14 7 21 6 25
-3 5 -9 7 -9 12 0 3 7 11 9 19 7 23 -9 79 -10 103 -2 13 4 22 3 22 -2 0 -12
22 -9 32 5 5 6 8 5 8 -3 0 -9 5 -10 19 -2 14 7 21 6 25 -3 5 -9 7 -9 12 0 3 7
11 9 19 7 23 -9 79 -10 103 -2 14 5 22 4 22 -4 0 -6 3 -8 7 -4 4 4 8 145 8
314 l0 307 217 217 217 217 -217 216 -217 217 0 311 0 312 -35 0 c-19 0 -47
-3 -61 -6 -15 -4 -32 -3 -40 1 -7 5 -21 4 -31 -1 -10 -6 -18 -6 -18 -1 0 10
-54 7 -71 -3 -5 -4 -9 -3 -9 2 0 4 -29 8 -65 8 -36 0 -65 -3 -65 -7 0 -5 -5
-8 -11 -8 -5 0 -8 3 -5 8 6 9 -55 9 -71 -1 -6 -4 -14 -3 -18 3 -4 7 -12 7 -26
0 -10 -6 -19 -7 -19 -2 0 5 -16 7 -36 5 -33 -3 -42 2 -106 64 -122 120 -223
224 -226 234 -2 5 -9 9 -15 9 -7 0 -21 14 -32 30 -11 17 -28 33 -37 36 -10 3
-18 12 -18 20 0 8 -4 12 -10 9 -5 -3 -10 1 -10 9 0 40 -50 0 -246 -198z"/>
</g>
</svg>
