<svg xmlns="http://www.w3.org/2000/svg" viewBox="0 0 483.3 367.7"><defs><style>.cls-1{fill:#fff}</style></defs><g id="Calque_2" data-name="Calque 2"><g id="Capa_1" data-name="Capa 1"><path class="cls-1" d="M424.3 0H59.1A59.07 59.07 0 000 59v249.6a59.15 59.15 0 0059.1 59.1h365.1a59.15 59.15 0 0059.1-59.1V59.2a59 59 0 00-59-59.2zm32.1 308.7a32.14 32.14 0 01-32.1 32.1H59.1A32.14 32.14 0 0127 308.7V59.2a32.14 32.14 0 0132.1-32.1h365.1a32.14 32.14 0 0132.1 32.1l.1 249.5z"/><path class="cls-1" d="M304.8 180.8L423 74.8a13.52 13.52 0 00-18.1-20.1L241.9 201l-31.8-28.4c-.1-.1-.2-.2-.2-.3a20 20 0 00-2.2-1.9L78.3 54.5a13.53 13.53 0 00-18 20.2l119.6 106.9L60.8 293.2a13.55 13.55 0 00-.6 19.1 13.81 13.81 0 009.9 4.3 13.53 13.53 0 009.2-3.6l120.9-113.1 32.8 29.3a13.46 13.46 0 0018-.1l33.7-30.2 120.2 114.2a13.54 13.54 0 0019.1-.5 13.55 13.55 0 00-.5-19.1z"/></g></g></svg>