<svg xmlns="http://www.w3.org/2000/svg" version="1.1" id="Calque_1" x="0" y="0" style="enable-background:new 0 0 623.6 793.7" xml:space="preserve" viewBox="-504.1 62.1 313 31.2"><style>.st0{fill:#fff}</style><path class="st0" d="M-504 69.1h11.4c4.1 0 6.8 1 8.4 2.7 1.4 1.4 2.1 3.2 2.1 5.6v.1c0 3.4-1.8 5.8-4.6 7.2l5.4 8h-8.9l-4.4-6.7h-1.7v6.7h-7.8V69.1zm11.2 11.2c1.9 0 3-.8 3-2.3 0-1.5-1.2-2.3-3-2.3h-3.4v4.6h3.4zM-480.1 69.1h19.9v6.5h-12.2V78h11.4v5.7h-11.4v2.6h12.4v6.5h-20.1V69.1zm10.3-7 7.7 1.8-5.3 3.9h-5.6l3.2-5.7zM-457.9 69.1h10.5c6.2 0 10.4 2.8 10.4 8.4v.1c0 5.7-4.3 8.7-10.6 8.7h-2.5v6.4h-7.8V69.1zm9.9 11.6c2 0 3.3-.9 3.3-2.6V78c0-1.7-1.2-2.6-3.3-2.6h-2.1v5.3h2.1zM-435.8 81c0-6.9 5.6-12.4 12.8-12.4s12.7 5.4 12.7 12.2v.1c0 6.8-5.6 12.3-12.8 12.3s-12.7-5.4-12.7-12.2zm17.6 0c0-2.9-1.9-5.4-4.9-5.4-3 0-4.8 2.5-4.8 5.3v.1c0 2.8 1.9 5.3 4.9 5.3 2.9-.1 4.8-2.6 4.8-5.3zM-408.2 69.1h7.3l8.3 10.4V69.1h7.7v23.6h-6.9l-8.7-10.9v10.9h-7.7V69.1zM-384.1 89.2l4.2-5c2.5 2 5.4 2.8 8.2 2.8 1.4 0 2-.4 2-1v-.1c0-.7-.7-1-3.2-1.6-5.2-1.1-9.8-2.6-9.8-7.6v-.1c0-4.5 3.5-8 9.9-8 4.5 0 7.8 1.1 10.5 3.2l-3.8 5.3c-2.2-1.6-4.8-2.3-7-2.3-1.2 0-1.7.4-1.7 1v.1c0 .6.6 1 3.1 1.5 6 1.1 10 2.9 10 7.6v.1c0 5-4 8-10.3 8-4.8 0-9.1-1.3-12.1-3.9zM-359 69.1h19.9v6.5h-12.2V78h11.4v5.7h-11.4v2.6h12.4v6.5H-359V69.1zM-337.4 89.2l4.2-5c2.5 2 5.4 2.8 8.2 2.8 1.4 0 2-.4 2-1v-.1c0-.7-.7-1-3.2-1.6-5.2-1.1-9.8-2.6-9.8-7.6v-.1c0-4.5 3.5-8 9.9-8 4.5 0 7.8 1.1 10.5 3.2l-3.8 5.3c-2.2-1.6-4.8-2.3-7-2.3-1.2 0-1.7.4-1.7 1v.1c0 .6.6 1 3.1 1.5 6 1.1 10 2.9 10 7.6v.1c0 5-4 8-10.3 8-4.9 0-9.1-1.3-12.1-3.9z"/><g><path class="st0" d="M-303.7 69.2h10.6c6.3 0 10.5 2.8 10.5 8.4v.1c0 5.7-4.3 8.7-10.7 8.7h-2.6v6.4h-7.9V69.2zm10 11.5c2 0 3.4-.9 3.4-2.6V78c0-1.7-1.2-2.6-3.3-2.6h-2.2v5.2h2.1z"/><path class="st0" d="M-283.1 69.2h7.9v8.3h7.2v-8.3h7.9v23.6h-7.9v-8.4h-7.2v8.4h-7.9V69.2z"/><path class="st0" d="M-260.5 81c0-6.9 5.6-12.3 12.9-12.3 7.3 0 12.8 5.4 12.8 12.2v.1c0 6.8-5.6 12.3-12.9 12.3-7.3-.1-12.8-5.5-12.8-12.3zm17.8 0c0-2.9-1.9-5.4-4.9-5.4-3 0-4.9 2.5-4.9 5.2v.1c0 2.8 1.9 5.3 4.9 5.3 3 .1 4.9-2.4 4.9-5.2z"/><path class="st0" d="M-229.8 75.8h-6.9v-6.7h21.7v6.7h-6.9v16.9h-7.9V75.8z"/><path class="st0" d="M-216.8 81c0-6.9 5.6-12.3 12.9-12.3 7.3 0 12.8 5.4 12.8 12.2v.1c0 6.8-5.6 12.3-12.9 12.3-7.2-.1-12.8-5.5-12.8-12.3zm17.8 0c0-2.9-1.9-5.4-4.9-5.4-3 0-4.9 2.5-4.9 5.2v.1c0 2.8 1.9 5.3 4.9 5.3 3 .1 4.9-2.4 4.9-5.2z"/></g></svg>