<svg xmlns="http://www.w3.org/2000/svg" xmlns:xlink="http://www.w3.org/1999/xlink" preserveAspectRatio="xMidYMid" width="16" height="16" viewBox="0 0 16 16">
  <defs>
    <style>
      .cls-1 {
        fill: #9b9b9b;
        fill-rule: evenodd;
      }
    </style>
  </defs>
  <path d="M15.695,14.287 L12.591,11.180 C13.465,10.011 13.989,8.566 13.989,6.994 C13.989,3.128 10.858,-0.006 6.996,-0.006 C3.134,-0.006 0.003,3.128 0.003,6.994 C0.003,10.859 3.134,13.993 6.996,13.993 C8.566,13.993 10.011,13.468 11.178,12.593 L14.283,15.700 C14.477,15.896 14.733,15.992 14.989,15.992 C15.245,15.992 15.501,15.896 15.695,15.700 C16.084,15.311 16.084,14.675 15.695,14.287 ZM2.001,6.994 C2.001,4.237 4.241,1.994 6.996,1.994 C9.750,1.994 11.991,4.237 11.991,6.994 C11.991,9.749 9.750,11.993 6.996,11.993 C4.241,11.993 2.001,9.749 2.001,6.994 Z" class="cls-1"/>
</svg>
